<svg xmlns="http://www.w3.org/2000/svg" width="950" height="747" fill="none"><path fill="#000000" fill-rule="evenodd" d="M133.634 2.068c-1.701.74-5.076 1.673-7.5 2.074-5.429.896-5.845 1.23-12.38 9.953-9.2 12.28-11.282 17.975-13.089 35.798-.591 5.83-1.09 6.413-4.203 4.913-14.542-7.014-14.563-7.03-15.695-12.413-.665-3.156-3.859-3.733-7.1-1.282-1.067.808-2.928 1.483-4.134 1.5-1.207.018-2.782.865-3.5 1.883-1.344 1.904-7.137 5.301-8.527 5-.78-.169-2.597.415-7.28 2.34-4.447 1.826-11.446 3.787-13.56 3.798-1.133.006-3.524 1.442-5.313 3.191-2.53 2.474-3.117 3.725-2.638 5.631.547 2.183.364 2.376-1.687 1.78-6.942-2.018-8.558-1.893-10.319.794-1.404 2.143-2.482 2.615-5.976 2.615-2.349 0-4.763.603-5.378 1.344-.615.742-1.565 8.695-2.119 17.75-.552 9.023-1.453 19.106-2 22.406-2.052 12.34-1.013 45.49 2.524 80.5 4.152 41.108 4.86 56.035 4.631 97.752-.126 23.002-.627 35.478-1.746 43.5-.864 6.186-1.815 14.434-2.115 18.328l-.545 7.08 3.67 2.165c2.201 1.299 4.27 3.603 5.17 5.759 1.457 3.487 1.423 3.666-1.155 6.055-2.393 2.219-2.588 2.917-1.965 7.068.411 2.74 2.487 7.566 5.124 11.91 2.44 4.017 4.843 9.459 5.343 12.093 1.34 7.049 2.543 9.707 8.46 18.678 5.062 7.678 9.33 11.948 20.331 20.344 2.62 1.999 6.113 4.914 7.763 6.477 1.65 1.562 6.326 5.417 10.391 8.566 8.35 6.467 22.71 18.71 25.378 21.636 1.231 1.349 1.712 3.332 1.58 6.514-.173 4.195.59 11.393 1.596 15.075.226.825.705 9.144 1.066 18.488.361 9.343 1.055 17.668 1.542 18.5.75 1.279.891 1.237.917-.273.016-.982.797-2.957 1.735-4.388 2.676-4.084 2.345-23.746-.54-32.081-2.656-7.673-2.868-14.039-.498-14.948 2.167-.832 10.144 3.455 12.552 6.744 2.141 2.925 3.691 14.303 4.354 31.958.237 6.325.65 12.458.918 13.629.267 1.17.738 5.22 1.045 9 .308 3.779 1.176 8.671 1.929 10.871.754 2.2 1.613 7.6 1.91 12 .296 4.4.849 10.207 1.229 12.904l.691 4.905-3.186-.637c-2.352-.471-3.338-.24-3.768.883-.74 1.928 2.203 5.239 5.013 5.639 1.909.272 2.235 1.19 2.956 8.306.446 4.4 1.015 9.389 1.265 11.087.705 4.785 6.672 10.865 15.209 15.497 13.28 7.205 17.463 10.065 26.216 17.923 4.675 4.197 11.65 9.72 15.5 12.273 9.438 6.259 14.946 10.246 21.5 15.563 3.025 2.454 7.975 5.581 11 6.949 3.025 1.368 9.187 4.225 13.693 6.349 4.506 2.124 11.199 4.559 14.874 5.411 3.675.852 10.058 2.652 14.185 3.999 4.127 1.347 8.683 2.458 10.126 2.469 1.442.012 6.8-2.111 11.905-4.717 8.9-4.542 9.571-5.125 16.226-14.091 9.264-12.482 16.78-25.077 18.458-30.931l3.52-12.281c2.777-9.689 5.004-23.03 5.009-30 .002-3.025.941-12.7 2.085-21.5 3.816-29.342 5.876-52.021 7.995-88 .616-10.45 1.557-21.475 2.092-24.5.534-3.025 1.158-15.246 1.385-27.158.228-11.911 1.07-25.861 1.873-31 2.27-14.534 3.901-39.392 3.237-49.33-.332-4.957-.179-23.637.34-41.512 1.742-60.093 1.823-69.354.628-71.998-.787-1.741-1.136-16.336-1.149-48.002-.009-25.025-.412-56.525-.895-70l-.878-24.5-3.397-5.336c-1.868-2.934-4.107-7.11-4.975-9.279-.867-2.169-2.311-4.33-3.207-4.805-.897-.474-5.905-1.392-11.13-2.04-8.135-1.01-15.199-2.584-27-6.013-1.375-.399-6.226-.59-10.78-.424-8.849.324-10.974 1.242-18.055 7.806-6.42 5.95-7.373 9.711-9.146 36.091-.592 8.8-1.331 16.826-1.642 17.835-.914 2.964-4.269 1.405-17.425-8.098-16.953-12.247-34.176-24.212-35.952-24.978-.825-.356-4.875-2.952-9-5.768-4.125-2.817-9.525-6.283-12-7.703-2.475-1.419-7.312-4.65-10.75-7.182-6.06-4.462-6.25-4.739-6.25-9.104 0-4.086.222-4.502 2.401-4.502 1.688 0 3.02 1.048 4.481 3.524 1.143 1.938 2.763 3.786 3.598 4.107.848.325 1.52 1.794 1.52 3.321 0 1.506.823 3.483 1.829 4.393 5.047 4.568 6.728-.255 5.172-14.845-.645-6.05-1.595-13.025-2.111-15.5a442.995 442.995 0 0 1-1.389-6.914c-.786-4.22-3.698-12.427-6.139-17.303-1.299-2.594-2.362-5.206-2.362-5.805 0-1.629-10.932-23.192-12.844-25.334-4.547-5.097-14.217-7.063-20.748-4.219zm9.235 14.544c6.236 3.576 8.999 7.767 9.918 15.042l.693 5.49-3.627-3.447c-1.995-1.896-3.629-4.37-3.631-5.5-.006-3.617-3.713-8.554-6.422-8.554-1.351 0-2.708.408-3.016.906-.308.5-2.574 1.593-5.036 2.432-4.32 1.472-10.612 5.558-13.34 8.662-2.188 2.49-.432-3.825 2.069-7.439 6.067-8.769 8.039-10.388 12.749-10.467 3.251-.054 5.927.743 9.643 2.875zm-9.24 17.501c.341 1.36 2.463 4.172 4.715 6.25l4.094 3.78-.621 8.5c-1.372 18.787-1.903 21.532-4.091 21.16-4.73-.808-11.506-4.59-15.485-8.645l-4.288-4.369.712-7.323c1.026-10.554 5.003-18.808 10.061-20.878 3.313-1.355 4.254-1.063 4.903 1.525zm514.597 64.073c-1.375.762-3.625 1.412-5 1.445-1.375.032-8.575 1.634-16 3.56-7.425 1.925-17.1 4.181-21.5 5.012-4.4.832-9.919 1.946-12.264 2.476-2.346.53-6.621.989-9.5 1.02-5.994.064-12.037 2.282-16.47 6.045-2.714 2.303-3.307 3.843-5.19 13.481-1.995 10.214-2.088 12.875-1.507 43.399.34 17.886 1.077 36.119 1.637 40.519.56 4.4 1.394 31.4 1.855 60 .955 59.415 1.348 71.464 2.847 87.5.591 6.325 1.086 16.675 1.1 23 .055 25.707 2.681 40.863 8.832 50.978 1.094 1.798 6.73 7.151 12.525 11.896 5.795 4.744 15.78 13.126 22.189 18.626 6.409 5.5 14.644 12.167 18.3 14.815 3.655 2.648 7.586 5.696 8.736 6.773 1.149 1.078 5.232 4.086 9.073 6.686 3.841 2.599 10.702 7.539 15.247 10.976 4.545 3.438 8.892 6.25 9.661 6.25 1.124 0 1.259 1.226.69 6.25-.935 8.245-.872 21.126.186 38.001.73 11.659.633 14.017-.641 15.5-2.298 2.676-2.725 4.674-1.839 8.603.795 3.525.742 3.61-2.673 4.251-1.917.359-6.48.316-10.14-.096-11.757-1.323-25.838-.13-32.404 2.746-3.005 1.317-3.75 2.181-3.75 4.35 0 3.829 4.488 9.395 7.575 9.395 1.36 0 4.825 1.613 7.699 3.585 5.717 3.923 14.179 11.306 13.594 11.861-.202.192-2.969-.063-6.149-.567-7.337-1.163-9.719-.07-9.719 4.459 0 6.203 6.975 11.384 29.01 21.548 7.473 3.447 10.538 6.387 14.713 14.114 2.423 4.484 5.539 7.567 16.87 16.689 14.416 11.606 15.053 12.241 23.891 23.811 2.941 3.85 7.09 9.25 9.219 12 2.13 2.75 5.339 7.137 7.132 9.749 3.249 4.734 7.451 7.737 10.865 7.766 2.56.022 5.188 1.98 3.55 2.644-2.508 1.018-1.139 4.255 3.604 8.52 5.253 4.722 11.58 7.174 21.449 8.31 7.553.87 8.768-.097 8.023-6.384-.309-2.609-.071-8.538.528-13.175 2.3-17.778 2.31-20.032.16-35.827-1.173-8.621-1.994-18.107-1.824-21.078l.31-5.403 5.109-1.761c3.742-1.29 9.363-1.879 21-2.201 9.596-.266 21.211-1.316 29.319-2.651 12.678-2.087 14.382-2.143 30.5-1.003 16.1 1.14 48.052 2.721 59.072 2.925 4.813.088 5.071.241 6.911 4.08 1.941 4.052 4.421 5.119 6.366 2.739.561-.687 1.35-5.3 1.753-10.25.644-7.93 1.072-9.39 3.601-12.285 3.395-3.886 3.552-5.287.869-7.715-1.1-.995-2.014-2.528-2.032-3.405-.017-.877-.67-2.438-1.45-3.468-.839-1.109-1.194-2.998-.868-4.628.739-3.694-.943-6.527-5.629-9.486-2.141-1.351-7.184-5.44-11.207-9.085-8.094-7.335-14.948-12.205-24.978-17.747-7.551-4.173-15.679-9.298-20.836-13.139-9.185-6.84-8.355-5.248-7.065-13.559 1.34-8.636 1.423-65.707.116-79.483-.47-4.95-1.366-14.625-1.993-21.5-.626-6.875-2.007-21.725-3.07-33-1.062-11.275-2.411-36.377-2.998-55.781-.992-32.841-.946-35.485.671-38.222 1.616-2.735 1.624-3.177.113-6.344-1.333-2.795-1.738-8.741-2.27-33.278-.724-33.47-1.633-43.152-4.701-50.087-1.221-2.76-2.042-6.547-1.949-8.989.178-4.707-1.244-6.08-6.275-6.061-2.36.01-4.188-1.381-9.514-7.239-4.321-4.752-8.018-7.81-10.729-8.875-2.274-.893-6.152-3.462-8.618-5.708-4.324-3.94-4.508-4.345-5.216-11.5-.404-4.079-1.329-8.576-2.054-9.993-1.471-2.871-15.215-12.575-19.243-13.586-1.423-.358-4.532-.129-6.91.507-8.543 2.284-11.501 1.656-16.301-3.466-2.383-2.542-5.782-5.227-7.554-5.968-3.598-1.503-5.44-5.371-5.44-11.424 0-4.636-3.322-9.224-6.365-8.79-2.3.327-2.573 2.377-1.139 8.554 1.028 4.431-.831 4.222-6.282-.709l-4.286-3.877 2.258-1.582c1.243-.87 2.798-1.582 3.457-1.582 1.471 0 2.731-5.247 1.893-7.885-.965-3.043-3.163-3.495-17.286-3.557l-13.25-.058-4.75-4.054c-4.596-3.923-20.871-15.734-22.8-16.546-.523-.22-3.94-2.1-7.595-4.177-3.655-2.078-9.28-4.463-12.5-5.301-3.22-.838-6.755-2.105-7.855-2.816-3.174-2.05-11.604-2.668-14.5-1.063zm-538-58.593c0 1.073.656 2.318 1.458 2.766 1.209.677 1.292 2.006.488 7.8-1.199 8.643-1.502 9.484-3.415 9.484-1.068 0-1.589-1.133-1.724-3.75-.255-4.964.125-13.193.739-16 .604-2.76 2.454-2.987 2.454-.3zm551.794 67.66c8.029 1.927 23.169 8.976 28.649 13.339 2.169 1.727 6.467 4.485 9.551 6.128 3.084 1.644 8.509 5.59 12.056 8.769 3.548 3.179 8.985 7.217 12.083 8.974 3.098 1.756 6.22 3.9 6.937 4.764.717.865 3.583 2.712 6.367 4.104 2.785 1.393 5.963 3.331 7.063 4.307 1.1.976 5.806 4.333 10.458 7.459 4.652 3.126 9.377 6.57 10.5 7.652 4.805 4.633 18.339 15.18 21.777 16.973 2.055 1.07 4.4 2.96 5.212 4.199.811 1.239 4.08 3.79 7.264 5.669 7.201 4.249 11.289 7.913 11.289 10.118 0 2.693 2.678 4.447 4.491 2.942 1.23-1.021 1.979-.715 4.275 1.743 1.531 1.639 4.784 4 7.228 5.247 2.444 1.247 5.92 3.445 7.725 4.885 3.38 2.697 4.383 4.755 1.842 3.78-.996-.382-1.534.276-1.75 2.139-.224 1.939-1.29 3.162-3.811 4.372-3.849 1.848-14.548 4.331-22.789 5.291-7.099.826-10.3 2.159-10.924 4.548-.778 2.972-2.024 2.423-4.204-1.849-2.616-5.128-18.372-24.455-21.832-26.781-1.513-1.017-4.384-2.597-6.381-3.513-6.34-2.906-28.98-18.638-39.87-27.703-1.925-1.603-7.377-4.954-12.116-7.446-4.738-2.493-12.388-6.986-17-9.984-4.611-2.998-9.842-6.199-11.623-7.114-1.782-.914-5.424-3.566-8.094-5.892-2.67-2.327-10.34-7.155-17.044-10.73-6.704-3.575-14.536-7.929-17.406-9.676-11.566-7.04-21.927-12.547-26.905-14.3-2.89-1.018-5.391-2.262-5.559-2.765-.353-1.06 4.044-3.255 6.544-3.267.937-.004 4.628-.912 8.203-2.018 3.575-1.105 10.724-2.424 15.888-2.93 5.163-.505 9.865-1.397 10.45-1.982 1.443-1.443 3.591-1.34 11.456.548zM163.226 50.261c0 .825-.45 1.222-1 .882-.55-.34-1-1.293-1-2.118s.45-1.222 1-.882c.55.34 1 1.293 1 2.118zm-11.776 4.183c2.623 4.441 3.045 11.244.874 14.093-3.002 3.94-4.098 1.814-4.098-7.953 0-4.918.353-8.94.784-8.94.432 0 1.529 1.26 2.44 2.8zm-76.224-.536c8.854.751 20.146 7.735 12.507 7.735-1.37 0-6.434 1.51-11.25 3.355-14.748 5.65-16.36 6.017-25.978 5.905-5.072-.058-9.679-.389-10.239-.735-.649-.4-.45-1.494.545-3.014.86-1.31 1.417-3.396 1.24-4.633-.292-2.018.547-2.519 8.188-4.88 4.683-1.449 9.408-3.173 10.5-3.83 1.093-.66 3.787-.993 5.987-.742s6.025.63 8.5.84zM164.244 56c.009.63.292 4.18.628 7.893.646 7.14-.251 8.543-2.878 4.5-2.065-3.178-3.229-12.847-1.664-13.814 1.53-.946 3.89-.089 3.914 1.421zm425.982 67.643c2.156 1.1 5.034 2 6.395 2 3.057 0 21.436 9.819 33.284 17.781 4.852 3.261 10.846 6.944 13.321 8.186 2.475 1.242 6.834 4.001 9.687 6.13 2.852 2.13 7.65 4.962 10.661 6.293 3.011 1.332 10.906 5.924 17.545 10.205l12.07 7.784-.621 3.884c-.582 3.638-.31 4.203 4.268 8.892 4.559 4.667 10.886 8.845 13.396 8.845.598 0 4.328 1.513 8.29 3.362 3.962 1.85 8.329 3.714 9.704 4.144 5.81 1.814 17.647 7.777 21.425 10.793 2.241 1.789 5.875 4.428 8.075 5.865 2.2 1.436 5.373 3.978 7.05 5.647 4.008 3.988 13.475 21.154 15.08 27.345.881 3.396 1.46 19.072 1.906 51.611.353 25.703.678 48.533.722 50.733.045 2.2-.021 13.9-.146 26-.125 12.1.458 33.025 1.296 46.5 3.119 50.16 4.085 75.146 3.819 98.829-.264 23.502-.356 24.492-2.701 29.12-1.335 2.635-3.898 6.028-5.695 7.54-2.958 2.489-3.812 2.7-9.02 2.228-6.314-.573-10.971-3.019-20.617-10.826-3.132-2.535-7.129-5.345-8.884-6.245-1.754-.899-6.479-4.505-10.5-8.012-4.02-3.508-9.785-7.977-12.81-9.932-3.025-1.955-8.726-6.627-12.67-10.384-6.725-6.406-15.52-12.745-35.041-25.256-4.516-2.895-8.758-5.922-9.427-6.729-.67-.806-4.175-3.469-7.79-5.917-11.392-7.715-21.227-15.286-32.151-24.75-5.819-5.041-15.269-12.984-21-17.651-13.417-10.925-15.728-13.389-18.586-19.819-3.057-6.877-4.399-16.278-4.883-34.196-.216-7.975-.884-17.875-1.486-22-2.035-13.955-3.013-37.312-3.917-93.5-.495-30.8-1.368-60.05-1.94-65-.572-4.95-1.095-24.21-1.162-42.799l-.122-33.8 2.83-6.497 2.831-6.498 3.543.599c2.296.388 4.586.054 6.507-.947 3.622-1.889 2.8-1.937 7.464.442zm-472.22-52.148c11.045 4.465 24.237 10.871 30.405 14.764 2.876 1.816 3.815 3.07 3.815 5.097 0 2.09.267 2.42 1.2 1.487 2.192-2.192 5.605-1.248 11.986 3.315 3.473 2.484 8.972 6.196 12.22 8.25 19.858 12.558 57.184 37.979 63.255 43.081 5.989 5.033 20.196 14.154 22.047 14.154 1.055 0 12.285 9.524 12.288 10.421.007 1.65 3.269 4.579 5.1 4.579 2.042 0 3.305 1.542 2.427 2.962-.375.607-1.597.561-3.309-.124-9.346-3.742-10.049-3.914-10.835-2.643-.889 1.439 2.102 3.588 6.724 4.833 4.076 1.097 6.725 3.561 5.305 4.934-1.769 1.708-26.156 5.47-40.908 6.31-3.376.192-4.053.6-4.337 2.615-.484 3.423 1.263 4.08 10.884 4.098 7.688.013 19.855-2.002 29.946-4.961 5.376-1.576 9.8-1.281 10.872.726 2.405 4.5 4.897 67.936 3.226 82.11-.827 7.014-2.082 8.718-7.091 9.633l-3.5.64.888-25.085c.83-23.439.77-25.215-.905-27.067-1.238-1.368-3.06-1.976-5.888-1.964-3.457.014-4.833.709-8.832 4.461-4.693 4.402-4.764 4.428-7.556 2.826-4.119-2.364-7.807-1.009-13.936 5.12-4.687 4.688-5.271 5.737-5.271 9.47 0 4.855 4.526 19.78 6.779 22.356 2.322 2.654 5.722 2.132 8.632-1.327 1.424-1.692 2.598-3.604 2.608-4.25.042-2.536 2.912-20.34 3.723-23.093l.859-2.921 2.166 3.671c2.608 4.42 5.226 4.879 5.248.92.021-3.655 1.554-6.081 2.957-4.678 1.337 1.337 2.827 26.432 1.926 32.428-.503 3.344-.319 4.705.713 5.3 2.317 1.333 1.706 4.694-.861 4.741-5.785.106-13.735.911-18.636 1.887-2.963.589-10.448 1.072-16.634 1.072-13.422 0-12.776.846-11.294-14.783 1.08-11.393.47-48.93-1.028-63.217-1.154-11.007-3.864-15.762-14.496-25.436a7995.369 7995.369 0 0 1-12.662-11.545c-2.475-2.265-6.978-5.397-10.007-6.96-6.004-3.099-16.148-10.34-22.556-16.102-2.235-2.01-6.285-4.928-9-6.484-5.94-3.407-22.564-15.494-27.437-19.95-4.291-3.925-15.542-11.699-21.837-15.089-2.564-1.381-7.588-4.32-11.163-6.532-3.575-2.211-11.503-6.415-17.619-9.34-6.115-2.927-14.322-7.412-18.237-9.968-3.916-2.556-7.8-4.908-8.632-5.228-3.169-1.216-1.376-2.442 2.687-1.836 3.103.462 5.386.095 8.75-1.41 3.97-1.775 11.65-4.896 24.051-9.772 2.325-.914 6.354-1.255 12-1.014 7.155.305 10.126 1.02 18.78 4.518zM35.52 78.256c17.287 11.067 29.126 17.956 42.206 24.56 7.7 3.887 16.266 8.754 19.035 10.817 2.77 2.062 6.819 4.711 9 5.886 4.246 2.288 16.515 10.958 28.998 20.494 4.226 3.228 9.336 6.828 11.354 8 6.025 3.497 17.113 11.737 17.113 12.718 0 .501-.362.912-.804.912-1.089 0-10.211-5.767-12.696-8.027-2.371-2.156-10.317-6.428-32-17.205-16.693-8.297-40.302-22.34-49.166-29.244-8.643-6.732-13.534-10.044-20.386-13.804-3.603-1.978-7.653-4.686-9-6.018-4.199-4.153-11.775-10.478-13.067-10.908-1.365-.455-.342-2.794 1.222-2.794.542 0 4.228 2.076 8.191 4.613zm701.706 60.366c1.315.831 1.288 1.16-.213 2.662-1.416 1.417-2.153 1.513-4.25.558-3.463-1.578-3.329-4.203.213-4.184 1.513.009 3.425.442 4.25.964zm-583-60.479c0 3.551-.999 4.205-4.418 2.893-2.244-.86-1.959-3.016.641-4.836 3.218-2.255 3.777-1.967 3.777 1.943zM22.829 80.021c.061 1.717.868 3.297 2 3.916 1.043.571 4.147 3.26 6.897 5.974 2.918 2.88 8.54 6.742 13.5 9.274 7.487 3.822 12 6.786 28.597 18.778 8.834 6.382 18.025 11.628 39.395 22.484 28.217 14.334 35.982 19.038 59.508 36.045 4.95 3.579 11.877 8.531 15.393 11.006 3.516 2.475 7.791 6.06 9.5 7.968 1.709 1.908 5.764 6.326 9.011 9.818l5.905 6.35.095 9.255c.053 5.09-.235 19.829-.639 32.754-.405 12.925-.978 35.2-1.275 49.5-.297 14.3-.786 30.5-1.088 36-1.964 35.821-5.573 143.184-5.453 162.25.105 16.642-.071 16.851-8.29 9.863-2.837-2.412-9.659-7.342-15.159-10.954-5.5-3.612-12.7-8.6-16-11.084l-14.341-10.796c-22.522-16.953-28.155-21.107-34.159-25.182-24.24-16.456-39.7-28.484-48.06-37.389a8538.302 8538.302 0 0 0-13.869-14.725c-4.164-4.409-10.476-11.384-14.027-15.5-3.55-4.115-9.22-10.408-12.598-13.983-3.378-3.575-6.82-7.85-7.65-9.5-.83-1.65-2.039-8.625-2.686-15.5-.646-6.875-1.593-17-2.104-22.5-.51-5.5-1.19-27.961-1.51-49.914-.319-21.953-.759-40.203-.978-40.556-.934-1.512-.718-131.663.222-134.03.547-1.375 1.58-7.135 2.295-12.8l1.301-10.302 3.082.301c2.63.257 3.097.723 3.185 3.18zm639.897 74.381c1.912 1.363 1.89 1.395-.5.726-1.375-.385-3.175-1.351-4-2.146-1.324-1.277-1.265-1.362.5-.727 1.1.396 2.9 1.362 4 2.147zm-384.5-62.354c0 1.255-12.817 11.595-14.372 11.595-2.906 0 3.258-9.093 8.056-11.883 2.632-1.53 6.316-1.362 6.316.288zm22.665 2.345c4.855 2.711 10.064 7.752 12.276 11.88 1.106 2.063 1.851 3.911 1.656 4.106-.195.195-2.547-.923-5.226-2.486-12.919-7.534-22.789-8.215-30.606-2.112-2.346 1.832-4.83 4.013-5.521 4.847-3.08 3.718-9.635 18.495-11.135 25.104-.924 4.072-2.255 7.46-3.031 7.718-1.091.364-1.242-.36-.716-3.423.367-2.136.955-7.411 1.308-11.722.497-6.083 1.054-8.097 2.486-8.991 1.015-.634 2.973-3.407 4.352-6.162 1.984-3.966 4.613-6.623 12.622-12.759 8.865-6.792 10.627-7.75 14.258-7.75 2.279 0 5.553.787 7.277 1.75zm22.186 2.348c1.732.604 3.149 1.63 3.149 2.277 0 1.543-2.873 5.625-3.958 5.625-.696 0-4.535-5.406-5.859-8.25-.513-1.1 3.048-.914 6.668.348zM332.924 119c2.036 5.875 2.449 9.818 3.386 32.3.96 23.039.77 31.531-.673 30.089-.27-.271-2.316-11.236-4.546-24.368-7.507-44.199-7.248-42.242-5.978-45.028 1.074-2.358 1.335-2.446 3.329-1.122 1.253.832 3.139 4.253 4.482 8.129zM8.03 133.143c-.02 11.275-.435 20.5-.92 20.5-.99 0-1.025-.725-.976-21 .042-17.774.171-20 1.157-20 .427 0 .76 9.225.74 20.5zm292.667-17.12c1.309 1.309 3.127 4.797 4.039 7.75 4.791 15.506 4.792 15.522 5.075 58.87.288 44.047 1.61 80.286 3.319 91 .966 6.054 1.343 27.402 1.093 62-.057 7.975.169 22.375.503 32 .863 24.868.873 27.393.149 38-2.216 32.481-2.953 51.516-3.228 83.304-.171 19.692-.826 42.642-1.456 51-.63 8.358-1.479 20.371-1.887 26.696-.407 6.325-1.215 12.4-1.794 13.5-.58 1.1-1.362 4.925-1.738 8.5-.376 3.575-1.327 10.325-2.112 15-.785 4.675-1.429 10.167-1.431 12.205-.002 2.037-1.163 6.762-2.581 10.5-1.418 3.737-2.918 8.405-3.334 10.372-.416 1.967-1.085 4.109-1.487 4.759-1.001 1.619.149 4.854 1.975 5.555.892.342 1.749-.127 2.116-1.158.338-.953 2.314-5.783 4.391-10.733 3.525-8.401 4.49-12.721 6.929-31 .514-3.85 1.39-8.8 1.947-11 1.394-5.5 3.041-21.962 3.041-30.388 0-3.832.458-10.262 1.017-14.29.559-4.027 1.203-25.772 1.431-48.322.436-43.119 2.006-87.883 3.438-98 .476-3.367.45-12.581-.059-21-1.679-27.74-1.118-102.918 1.067-143 1.511-27.708 2.965-59.105 3.057-66 .077-5.805 1.263-9.619 2.581-8.302 1.17 1.171 2.415 20 2.963 44.802.297 13.475 1.044 28.55 1.659 33.5.615 4.95 1.287 21.825 1.493 37.5.206 15.675.496 34.8.644 42.5.148 7.7-.33 21.425-1.063 30.5-.733 9.075-1.277 27.975-1.208 42 .109 22.473-1.16 49.671-2.518 54-.259.825-.727 9.569-1.039 19.43-.312 9.862-.843 18.375-1.179 18.919-.941 1.523-2.257 23.814-2.841 48.151-.291 12.1-.947 24.925-1.458 28.5-1.256 8.784-5.627 46.691-6.457 56-.368 4.125-1.538 10.089-2.599 13.254-1.061 3.165-1.929 6.487-1.929 7.382 0 4.007-11.915 19.879-16.599 22.113-1.857.885-3.627 1.359-3.933 1.052-.307-.307-.036-2.632.602-5.166 1.168-4.637.652-11.882-1.038-14.595-.775-1.244-1.232-1.169-3.08.5-1.194 1.078-3.788 4.394-5.764 7.369-3.061 4.608-4.664 5.903-10.825 8.75-12.433 5.744-16.142 4.824-37.479-9.296-5.289-3.499-9.859-6.363-10.156-6.363-1.365 0-28.101-16.908-30.982-19.593-1.785-1.664-5.946-5.012-9.246-7.441-13.64-10.039-23.809-19.607-30.001-28.227-6.988-9.73-6.994-9.757-7.988-33.962-.22-5.347-.901-12.322-1.514-15.5-.613-3.177-.976-10.497-.806-16.265.253-8.598.593-10.543 1.887-10.79.868-.166 5.368 2.851 10 6.705s11.199 8.616 14.592 10.582c3.394 1.966 8.916 6.024 12.272 9.018 7.03 6.273 10.842 8.473 14.68 8.473 2.839 0 6.437-2.517 6.296-4.405-.045-.602-3.176-3.795-6.957-7.095-3.782-3.3-8.545-8.362-10.585-11.25-2.039-2.888-4.094-5.25-4.565-5.25-.47 0-2.807-1.798-5.192-3.997-2.45-2.258-5.81-4.279-7.727-4.646-1.866-.357-4.067-1.257-4.892-1.998-4.761-4.279-8.052-6.359-10.066-6.359-3.026 0-5.934-2.755-5.934-5.624 0-2.627 1.544-2.406 6.318.903 3.235 2.243 18.84 8.896 19.445 8.291.222-.222 1.154.27 2.07 1.092.917.823 4.817 3.338 8.667 5.591 10.128 5.925 18.5 13.534 18.5 16.814 0 1.443.855 3.397 1.9 4.343 2.074 1.876 1.986 1.929 6.332-3.849l2.211-2.939.72 3.439c.87 4.15-.051 14.948-1.423 16.689-.542.688-2.869 1.25-5.171 1.25-5.232 0-7.873 1.801-7.414 5.056.33 2.338.701 2.457 8.585 2.734l8.24.291 1.979-3.254c1.88-3.091 1.95-4.558 1.408-29.29-.357-16.302-.148-30.337.557-37.537.62-6.325 1.389-20.725 1.708-32 .32-11.275 1-22.3 1.513-24.5 1.315-5.65 2.763-48.763 2.783-82.923.011-16.917.412-29.317.968-29.873.523-.523 6.273-1.55 12.777-2.283a1461.16 1461.16 0 0 0 22.827-2.785c6.05-.798 14.15-1.746 18-2.105l7-.654 1.876 6.089c1.282 4.158 1.654 7.268 1.175 9.811-.387 2.048-.884 19.923-1.105 39.723-.221 19.8-.854 38.963-1.407 42.584-.553 3.621-1.046 13.746-1.096 22.5-.05 8.754-.51 19.066-1.022 22.916-1.165 8.76-3.82 34.75-4.91 48.072-.453 5.539-1.388 14.377-2.076 19.64l-1.252 9.568-6.296 5.631c-3.495 3.127-9.199 6.935-12.824 8.561-6.107 2.74-7.308 2.923-18.611 2.844-6.996-.05-12.511.343-13.102.934-.561.561-.869 2.084-.685 3.385.316 2.233.753 2.372 7.835 2.494 15.114.26 16 .35 16 1.628 0 .877-1.365 1.149-4.514.898l-4.513-.359.631 8.852c.732 10.248 2.188 13.352 6.264 13.352 4.141 0 5.657-2.423 8.134-13 1.224-5.225 2.737-10.588 3.362-11.918.762-1.622 4.758-4.257 12.133-8l10.998-5.582 1.221-6c2.131-10.474 7.121-73.014 7.818-98 .215-7.7.925-19.175 1.577-25.5.874-8.467.95-22.136.288-51.828-.595-26.712-.561-40.892.101-42 1.688-2.822 3.734-17.208 3.722-26.172-.028-22.532-1.374-68.497-2.245-76.67-.537-5.044-.977-12.341-.977-16.215 0-6.021.291-7.2 2-8.115 3.385-1.811 2.336-5.129-3.527-11.155-8.642-8.883-9.953-12.689-9.935-28.845.02-16.665 1.224-30.292 2.877-32.553 1.173-1.604 6.187-3.072 11.38-3.332 1.263-.063 3.367.956 4.676 2.265zm495.638 67.085c1.281-.406 2.749.001 3.963 1.1 4.474 4.049.739 5.863-5.741 2.788-2.518-1.195-3.109-1.878-2.152-2.485.931-.59.64-.842-.988-.853-1.286-.008-2.034-.459-1.689-1.018.411-.665 1.285-.646 2.596.056 1.088.582 2.893.767 4.011.412zm-81.109 3.482c1.925 1.509 4.85 3.448 6.5 4.308 4.068 2.121 11.324 8.652 9.671 8.703-1.275.04-18.8-10.741-22.421-13.793-.962-.811-1.75-1.886-1.75-2.387 0-1.469 4.214.2 8 3.169zm-442.299-49.197c-.005 7.563.321 15.639.724 17.948.703 4.026.636 4.181-1.633 3.769-3.036-.55-13.19-6.037-14.83-8.013-.975-1.174-.995-2.087-.09-4.071l1.165-2.559 1.911 2.338c2.688 3.29 3.612 1.942 6.63-9.673 4.693-18.053 6.134-17.992 6.123.261zm429.07 53.063c.244.731-.214.954-1.187.581-.871-.335-1.584-1.047-1.584-1.584 0-1.315 2.273-.492 2.771 1.003zm10.114 4.58c1.609.892 2.002 1.559 1.206 2.051-1.059.655-6.091-1.796-6.091-2.967 0-.882 2.481-.417 4.885.916zm-393.483-46.42c.647 4.874-.261 52.124-1.017 52.944-1.405 1.521-1.786-3.315-1.592-20.197.121-10.552.427-19.869.681-20.703.253-.834.089-4.188-.365-7.453-.833-5.995-.505-9.564.879-9.564.415 0 1.051 2.238 1.414 4.973zm436.098 66.065c1.65 1.113 4.367 2.692 6.039 3.507 4.602 2.245 10.461 7.399 10.461 9.202 0 1.326-.387 1.244-2.25-.48-1.237-1.145-4.95-3.677-8.25-5.626-7.514-4.439-12.545-8.558-10.5-8.598.825-.017 2.85.881 4.5 1.995zm94.121 26.734c1.166.951 3.315 5.252 4.774 9.558 2.457 7.247 2.721 9.703 3.552 33 .494 13.844.596 25.464.226 25.823-.37.359-1.562.813-2.648 1.009-1.086.196-2.508 1.425-3.159 2.732-2.34 4.693-6.359 5.547-6.379 1.356-.026-5.384 4.131-29.851 6.09-35.845 2.536-7.76 1.614-10.997-3.401-11.938-6.879-1.29-7.815-.633-11.293 7.933-2.165 5.333-2.961 8.566-2.45 9.949 1.068 2.885 2.612 3.106 5.005.714 1.134-1.135 2.228-2.063 2.431-2.063.203 0 .644 1.688.981 3.75.625 3.834-1.417 17.395-4.103 27.25-.824 3.025-1.594 7.863-1.711 10.75-.263 6.504 1.323 6.881 7.441 1.769 4.531-3.785 11.636-6.306 13.244-4.698 1.853 1.853.251 4.418-3.721 5.958-2.2.852-5.276 2.434-6.836 3.515-6.028 4.176-12.492 6.79-20.664 8.356-11.904 2.282-11.305 2-10.562 4.96.875 3.486-1.082 9.064-3.392 9.668-1.487.389-1.826 1.321-1.659 4.57.116 2.246.484 4.356.818 4.691.335.334 3.056-.55 6.048-1.966 2.992-1.415 6.072-2.579 6.843-2.586.772-.007 6.777-1.357 13.343-3 6.567-1.643 13.859-2.987 16.205-2.987 4.041 0 4.292.171 4.777 3.25.281 1.788.765 12.7 1.075 24.25.31 11.55.97 26.85 1.467 34 2.186 31.472 3.976 52.8 5.046 60.114 1.777 12.15 2.258 69.213.661 78.386l-1.306 7.5-3.182-.325c-3.109-.318-3.182-.232-3.182 3.75v4.075h-4.411c-2.778 0-7.315 1.241-12.25 3.35-8.562 3.66-18.136 7.067-22.839 8.128-1.65.372-4.35 1.286-6 2.032-1.65.746-6.814 2.536-11.475 3.978-8.797 2.721-9.984 3.569-10.01 7.145-.026 3.655 8.121 4.727 10.227 1.345 1.41-2.265 12.519-6.839 23.796-9.796 4.104-1.077 10.352-3.133 13.884-4.57 3.533-1.436 7.358-2.622 8.5-2.634 1.143-.012 3.971-.881 6.284-1.931 3.437-1.561 4.883-1.723 7.903-.889 5.765 1.591 12.061 8.317 16.753 17.894 3.906 7.974 4.346 8.481 7.845 9.034 2.039.322 4.242.255 4.896-.149 1.783-1.103.336-3.736-2.258-4.109-2.298-.331-5.838-5.168-4.651-6.355.352-.352 2.77.302 5.374 1.454 4.583 2.027 12.862 8.584 22.682 17.962 5.082 4.852 6.478 7.616 2.115 4.184-1.449-1.14-3.474-2.073-4.5-2.073-2.741 0-2.272 2.895.649 4.005 2.834 1.078 8.808 5.091 9.326 6.266.188.424 1.65 1.448 3.25 2.276 6.202 3.207 2.909 5.416-8.105 5.439-4.389.01-7.652.617-10 1.861-1.917 1.016-5.735 2.127-8.485 2.468-13.782 1.709-24.725 3.782-26.747 5.066-1.239.787-4.953 1.956-8.253 2.597-3.3.642-7.575 1.564-9.5 2.05-7.635 1.924-41.877 6.974-47.511 7.007-3.294.019-8.914.679-12.489 1.465-9.817 2.159-9.363 2.412-8.542-4.75.394-3.437 1.359-16.825 2.144-29.75.785-12.925 1.533-25.025 1.663-26.888.249-3.592.902-4.144 7.235-6.11 10.405-3.229 12.837-9.722 15.55-41.502.858-10.055.463-37.554-.697-48.5-.263-2.475-.605-30.192-.76-61.594-.155-31.402-.606-57.618-1.001-58.257-.395-.64-.898-19.059-1.116-40.932-.371-37.152-.569-40.787-2.998-55.243-1.43-8.511-3.19-17.274-3.911-19.474-.72-2.2-1.613-5.687-1.984-7.75l-.674-3.75h6.482c4.804 0 8.498-.777 14.272-3 4.285-1.65 8.477-3.025 9.314-3.056.838-.031 3.098-.653 5.023-1.381 5.209-1.971 13.074-1.866 15.621.209zm-62.02 5.993c1.813 1.211 6.037 8.521 6.781 11.735 5.593 24.178 7.462 39.918 7.654 64.463.093 11.845.619 30.987 1.169 42.537s1.108 41.966 1.241 67.592c.132 25.625.576 47.135.986 47.798 1.106 1.79.806 58.713-.343 65.11-4.21 23.435-4.898 26.169-7.216 28.652-4.468 4.788-14.873 8.462-14.873 5.252 0-.603 2.567-4.021 5.706-7.595l5.705-6.499.643-21.619c.354-11.891.27-28.386-.185-36.655-.455-8.27-1.283-23.811-1.84-34.536-.557-10.725-1.512-26.925-2.123-36-.612-9.075-1.263-36.975-1.447-62-.886-120.412-.772-115.896-3.114-122.75-2.052-6.008-1.718-7.47 1.256-5.485zm-572.644-47.093c2.235 2.842 2.593 4.328 1.043 4.328-1.883 0-8.976-8.138-8.993-10.318-.01-1.221 5.606 3.01 7.95 5.99zm103.697 5.332c-.482 4.401-1.727 4.997-1.418.678.145-2.023.598-3.679 1.006-3.68.407-.001.593 1.35.412 3.002zm502.971 68.246c-4.241 6.718-4.882 44.777-.883 52.487 2.327 4.487 4.37 5.133 7.07 2.235 3.333-3.578 4.524-13.254 3.727-30.285-.751-16.056-2.493-24.057-5.599-25.719-2.492-1.334-2.703-1.271-4.315 1.282zm-601.69-59c2.425 6.111 3.301 20.671 2.598 43.158-.396 12.698-.907 23.387-1.133 23.754-.227.367-.612 23.094-.856 50.503-.55 61.931-1.233 82.798-3.169 96.835-.835 6.05-1.432 16.4-1.327 23 .104 6.6-.554 19.405-1.464 28.456-.909 9.05-1.667 22.438-1.684 29.75-.029 12.67-.988 16.561-2.598 10.544-.404-1.513-.65-7.7-.545-13.75.104-6.05.385-26.525.624-45.5.479-38.05 1.411-76.608 2.188-90.5.277-4.95.925-23.175 1.44-40.5.514-17.325 1.172-37.8 1.462-45.5 1.149-30.586 1.464-42.634 1.496-57.25.032-14.856.836-18.376 2.968-13zm606.763 88.796c.319 5.648.051 7.939-1.107 9.454l-1.527 2-.1-2c-.054-1.1-.315-3.575-.579-5.5-.651-4.749.504-12.204 1.823-11.764.588.196 1.258 3.71 1.49 7.81zM250.21 259.757c-.631 4.611-1.372 8.608-1.647 8.883-1.262 1.261-3.337-3.856-3.337-8.229 0-3.423.645-5.721 2.193-7.815 3.268-4.42 4.089-2.314 2.791 7.161zm607.829 80.594c.378 2.649-3.835 5.042-14.313 8.131-5.42 1.597-20.761 5.155-22.25 5.16-.138.001-.25-.688-.25-1.53 0-.843.787-1.791 1.75-2.107.963-.317 3.101-1.171 4.752-1.898l8-3.524c7.18-3.164 18.743-6.913 20.498-6.647.825.125 1.641 1.212 1.813 2.415zm-591.755-42.958c.031.413.232 2.401.445 4.419l.387 3.669-7.195 1.067c-3.957.587-10.241 1.523-13.964 2.081-9.113 1.365-18.065 1.28-19.531-.186-1.325-1.325-1.676-10.8-.4-10.8.44 0 1.364.563 2.054 1.25 1.756 1.75 21.836 1.39 30.146-.54 8.093-1.879 7.988-1.867 8.058-.96zM26.74 385.665c.347.562 3.186 2.9 6.31 5.195 8.346 6.135 14.924 12.595 18.888 18.55 1.928 2.897 8.181 9.995 13.897 15.773 10.745 10.863 13.555 15.112 6.145 9.294-7.654-6.01-12.809-11.256-15.78-16.058-1.609-2.599-4.508-5.749-6.445-7-1.936-1.252-3.778-3.066-4.094-4.031-1.049-3.213-5.583-7.745-7.774-7.77-2.278-.027-15.66-11.861-15.66-13.848 0-1.407 3.656-1.492 4.513-.105zm13.943 33.228c6.043 6.25 11.116 14.69 10.228 17.016-.62 1.623-13.766-11.859-16.764-17.192-1.259-2.241-2.683-4.074-3.164-4.074-.48 0-.597-.45-.257-1 1.361-2.203 4.197-.708 9.957 5.25zm31.543 20.75c0 .55-.423 1-.94 1-.519 0-1.22-.45-1.56-1-.34-.55.084-1 .941-1s1.56.45 1.56 1zm24.77 6.459c2.051 1.353 6.655 4.514 10.23 7.026 3.575 2.512 10.775 7.434 16 10.939 5.225 3.504 12.051 8.555 15.169 11.224 3.118 2.669 8.945 7.327 12.95 10.352 4.005 3.025 8.88 6.959 10.832 8.743l3.549 3.242-3.5-1.13c-1.925-.622-4.85-2.106-6.5-3.298-1.65-1.192-5.194-3.432-7.875-4.977-2.681-1.546-6.506-4.26-8.5-6.032-5.146-4.573-14.678-10.82-21.214-13.904-4.124-1.946-8.378-5.521-16.229-13.64-10.663-11.029-11.874-13.135-4.912-8.545zm-15.538 11.554c2.053 2.085 5.653 4.725 8 5.865 4.326 2.103 22.473 18.75 21.5 19.724-.663.662-11.476-5.377-12.487-6.975-.41-.646-2.095-2.031-3.745-3.078-1.65-1.047-6.443-4.861-10.652-8.476-4.209-3.615-8.82-7.382-10.25-8.37-3.545-2.451-3.264-3.773.652-3.068 1.906.344 4.794 2.154 6.982 4.378zm604.818 63.524c1.892 1.395 7.084 6.064 11.538 10.374 4.454 4.311 9.406 8.663 11.005 9.672 2.649 1.672 13.206 9.501 16.07 11.917.652.55 3.485 2.8 6.297 5 11.754 9.198 20.583 16.84 21.22 18.368 1.456 3.495.779 13.626-1.202 17.991-1.088 2.398-1.978 6.298-1.978 8.667 0 2.37-.9 6.408-2 8.974s-2 5.979-2 7.583-.421 2.917-.935 2.917c-2.138 0-6.731-2.285-9.065-4.511-1.375-1.31-4.176-3.083-6.224-3.938-4.255-1.778-17.88-11.843-22.122-16.343-2.653-2.813-2.823-3.485-2.5-9.863l.346-6.845-7.5-.565c-7.248-.545-14.645-2.949-16.303-5.297-.442-.626-.523-5.362-.18-10.524.471-7.093 1.108-10.04 2.607-12.068 1.159-1.568 2.229-5.065 2.575-8.419.537-5.199.4-5.788-1.453-6.273-1.214-.317-2.249-1.616-2.546-3.194-2.881-15.294-2.899-16.16-.335-16.16.685 0 2.794 1.142 4.685 2.537zm-552.467-36.121c3.019 2.632 3.648 3.692 2.745 4.622-.909.936-2.081.451-5.232-2.166-4.077-3.386-5.247-5.872-2.763-5.872.734 0 3.096 1.537 5.25 3.416zm127.778-.914c-1.121 2.921.532 6.498 3.003 6.498 4.287 0 7.596-6.034 4.054-7.393-2.853-1.095-6.47-.636-7.057.895zm-15.111.529c-1.614.649-2.25 1.731-2.25 3.83 0 3.618 2.419 4.75 5.641 2.639 2.562-1.679 3.062-4.397 1.159-6.3-1.379-1.379-1.525-1.385-4.55-.169zm-13.012 6.131c-2.998 2.998.048 6.817 4.175 5.233 2.443-.938 1.715-5.805-.925-6.183-1.106-.159-2.569.269-3.25.95zm9.932 10.686c-.752.491-1.187 2.126-1 3.761.303 2.651.662 2.891 4.33 2.891 3.905 0 4-.083 4-3.5 0-3.164-.288-3.525-3-3.761-1.65-.143-3.599.131-4.33.609zm-112.814 3.86c1.234 1.559 2.393 4.848 2.73 7.75.323 2.773 1.088 7.067 1.701 9.542 1.175 4.741 3.575 25.739 3.429 30-.312 9.139-.055 17.848.705 23.9.784 6.245 1.494 7.885 6.473 14.95 6.169 8.753 24.118 25.487 32.43 30.235 2.746 1.568 7.621 5.258 10.834 8.201 3.213 2.943 8.767 7.103 12.342 9.245 7.479 4.48 12.443 7.643 15.986 10.185 1.367.981 5.417 3.209 9 4.951 6.973 3.391 12.903 7.761 11.902 8.772-1.585 1.601-32.98-12.179-42.888-18.825-6.356-4.264-8.11-5.537-21.229-15.405-5.331-4.01-10.7-8.704-11.93-10.432-1.23-1.728-4.41-5.477-7.067-8.331-4.768-5.124-7.201-8.181-15.871-19.946-7.725-10.482-7.836-10.765-9.341-23.724-1.577-13.583-3.206-63.776-2.069-63.776.396 0 1.684 1.219 2.863 2.708zm130.867.849c-1.266.886-2.223 2.608-2.223 4 0 2.104.464 2.443 3.345 2.443 2.075 0 4.032-.759 5.155-2 1.747-1.93 1.747-2.07 0-4-2.179-2.408-3.355-2.491-6.277-.443zm-29.754 5.943c-.258.825-.663 2.131-.9 2.903-.238.771.163 2.216.89 3.21 1.12 1.532 1.716 1.628 3.904.631 2.6-1.184 4.384-5.226 3.172-7.187-1.007-1.63-6.527-1.284-7.066.443zm535.655 68.224c1.596 1.596 2.293 8.276.864 8.276-.646 0-1.403-.872-1.682-1.937-.278-1.066-1.811-2.392-3.406-2.948-2.564-.894-3.745-2.937-2.448-4.233.836-.837 5.593-.237 6.672.842zm-504.874-60.013c-1.879.685-1.596 8.757.365 10.384 1.384 1.149 1.883 1.008 3.5-.988 1.037-1.281 1.885-3.1 1.885-4.043 0-2.161-4.083-5.962-5.75-5.353zm-15.084 3.886c-3.448 2.414-2.545 5.819 1.649 6.221 3.748.36 6.185-1.179 6.185-3.905 0-1.688-2.679-3.913-4.712-3.913-.464 0-1.869.718-3.122 1.597zm-95.166 3.403c0 5.161 5.689 8.911 8.8 5.8 2.276-2.276 1.281-4.718-2.76-6.78-5.268-2.687-6.04-2.562-6.04.98zm79.25-1.356c-1.65.69-1.54 4.39.2 6.685 1.141 1.506 1.764 1.627 3.526.684 2.896-1.55 2.533-7.417-.476-7.703-1.1-.104-2.562.046-3.25.334zm412.211 66.341c1.424.542 2.834 1.779 3.131 2.75.298.971 1.637 4.06 2.975 6.865 1.338 2.805 2.433 5.392 2.433 5.75 0 1.975-3.319-.137-9.884-6.29-5.075-4.756-7.195-7.411-6.781-8.49.684-1.782 4.294-2.042 8.126-.585zm26.539 2.515c0 2.986-.338 3.5-2.3 3.5-2.733 0-4.7-1.731-4.7-4.137 0-1.21.986-1.859 3.25-2.14 1.788-.221 3.362-.475 3.5-.563.138-.088.25 1.415.25 3.34zm19.285 5.153c25.755 14.587 41.605 25.077 49.715 32.902 13.015 12.559 13 12.538 13 18.051 0 6.261-1.763 8.304-5.83 6.755-7.288-2.775-37.523-23.465-45.574-31.186-3.353-3.215-7.896-6.994-10.096-8.397-7.629-4.866-9.371-7.545-10.116-15.554-.369-3.973-.366-7.224.007-7.224s4.375 2.094 8.894 4.653zm91.662 3.097c1.262 4.542 1.401 19.25.182 19.25-.479 0-1.164-2.596-1.523-5.768-.359-3.173-1.302-7.019-2.095-8.548-1.648-3.177-.971-8.684 1.067-8.684.73 0 1.797 1.688 2.369 3.75zm-106.343-.021c-1.016 1.017-1.855-.514-1.021-1.863.63-1.02.866-1.02 1.204-.004.232.695.149 1.535-.183 1.867zm-11.022 1.891c4.646 3.807 5.465 5.764 2.836 6.773-2.486.954-3.068.772-6.341-1.982-2.138-1.799-3.077-3.477-3.077-5.5 0-3.805 1.235-3.672 6.582.709zm106.793-2.822c.7 1.132-.386 2.457-4.202 5.123-3.697 2.583-5.567 1.845-5.008-1.976.246-1.681 1.125-2.391 3.317-2.681 1.64-.217 3.178-.59 3.417-.829.689-.69 1.939-.507 2.476.363zm-672.633-59.92c-.533 2.037.813 19.057 1.828 23.122.343 1.375.729 6.807.857 12.071.229 9.398.782 11.929 2.607 11.929.55 0 .557-.944.019-2.36-.493-1.298-1.119-8.029-1.39-14.958-.271-6.929-.783-13.067-1.137-13.64-1.569-2.539 2.558-.733 4.474 1.958 2.094 2.941 5 4.056 5 1.918 0-.595-1.482-3.632-3.293-6.75-1.812-3.117-4.099-7.806-5.083-10.418-1.903-5.052-3.083-5.925-3.882-2.872zm576.347 70.99c1.497 1.395 2.157 3.676 2.603 9 .36 4.295.217 7.132-.36 7.132-.527 0-2.203-1.3-3.725-2.888-3.151-3.289-4.465-9.64-2.684-12.968 1.398-2.613 1.64-2.629 4.166-.276zm95.911 2.421c0 2.358.898 6.05 1.996 8.203 2.414 4.736 1.351 6.567-2.588 4.459-2.804-1.501-3.728-3.258-4.8-9.132-.555-3.035-.283-4.044 1.548-5.75 3.196-2.977 3.844-2.603 3.844 2.22zm-16.5 6.794c0 3.96-.374 5.417-1.391 5.417-2.556 0-3.376-2.794-2.153-7.335 1.6-5.945 3.544-4.893 3.544 1.918zm-61 5.381c3.3 2.825 7.68 6.653 9.732 8.505 2.053 1.852 5.251 4.305 7.106 5.449 6.305 3.891 17.149 11.515 20.662 14.527l3.5 3.001-6.095.027c-4.99.022-6.44-.361-8-2.114-1.048-1.178-5.505-3.808-9.905-5.846-4.4-2.037-9.35-4.809-11-6.159-1.65-1.35-5.328-3.919-8.173-5.709-6.891-4.335-7.424-5.118-8.247-12.098l-.706-5.991 2.563.635c1.41.349 5.263 2.947 8.563 5.773zm-442.49-62.008c-.459 2.037-1.099 3.967-1.423 4.29-1.1 1.1-.934-9.352.178-11.167 1.131-1.845 2.057 3.275 1.245 6.877zm404.126 59.28c3.97 1.756 4.693 2.542 5.296 5.751.383 2.045.43 3.984.105 4.31-1.664 1.664-18.537-9.287-18.537-12.031 0-1.547 7.843-.371 13.136 1.97zm22.468 13.373c3.407 3.555 2.766 4.337-2.412 2.943-4.167-1.122-10.192-6.826-10.192-9.649 0-2.015 8.666 2.595 12.604 6.706zm239.179 3.725c.299.907-.292 1.227-1.843 1-1.256-.184-2.481-.934-2.723-1.668-.299-.907.292-1.227 1.843-1 1.256.184 2.481.934 2.723 1.668zm-143.033.717c1.672.517 1.642 9.531-.04 11.831-.942 1.289-2.356 1.677-5.25 1.441l-3.96-.323-.292-7.16-.292-7.161 4.292.493c2.361.271 4.855.666 5.542.879zm130.632 1.372c1.715 1.058 5.76 2.911 8.989 4.118 4.946 1.848 6.995 2.085 13 1.503 8.126-.787 8.016.488-.197 2.288-8.981 1.969-24.832 1.551-55.981-1.475-7.748-.752-6.009-2.554 3.876-4.013 4.637-.685 11.356-1.898 14.931-2.694 8.982-2.002 11.773-1.953 15.382.273zm-208.783 8.699c3.796 1.992 8.251 4.641 9.901 5.886 11.862 8.956 8.813 8.676-5.943-.544-2.169-1.355-5.989-3.139-8.491-3.964-2.759-.91-4.678-2.188-4.88-3.25-.495-2.606 1.721-2.166 9.413 1.872zm-33.509 3.249c-1.175.787-1.197 1.457-.133 4.026 1.041 2.513 1.702 2.976 3.578 2.505 2.748-.69 3.895 1.059 4.979 7.595.875 5.277 6.371 11.496 11.053 12.506 2.437.525 11.196 3.362 16.183 5.24.797.3 1.25-.457 1.25-2.089 0-2.081-.861-2.941-4.602-4.596-2.531-1.12-6.349-2.506-8.484-3.081-6.277-1.69-8.877-4.639-9.603-10.889-.443-3.818-1.391-6.257-3.219-8.284-2.757-3.056-8.522-4.593-11.002-2.933zm-523.364-57.158c2.626 3.692 7.291 9.204 10.367 12.25 3.076 3.045 7.177 8.012 9.114 11.037 1.937 3.025 4.707 6.591 6.157 7.924 2.663 2.449 3.795 5.283 1.275 3.191-.749-.621-4.99-2.903-9.425-5.07-10.336-5.051-17.87-10.479-19.845-14.299-.857-1.657-1.92-5.541-2.362-8.63-.442-3.089-1.124-7.303-1.516-9.366-1.064-5.591.773-4.718 6.235 2.963zm594.574 66.904c1.76.889 4.1 2.409 5.2 3.376 1.1.968 3.626 2.049 5.613 2.403 5.144.916 6.725 3.145 6.997 9.861.128 3.154-.016 5.982-.319 6.286-.915.914-13.688-6.565-17.104-10.015-5.366-5.421-10.641-12.241-9.98-12.902 1.17-1.17 6.38-.632 9.593.991zm41.515 5.383c.271 4.738-1.903 21.949-3.442 27.25-.746 2.571-1.969 2.14-3.344-1.179-.827-1.997-.987-5.335-.505-10.487.625-6.666.502-7.637-1.04-8.229-.962-.369-2.565-.161-3.563.462-2.737 1.709-5.921-2.806-5.921-8.394v-4.308l4.25-.405c2.338-.223 6.275-.361 8.75-.307l4.5.097.315 5.5zm-43.125 12.088c12.853 7.977 16.11 11.113 16.11 15.511 0 2.146-.486 3.401-1.317 3.401-.724 0-1.466-.337-1.65-.75-.183-.413-3.483-3.425-7.333-6.695-10.596-8.999-17.467-15.8-16.895-16.725.745-1.205.427-1.356 11.085 5.258zm28.278 7.235c.026 3.11-.295 3.762-1.718 3.492-1.836-.348-2.98-6.471-1.789-9.574 1.002-2.612 3.47 1.668 3.507 6.082zm21.559 6.011c.728 4.855.315 12.613-1.596 29.943-1.221 11.068-1.442 11.813-3.673 12.373-3.748.941-12.824-2.162-18.521-6.332l-5.216-3.818 3.489-.306c4.274-.375 5.99-2.441 5.99-7.215v-3.638l6.75.08c6.635.078 6.745.036 6.434-2.421-.173-1.375.205-4.975.84-8 .636-3.025 1.61-7.638 2.166-10.25.555-2.612 1.387-4.75 1.848-4.75.462 0 1.132 1.95 1.489 4.334zm-43.809 6.574c6.354 6.44 8.424 10.35 6.498 12.276-1.144 1.144-.941 1.352-12.121-12.431-3.902-4.811-7.095-8.999-7.095-9.307 0-1.515 7.095 3.763 12.718 9.462zm-550.832-53.545c.916 1.103.653 1.272-1.377.883-1.38-.263-2.509-.877-2.509-1.363 0-1.366 2.623-1.043 3.886.48zm18.665 6.31c6.022 3.395 13.536 6.914 16.699 7.821 3.163.906 5.75 2.018 5.75 2.47 0 3.867-15.786-.016-25.824-6.353-4.006-2.529-9.176-8.034-9.176-9.771 0-1.28-.378-1.456 12.551 5.833zm83.791-3.923c.757 1.233-2.394 9.591-4.462 11.836-2.127 2.31-10.883 4.758-12.249 3.424-.484-.472.889-1.745 3.095-2.87 4.292-2.19 9.702-7.761 10.753-11.074.661-2.082 2.012-2.703 2.863-1.316zm5.475 21.855c-4.749 6.613-10.137 11.158-17.172 14.486-7.085 3.352-8.266 3.455-15.677 1.371a1156.49 1156.49 0 0 0-12.914-3.517c-4.095-1.089-11.295-3.716-16-5.837-4.705-2.122-9.454-4.195-10.554-4.606-1.8-.674-1.7-.845 1-1.716 3.33-1.073 33.063-1.241 44-.248 6.699.608 21.404-1.34 26.905-3.564 3.723-1.506 3.775-1.051.412 3.631z" clip-rule="evenodd"/></svg>