<svg xmlns="http://www.w3.org/2000/svg" width="825" height="1442" fill="none"><path fill="#000000" fill-rule="evenodd" d="M705.453 907.023c-1.966 1.786-2.283 2.559-2.397 5.849-.068 1.994-.821 1.076-1.593-1.943-.619-2.422-.722-2.507-2.96-2.431-1.356.045-2.61.476-3.021 1.038-.396.542-.874 4.43-1.096 8.927-.456 9.255-1.372 18.574-2.287 23.276-1.319 6.781-2.339 24.507-2.901 50.429-1.058 48.802-1.192 53.092-1.824 58.232-.345 2.81-.699 7.54-.787 10.51-.159 5.38-1.604 18.7-2.747 25.33-.867 5.03-1.33 15.88-1.135 26.6.306 16.82-.105 38.62-.836 44.3-.502 3.9-.54 6.65-.126 9.15.325 1.96.402 5.67.17 8.23-.587 6.49-1.168 18.97-1.461 31.37-.136 5.78-.398 12.2-.582 14.26-.365 4.09.939 10.52 2.484 12.24.638.71 2.494 1.1 6.711 1.42 8.382.63 27.045.46 30.315-.27 4.346-.97 4.66-.65 4.66 4.83 0 5.37 1.021 7.14 4.102 7.14 2.917 0 4.128-2.02 4.617-7.7.408-4.76.493-4.99 1.714-4.61 3.486 1.09 3.858 1.02 6.256-1.14 3.463-3.13 4.721-6.62 5.164-14.33.205-3.56.642-7.61.973-9 .33-1.4.852-7.37 1.161-13.27.309-5.9.796-10.97 1.081-11.25.886-.89 17.721-1.7 19.102-.92 1.76.99 36.196.92 37.963-.07 2.292-1.29 3.202-2.58 3.205-4.54.001-1.05.62-3.12 1.375-4.61 1.311-2.58 1.348-3.01.799-9.6-.88-10.6-.745-19.35.43-27.92.588-4.29 1.31-13.34 1.604-20.11.295-6.77.813-15.41 1.151-19.21.339-3.8.766-10.28.949-14.41.183-4.13.583-9.4.89-11.71.306-2.31.845-10.01 1.198-17.11.966-19.45 2.486-49.13 2.689-52.53.098-1.648.482-8.402.851-15.005.369-6.604.937-15.249 1.262-19.212 1.445-17.627 2.45-39.322 1.821-39.322-.197 0-1.081.338-1.963.75-1.507.706-1.601.99-1.568 4.742.019 2.195-.26 4.541-.62 5.213-.854 1.595-.831 3.438.061 4.865.557.89.543 2.191-.065 5.845-.43 2.585-1.009 9.833-1.286 16.106a3552.99 3552.99 0 0 1-1.098 22.814c-.709 13.634-1.217 23.774-1.575 31.514a522.91 522.91 0 0 1-.582 10.21c-.173 2.48-.45 6.93-.614 9.91-.163 2.97-.855 14.18-1.537 24.91-.682 10.73-1.361 22.08-1.509 25.21-.148 3.14-.671 8.95-1.162 12.91-.491 3.96-1.188 12.2-1.548 18.31-.627 10.63-1.166 15.04-3.234 26.46-.788 4.35-.824 6.27-.234 12.31 1.02 10.44.968 11.96-.474 13.89-.972 1.3-1.974 1.79-4.492 2.18-3.165.49-17.955.24-30.584-.52-7.132-.43-11.824-.4-13.371.07-.93.29-1.051-.15-1.048-3.77.003-2.25.434-6.66.958-9.79.524-3.14.906-6.38.848-7.21-.057-.82-.042-4.2.033-7.5.251-10.9.212-13.74-.289-21.32-.385-5.81-.26-9.66.556-17.1.735-6.71.955-12.05.729-17.72-.355-8.9.31-36.75 1.328-55.53.723-13.37 2.095-26.79 3.342-32.72.452-2.14 1.117-8.221 1.478-13.504.361-5.283.924-12.847 1.25-16.809.326-3.963.865-12.067 1.197-18.011.332-5.943.842-12.292 1.135-14.108.292-1.816.871-5.733 1.287-8.705.416-2.972 1.119-6.132 1.563-7.024.444-.892.807-2.429.807-3.417 0-.987.281-1.969.624-2.18 1.078-.666 28.075-.407 29.362.281.652.348 1.73.633 2.396.633.667 0 2.609.299 4.316.665 3.026.649 3.076.693 1.982 1.782-.616.614-2.202 1.49-3.524 1.947-3.509 1.21-4.639 3.501-4.732 9.597-.06 3.898.157 5.263 1.045 6.571 1.012 1.491 1.468 1.651 4.697 1.651 6.813 0 9.868-3.153 10.739-11.086.34-3.089.245-4.739-.354-6.171-.789-1.888-.768-1.954.619-1.954.79 0 1.603.269 1.807.598.232.377 1.025.26 2.138-.315 1.463-.756 1.769-1.29 1.769-3.084 0-3.084-3.278-5.28-9.315-6.241-1.652-.263-5.438-.933-8.413-1.487-4.037-.754-9.829-1.065-22.836-1.227-9.586-.12-21.89-.369-27.344-.552-13.361-.451-20.509-.447-25.541.015-3.597.33-4.903.155-9.014-1.206-2.644-.876-6.746-1.747-9.116-1.935-3.528-.279-4.361-.544-4.601-1.458-.399-1.525-.965-1.393-3.367.787zm53.437 16.555c-.006 5.687-.6 10.957-1.233 10.957-.258 0-.657-.879-.887-1.952-.23-1.072-1.367-3.659-2.528-5.748-2.081-3.742-3.45-4.808-8.268-6.433l-1.201-.405 1.201-.493c.661-.272 3.839-.513 7.062-.536l5.859-.042-.005 4.652zm-45.668.155c0 .332-.669 1.185-1.487 1.895-.818.711-1.778 2.173-2.134 3.25-.69 2.088-2.388 4-2.388 2.689 0-1.096 1.156-3.083 3.425-5.887 2.134-2.639 2.584-2.978 2.584-1.947zm98.218 8.938c.183.296-.198 1.174-.846 1.951l-1.179 1.413-.02-1.55c-.027-2.102 1.196-3.186 2.045-1.814zm-74.564 6.448c2.423.332 2.788.568 2.788 1.801 0 .991-.342 1.419-1.135 1.419-.624 0-1.713.473-2.419 1.051-1.114.911-1.23 1.436-.878 3.963.401 2.876 2.02 5.192 3.63 5.192.426 0 1.334-1.013 2.019-2.251l1.246-2.252-.326 3.804c-.179 2.091-.479 4.05-.666 4.352-.187.302-1.218.549-2.293.549-3.132 0-4.303 1.247-4.181 4.455.057 1.512-.078 2.748-.301 2.747-.223-.001-1.29-.541-2.372-1.201-2.004-1.22-6.146-1.652-6.146-.64 0 .306-.358.915-.795 1.352-.993.992-7.017.712-7.017-.326 0-.385.541-2.179 1.202-3.985 1.726-4.718 1.592-6.438-.597-7.683-2.304-1.309-2.378-3.487-.231-6.729 1.76-2.656 2.631-2.626 2.631.091 0 1.478.345 1.948 1.845 2.513 2.041.77 2.048 1.044.173 5.921-.596 1.55-.916 2.986-.711 3.19.992.992 4.142.369 6.011-1.188 3.108-2.589 3.757-4.179 2.629-6.438-.513-1.027-.933-2.387-.933-3.02 0-.634-.689-2.326-1.531-3.761-1.409-2.403-1.445-2.631-.45-2.889 1.691-.438 5.753-.456 8.808-.037zM697.802 960.8c-.509 3.879-.805 3.971-.805.25 0-1.706.265-3.102.589-3.102.355 0 .441 1.134.216 2.852zm59.288 7.906c-.389 3.77-.952 7.502-1.253 8.293-.301.792-.548 2.199-.548 3.128 0 .928-.337 1.952-.751 2.274-.413.323-5.075.637-10.36.699-6.535.076-9.995.355-10.817.872-1.878 1.18-5.602 1.145-10.454-.1-4.576-1.173-4.935-1.935-.881-1.867 2.314.038 6.02-.577 10.939-1.818 1.976-.499 3.116-.479 4.665.08 1.873.677 2.129.627 2.977-.583.51-.729 1.56-1.324 2.332-1.324 2.52 0 7.159-4.897 10.187-10.754 1.52-2.94 2.764-5.623 2.764-5.962 0-.339.326-1.377.724-2.306l.723-1.69.229 2.101c.126 1.156-.088 5.187-.476 8.957zm-48.77-.693c1.05 1.147 1.32 1.974 1.064 3.253-.276 1.381.064 2.165 1.748 4.027 2.163 2.393 2.632 4.535 1.468 6.709-.787 1.47-2.578 1.454-5.903-.053-1.441-.653-3.155-1.188-3.808-1.188-1.113 0-1.163-.292-.811-4.652.208-2.559.524-5.925.705-7.479.325-2.794.351-2.822 2.229-2.49 1.045.185 2.534 1.028 3.308 1.873zm6.225 24.043c2.961.233 5.567.751 6.01 1.192 1.134 1.134.971 29.692-.21 37.002-1.054 6.52-.589 6.3-12.71 6.15l-8.535-.11.142-10.5c.134-9.85 1.325-31.375 1.867-33.73.158-.686 2.653-1.005 5.503-.703 1.487.157 5.057.471 7.933.699zm43.953 2.954c-.139 1.573-.527 4.96-.864 7.52-.336 2.57-.613 6.08-.617 7.81-.003 1.73-.392 5.57-.864 8.54-.473 2.97-.86 8.02-.861 11.22-.003 6.86-.619 7.97-4.14 7.45-1.195-.17-2.274-.32-2.398-.33-.124-.02-.059-.86.145-1.88.59-2.94-.396-4.14-3.075-3.73-3.017.46-3.756 1.16-3.756 3.51 0 2.34-.982 2.67-5.709 1.92-1.652-.27-4.435-.32-6.182-.12-3.092.36-3.17.33-2.866-1.03.753-3.36 1.536-18.52 1.536-29.72v-12.178l1.653-.348a58.756 58.756 0 0 0 2.854-.679c1.22-.336 24.324-1.222 25.018-.959.207.078.264 1.43.126 3.004zm-290.465 50.4c-.827.06-7.182.53-14.123 1.06-20.341 1.53-32.199 2.19-36.057 2.01-1.983-.1-6.986-.05-11.118.11-9.23.35-19.15.31-39.014-.16-16.147-.38-16.417-.35-19.429 2.46-1.639 1.52-1.652 1.6-1.655 9.38-.001 4.31-.53 11.89-1.176 16.85-.646 4.95-1.343 11.3-1.549 14.1-.488 6.63-.725 7.34-1.802 5.41-1.066-1.91-1.07-7.02-.01-11.96.921-4.29.608-9.9-.657-11.74-1.145-1.67-1.092-1.81 1.591-4.29 2.882-2.66 3.174-4.92.929-7.16-2.774-2.77-5.729-1.19-5.746 3.08-.004 1.29-.418 3.53-.919 4.96-1.055 3.03-2.046 16.62-2.064 28.31-.012 7.6.529 11.83 2.366 18.55.447 1.64.566 3.99.314 6.17-.325 2.79-.2 3.84.608 5.07.715 1.09.902 2.16.63 3.61-.319 1.7-.714 2.13-2.227 2.43-1.316.26-2.059.9-2.614 2.23-.987 2.37-1.609 21.94-.879 27.69.356 2.81.253 7.85-.312 15.3-.464 6.1-.99 14.03-1.168 17.6-.292 5.83-.543 6.96-2.434 10.94-2.303 4.85-2.602 7.54-1.207 10.87 1.928 4.61.5 23.66-2.131 28.43-.511.93-.983 4.58-1.238 9.6-.226 4.46-.852 11.75-1.39 16.21-.539 4.46-1.117 11.21-1.286 15.01-.169 3.8-.59 9.2-.935 12-.743 6.04-1.549 43.48-1.099 51.03.029.5-.141 4.42-.377 8.71l-.432 7.8-2.371 1.69-2.372 1.68.155 9.12c.234 13.7-.233 20.85-1.487 22.76-.578.88-.982 2.09-.898 2.69.236 1.67-.693 6.35-1.529 7.69-2.012 3.23-1.524 6.21 1.907 11.66 1.739 2.76 5.917 5.54 7.674 5.1.848-.22 2.66.31 4.88 1.43 5.773 2.9 17.754 4.46 34.004 4.44 11.739-.01 12.467.05 12.811 1.14.37 1.16 2.087 1.63 2.087.56 0-.66 2.366-2.05 2.784-1.64.153.16-.088.65-.535 1.1-.448.45-.989 1.29-1.203 1.85-.214.56-1.281 1.26-2.37 1.54-2.879.74-2.62 2.28.353 2.1 1.754-.11 2.825-.65 4.303-2.17 1.373-1.41 2.745-2.15 4.534-2.43 2.301-.37 2.697-.25 3.833 1.17 1.234 1.55 1.32 1.56 3.347.66 1.145-.5 3.347-2.08 4.895-3.51l2.814-2.59.394-5.7c.216-3.14.499-6.38.628-7.2.128-.82.794-9.33 1.48-18.91.686-9.58 1.44-19.04 1.675-21.02l.429-3.6 6.717.08c3.694.05 8.017.38 9.606.74 5.938 1.35 18.501 1.96 41.01 2 22.07.04 23.309-.01 25.945-1.18 1.522-.67 2.899-1.59 3.06-2.03.468-1.3-.596-4.42-1.91-5.6-1.15-1.04-1.415-1.05-5.567-.11-6.232 1.42-41.68 1.9-51.535.7-3.801-.46-9.886-1.14-13.522-1.5-3.636-.36-8.071-.82-9.855-1.01l-3.245-.36.412-11.17c.226-6.15.661-14.42.967-18.38.306-3.96.715-11.66.908-17.11.194-5.45.485-10.72.648-11.71.162-.99.543-5.85.846-10.81.562-9.2 3.822-38.89 4.448-40.52.192-.49.757-4.64 1.258-9.21.5-4.57 1.05-8.54 1.221-8.82.172-.28.583-3.02.913-6.09.33-3.08.753-6.42.941-7.44.264-1.42-.012-2.26-1.212-3.69-1.883-2.23-1.945-2.93-.301-3.36 1.163-.3 1.225-.6.846-4.14-.373-3.47-.247-4.14 1.38-7.4.984-1.97 2.073-4.93 2.421-6.58.579-2.76 1.453-13.13 1.468-17.41.003-.99.276-6.94.606-13.21.33-6.27.673-14.58.761-18.46.159-6.97.184-7.09 2.061-9.22 1.083-1.24 1.755-2.55 1.562-3.05-.187-.49-.34-1.42-.34-2.07 0-.66-.27-1.02-.601-.82-1.145.71-.592-.45 1.177-2.46 2.303-2.62 2.83-4.9 3.304-14.25.426-8.4 1.031-14.01 2.407-22.31.493-2.97 1.19-8.51 1.548-12.31.358-3.8 1.027-9.33 1.486-12.3.46-2.98 1.076-8.31 1.369-11.86.294-3.56.645-6.57.781-6.7.136-.13 2.952-.38 6.257-.56 3.305-.18 11.013-.64 17.127-1.03 6.249-.4 15.387-.55 20.865-.34 10.963.41 10.986.4 10.986-4.12 0-2.01-.213-2.27-2.76-3.4-2.415-1.06-3.748-1.19-10.667-1.01-4.349.11-8.583.25-9.409.31zm237.717 7.02c-.112 2.68-.502 8.52-.865 12.98-.363 4.46-1.077 16.34-1.587 26.42a4741.69 4741.69 0 0 1-1.797 33.01c-.478 8.09-1.033 18.36-1.233 22.82-.566 12.59-1.284 22.03-1.732 22.75-.485.79-2.706.86-3.862.12-.964-.61-.712-7.99.771-22.57.504-4.96 1.194-12.65 1.535-17.11.341-4.46.916-10.54 1.278-13.51.362-2.97.886-8.65 1.164-12.61 2.373-33.83 2.17-31.84 4.576-44.86.898-4.85.896-5.35-.025-6.75-.748-1.14-1.513-1.52-3.084-1.52-1.881 0-2.088-.16-2.081-1.65.013-2.27.518-2.81 3.297-3.52 3.408-.87 3.899-.06 3.645 6zm9.284 2.22c-.325 4.76-.596 11.34-.601 14.63-.005 3.28-.27 7.47-.589 9.3-.319 1.84-.867 7.66-1.218 12.94-.758 11.42-2.169 30.31-2.983 39.93-.321 3.8-1.016 14.33-1.543 23.41-.882 15.17-1.341 18.36-2.484 17.22-.398-.4 1.257-32.07 2.264-43.33.265-2.98.748-11.76 1.072-19.51.955-22.88 1.883-38.35 2.496-41.58.315-1.66.582-4.4.594-6.08.044-6.36 2.263-16.9 3.332-15.83.138.13-.015 4.14-.34 8.9zm24.617-7.58c.638 1.2.65 2.15.063 4.96-.401 1.91-.845 4.05-.987 4.75-.143.69-.662 2.23-1.154 3.41-.492 1.17-1.013 3.3-1.158 4.73-1.611 15.9-3.853 34.41-4.566 37.71-.321 1.49-.859 11.89-1.195 23.11-.337 11.23-.734 21.77-.883 23.42-.148 1.65-.444 7.32-.656 12.61-.477 11.85-.955 14.1-2.995 14.1-1.799 0-1.782.42-.569-14.1.852-10.21 1.586-22.46 2.665-44.43.259-5.28.773-12.44 1.142-15.91.37-3.47 1.503-14.27 2.519-24.01 2.899-27.79 3.15-29.5 4.526-30.88 1.337-1.33 2.335-1.17 3.248.53zm7.813 8.58c-.006 2.23-.402 5.81-.878 7.96-.476 2.15-1.146 9.03-1.49 15.31-.344 6.27-.926 14.38-1.295 18.01-1.194 11.78-1.799 28.32-1.958 53.43-.085 13.54-.205 24.95-.265 25.36-.072.49-1.177.75-3.146.75h-3.036l.339-11.85c.187-6.52.478-17.26.648-23.87.168-6.6.437-12.42.595-12.94.159-.51.681-7.26 1.161-15 .48-7.75 1.147-15.57 1.482-17.38.609-3.31 2.337-16.87 2.868-22.52.156-1.65.665-3.85 1.133-4.89.467-1.04.85-3.44.85-5.33 0-1.9.258-4.42.574-5.62.315-1.19.726-2.91.913-3.82.634-3.09 1.518-1.68 1.505 2.4zm-388.161 1.14c2.077.83 3.631.92 9.777.52 8.15-.52 48.473-.92 48.473-.48 0 .16-.541.97-1.202 1.81-1.621 2.06-1.577 6.09.101 9.35 1.245 2.41 1.315 3.43 1.556 22.93.139 11.23.387 23.13.552 26.44.243 4.9.083 6.69-.863 9.61l-1.162 3.58-3.848.39c-5.974.61-24.572.53-27.586-.12-1.487-.31-4.192-.86-6.01-1.2-1.817-.34-4.657-.91-6.31-1.25-3.217-.67-3.42-.67-10.972-.17-4.44.3-5.195.2-7.16-1.02-1.208-.74-2.858-1.43-3.665-1.51-2.842-.3-3.743-1.82-3.743-6.31 0-4.6 1.129-9.66 2.08-9.32.343.12.567.74.498 1.36-.149 1.34 1.28 4.63 2.369 5.45.419.32 2.79 1.44 5.269 2.49 4.212 1.78 5.079 1.92 13.221 2.17 4.793.15 10.336.56 12.32.91 1.983.35 7.009.79 11.17.98 7.531.33 7.572.32 9.465-1.27 2.518-2.11 2.349-5.23-.395-7.25-.984-.73-.941-.95 1.354-7.02.848-2.25 1.542-4.72 1.542-5.51 0-.78.429-3.09.952-5.13 1.398-5.46 1.468-17.15.117-19.5-.569-.99-1.83-3.43-2.802-5.43-.972-1.99-2.399-3.95-3.172-4.36-1.087-.57-6.093-.64-22.138-.27-17.974.4-21.007.6-22.795 1.52-1.263.64-2.204.82-2.428.46-.689-1.11.671-11.69 1.643-12.78 1.123-1.27.79-1.27 3.792-.07zm65.799 1.09c1.477 2.25.396 3.2-1.294 1.14-1.647-2.01-1.777-2.62-.56-2.62.488 0 1.322.67 1.854 1.48zm76.014.72c-.692.88-1.376 2.17-1.52 2.85-.144.69-.557 8.69-.919 17.77-.573 14.39-1.96 32.7-2.684 35.42-.131.49-.419 4.28-.638 8.4-.22 4.13-.52 7.7-.666 7.94-.146.24-.386 17.8-.531 39.02-.146 21.23-.404 40.08-.574 41.89-.606 6.46-2.136 20.18-2.712 24.32-.321 2.31-.871 7.44-1.223 11.4-1.081 12.19-1.696 17.71-2.877 25.82-.624 4.29-1.157 8.34-1.184 9.01-.027.66-.329 5.79-.672 11.4s-.793 13.99-1.001 18.61c-.273 6.11-.702 9.31-1.566 11.71-1.087 3.01-1.125 3.7-.439 7.92.642 3.95.597 5.9-.321 13.57-.731 6.1-.884 9.31-.482 10.09.324.63.772 2.15.996 3.39.399 2.21.459 2.25 3.115 2.25 4.144 0 4.234-.44 4.704-23.41.707-34.57 1.219-42.65 4.584-72.34.299-2.65.983-9.94 1.519-16.21 1.066-12.48 1.448-15.79 3.011-26.12.849-5.61 1.076-11.96 1.215-33.92.093-14.86.201-31.47.238-36.92.069-10.06 1.37-32.13 2.44-41.42.323-2.81.867-8.75 1.207-13.21.34-4.46 1.049-9.73 1.575-11.71.951-3.58 1.588-9.05 2.359-20.28.384-5.59.338-5.94-.991-7.35-1.879-2-4.337-1.95-5.963.11zm-28.079 2.48c-1.379 1.22-3.383 3.81-4.454 5.75-1.683 3.05-1.947 4.11-1.949 7.81-.003 5.79 1.545 10.65 4.31 13.56 2.974 3.12 5.426 3.55 10.409 1.81 4.189-1.45 6.85-3.65 11.196-9.25 2.397-3.09 2.8-4.02 3.014-6.98.331-4.58-1.889-9.54-5.69-12.72l-2.692-2.25-5.818.01-5.818.02-2.508 2.24zm-344.695 1.68c-.175.17-8.247.45-17.939.6-9.691.16-19.389.57-21.55.92-2.161.35-6.498.83-9.638 1.07-3.14.23-6.25.72-6.911 1.08-.661.37-2.554.86-4.207 1.1-1.652.25-3.616.67-4.365.95-1.228.46-5.878 1.37-10.659 2.08-.991.15-3.155.37-4.807.49-1.653.12-4.628.41-6.61.64-2.39.29-5.583.11-9.46-.52-6.85-1.12-9.953-1.2-12.286-.32-2.993 1.14-4.298 2.87-4.723 6.27-.455 3.64.018 4.82 3.417 8.54l2.318 2.54v8.23c0 4.53-.262 10.42-.582 13.07-1.453 12.06-2.129 22.62-2.212 34.56-.152 21.66-.199 23.62-.553 23.27-.188-.19-1.471.88-2.852 2.38-2.231 2.41-2.498 3.01-2.405 5.41.08 2.06.51 3.12 1.8 4.47 1.337 1.39 1.71 2.36 1.758 4.58.034 1.54.374 4.84.756 7.31.479 3.11.52 6.08.132 9.61-.309 2.8-.485 12.13-.393 20.71.093 8.59-.057 19.12-.333 23.41-.275 4.3-.827 12.67-1.228 18.61-.4 5.95-.65 12.7-.555 15.01.428 10.48.364 12.43-.629 19.21-.865 5.91-1.01 10.14-.809 23.42.135 8.91.41 17.29.61 18.61.55 3.63 2.118 10.07 2.739 11.25.302.57.55 1.11.55 1.2 0 .08-2.56.06-5.692-.05l-5.691-.21-2.703 2.31c-2.83 2.42-3.19 3.58-1.963 6.34.957 2.15 6.025 4.86 8.208 4.38 1.16-.26 1.91-.01 2.712.87.61.67 1.54 1.23 2.067 1.23 2.293.03 2.755 1.04 3.061 6.72l.301 5.58 2.404 1.2c2.901 1.44 6.964 1.44 10.733 0 1.975-.75 3.639-.93 6.339-.66 2.013.2 3.66.24 3.66.1 0-2.16-3.06-4.71-3.94-3.28-.784 1.26-1.357.4-.797-1.2.575-1.65.843-1.77 4.927-2.14 2.375-.21 6.346-.63 8.825-.93 14.294-1.72 31.965-2.64 36.358-1.88 1.983.34 6.445.78 9.916.98 3.47.21 8.608.62 11.418.91 8.424.89 12.019 1.17 18.329 1.45 4.246.19 6.979.65 9.315 1.57 1.818.71 4.251 1.66 5.408 2.1 1.157.44 4.537.97 7.512 1.18 6.77.48 12.335 1.62 14.176 2.91 4.621 3.24 12.014-1.65 10.102-6.67-1.19-3.13-.734-4.15 2.18-4.89 2.214-.55 2.905-1.07 3.719-2.77.955-2 .945-2.17-.211-3.74-.665-.91-2.317-2.16-3.67-2.78-2.647-1.22-3.138-2.19-3.151-6.21-.007-2.22.183-2.59 1.518-2.92 1.029-.26 2.729.15 5.206 1.26l3.679 1.65 3.193-1.56c3.755-1.84 4.074-2.64 3.575-8.89-.193-2.43-.507-7.11-.698-10.42l-.347-6 1.776-1.98c1.031-1.15 1.905-2.91 2.083-4.2.511-3.7-.301-18.77-1.366-25.34-1.571-9.69-2.76-49.79-1.717-57.93.295-2.31.641-16.12.768-30.69.291-33.42.824-49.14 1.858-54.86.448-2.48.986-7.61 1.197-11.41.21-3.79.778-9.75 1.26-13.23.483-3.48.826-8.88.764-12-.063-3.13-.054-8.07.02-10.98.092-3.66-.111-5.59-.655-6.25-.55-.66-.893-4.08-1.133-11.31-.281-8.45-.535-10.62-1.371-11.77-.565-.76-1.552-2.21-2.194-3.2-1.935-2.98-4.681-4.43-9.023-4.76-6.548-.49-10.433-1-12.007-1.56-1.609-.58-13.588-1.86-19.531-2.1-1.983-.08-4.822-.42-6.31-.76-1.487-.33-4.699-.64-7.138-.68-2.439-.03-4.632-.19-4.874-.34-.242-.15-.583-.13-.759.05zm297.987 9.79c-.674 13.09-1.088 17.1-1.656 16.09-.288-.51-.39-2.91-.226-5.33.163-2.42.477-7.69.698-11.73.247-4.52.626-7.19.988-6.97.366.23.44 3.22.196 7.94zm55.82-2.24c1.319 1.99 1.527 2.82 1.199 4.76-.218 1.29-.606 2.35-.861 2.35-.254 0-1.718-1.11-3.252-2.46-3.101-2.72-3.556-4.58-1.601-6.53 1.524-1.53 2.538-1.1 4.515 1.88zm270.81 2.9-.543 2.71-.065-3.36c-.037-1.84.137-3.55.384-3.8.709-.72.82 1.49.224 4.45zm-603.733 3.59c5.474.5 8.766 1.17 14.723 2.99 1.157.35 4.27.58 6.918.51 2.648-.07 5.15.08 5.559.33.422.26.744 1.69.744 3.31 0 3.34.741 4.28 3.386 4.28 1.343 0 2.028.33 2.22 1.05.648 2.45.336 21.62-.399 24.48-.553 2.15-.674 6.01-.433 13.8.184 5.94.15 12.42-.076 14.4-.226 1.99-1.103 11.17-1.949 20.42-2.75 30.07-3.373 35.96-4.226 39.92-2.632 12.22-3.472 17.14-3.888 22.81-1.225 16.68-2.522 31.95-3.061 36.02-.327 2.48-.711 11.39-.853 19.81-.26 15.44-.353 16.59-1.865 23.12-.459 1.98-.833 6.39-.832 9.81.001 3.41-.287 8.28-.639 10.81-1.725 12.35-2.283 17.55-2.002 18.62.395 1.51-.541 1.98-7.317 3.66-2.975.74-7.167 1.85-9.315 2.47-2.149.63-8.368 1.96-13.822 2.97-5.454 1.01-11.133 2.13-12.62 2.48-3.268.78-9.128 1.34-14.423 1.38l-3.906.03-.129-6.27c-.146-7.14 1.535-23.28 3.37-32.33.577-2.85 1.425-15.19 2.216-32.24.153-3.31.508-8.98.788-12.61.28-3.63.502-7.28.492-8.11-.198-17.28 2.993-70.49 4.458-74.34.319-.84.726-5.6.904-10.57.198-5.56.65-9.91 1.173-11.3 1.134-3.02 1.075-7.66-.135-10.68-.876-2.19-.941-4.72-.579-22.68.224-11.12.389-20.62.366-21.11-.275-6.07.308-17.46 1.153-22.52.331-1.98.87-5.59 1.196-8.02.327-2.43.75-4.58.94-4.77.19-.19 2.299-.59 4.686-.88 13.83-1.71 18.115-1.87 27.177-1.05zm245.506.99 2.408.97-.071 6.38c-.039 3.51-.316 7.89-.616 9.72-.3 1.83-.674 5.46-.831 8.06-.157 2.61-.56 5.01-.896 5.35-.336.33-.611 1.18-.611 1.87 0 .7-.758 2-1.685 2.89-1.842 1.76-5.069 2.13-9.132 1.04-1.157-.31-4.967-.69-8.467-.83-5.596-.24-8.94-1.03-10.666-2.53-1.456-1.27-1.978-23.57-.596-25.45.44-.6 1.98-2.54 3.425-4.31 2.61-3.21 2.647-3.23 6.61-3.56 9.278-.76 18.664-.58 21.128.4zm358.134 12.38c-.011 6.36-.341 13.45-.734 15.76-.403 2.38-.755 11-.808 19.81-.109 17.87-.758 32.12-1.465 32.12-1.046 0-1.201-4.09-.918-24.31.291-20.83.962-35.53 2.12-46.53.331-3.13.606-6.31.612-7.05.006-.74.281-1.35.611-1.35.381 0 .594 4.24.582 11.55zm-654.626-10c1.068.16 2.732 1.13 3.804 2.22 1.864 1.89 1.896 2.02 1.481 5.83-.234 2.15-.393 5.86-.354 8.25.039 2.38-.313 6.03-.78 8.1-.865 3.83-1.371 24.43-1.007 41.03.135 6.14-.037 8.35-.792 10.15-.531 1.27-1.056 3.33-1.169 4.57-.12 1.34-.851 3.04-1.793 4.15-1.694 2.02-1.97 3.57-.966 5.44.636 1.19-.016 1.52-2.425 1.25-.496-.06-5.093-.05-10.217.02-24.048.32-46.449-.73-48.567-2.28-1.222-.89-1.483-7.41-.681-17.09.284-3.44.823-18.68 1.198-33.87.375-15.19.725-27.65.778-27.69.054-.04 1.585-.22 3.403-.39 3.446-.32 11.155-1.75 16.827-3.13 3.75-.91 9.099-1.87 13.52-2.41 1.654-.21 4.899-.79 7.212-1.3 3.917-.86 15.693-2.89 17.729-3.06.495-.04 1.756.05 2.8.21zm-61.809 6.99c.183 1.54.17 1.54-2.082.77-2.802-.97-3.23-1.94-.992-2.27 2.51-.37 2.872-.19 3.074 1.5zm119.427.53c-1.74 1.52-2.125 2.28-2.125 4.16 0 4.41 4.08 7.14 6.857 4.59 2.093-1.91 2.682-7.69.96-9.41-1.686-1.69-3.225-1.51-5.692.66zm13.552 5.79c-1.462 1.19-3.964 7.99-4.584 12.45-.229 1.65-.926 3.85-1.548 4.88-1.808 2.99-1.532 7.53.65 10.7 2.365 3.44 3.412 3.76 5.528 1.74 1.551-1.48 1.705-2.01 1.705-5.78 0-4.73 1.876-14.66 3.592-19.01 1.155-2.92 1.155-2.95-.057-4.49-1.419-1.8-3.458-1.99-5.286-.49zm-115.153 9.79c-1.002.29-3.801 2.19-6.222 4.23-3.588 3.02-4.72 4.41-6.14 7.57-1.998 4.45-3.096 8.25-4.182 14.45-.73 4.17-.69 4.63.837 9.72.882 2.94 1.599 6.78 1.594 8.54-.008 2.5.469 4.11 2.247 7.58 4.432 8.65 10.474 12.63 20.023 13.17 4.208.24 5.646.11 6.77-.63.786-.52 3.027-1.23 4.979-1.59 6.775-1.24 13.88-4.89 15.698-8.07.922-1.61.975-4.14.105-5.01-.867-.86.737-5.83 2.906-9 2.188-3.2 3.17-6.87 3.17-11.87 0-3.66-.348-5.11-2.34-9.77-2.743-6.41-2.742-6.41-8.133-12.31-4.015-4.4-4.294-4.58-7.862-5.2-2.034-.36-5.164-.66-6.955-.67-1.79-.01-4.878-.41-6.862-.89-4.012-.97-6.906-1.04-9.633-.25zm4.525 6.49c0 .29-1.715 2.39-3.812 4.66-2.097 2.26-4.16 4.78-4.586 5.58-.743 1.4-.808 1.41-1.597.34-.452-.62-.822-1.6-.822-2.17 0-.57-.683-1.58-1.517-2.24l-1.518-1.19 1.76-1.25c.969-.69 1.969-1.25 2.222-1.25.253 0 .888-.37 1.41-.83 1.966-1.7 8.46-2.97 8.46-1.65zm21.345 10.03c1.245.95 2.49 3 3.879 6.38 1.703 4.15 2.021 5.63 1.906 8.86-.116 3.27-.452 4.34-2.162 6.9-3.49 5.22-5.593 6.84-9.35 7.22-1.814.18-4.567.47-6.117.64-2.572.27-2.992.13-4.807-1.67-1.095-1.08-2.738-2.51-3.653-3.17-2.19-1.57-2.947-6.47-1.371-8.87.797-1.21.873-1.82.352-2.79-.366-.68-.926-1.24-1.245-1.24-1.065 0-.595-4.31.726-6.66.92-1.63 1.943-2.52 3.456-3 1.182-.37 3.526-1.44 5.208-2.36 4.931-2.72 9.804-2.81 13.178-.24zm-10.51 4.52c-1.828.73-2.4 1.58-2.412 3.58-.011 1.84 2.095 3.97 4.197 4.26 1.44.19 1.494.35 1.306 3.82-.218 4.01.606 5.35 3.628 5.9 3.526.64 7.73-6.94 5.84-10.53-1.452-2.75-4.439-3.23-5.343-.85-.302.79-.805 1.6-1.119 1.79-.78.49-1.41-2.17-.686-2.89.925-.93.68-2.46-.665-4.16-1.32-1.68-2.34-1.88-4.747-.92zM49.157 1137c-.005.41-.246 1.13-.537 1.58-.422.67-.658.59-1.193-.41-.91-1.7-.849-1.92.537-1.92.661 0 1.198.34 1.193.75zm326.807 9.63c.099.77-.166 2.19-.589 3.16-.494 1.14-.774 4.66-.786 9.87-.01 4.46-.615 13.21-1.344 19.45-.73 6.25-1.18 11.59-1.001 11.88.801 1.29-.54 3.87-2.715 5.21-2.084 1.29-3.127 1.45-11.431 1.69-9.786.28-12.797-.21-13.912-2.3-.439-.82-.529-8.66-.286-25.01.325-21.87.442-23.9 1.427-24.72.9-.76 3.436-.88 15.765-.76l14.693.14.179 1.39zm-15.703 1.43c-.796.79-.327 3.02 2.065 9.8 1.339 3.8 2.693 7.96 3.01 9.24 1.187 4.81 3.104 6.31 6.099 4.78 1.719-.88 1.713-.83.648-5.31-.157-.66-1.047-3.23-1.978-5.71-.932-2.47-2.323-6.46-3.093-8.85l-1.399-4.35h-2.476c-1.362 0-2.656.18-2.876.4zm-298.867 9.49c2.199.93 3.998 1.92 3.998 2.2 0 .85-6.548.58-8.293-.34-2.348-1.23-5.919-5.19-6.352-7.04-.206-.88-.56-2.1-.786-2.71-.228-.6 1.352.54 3.51 2.54 2.599 2.42 5.274 4.22 7.923 5.35zm728.477-3.5c-2.253 2.94-2.269 3.03-2.134 11.52.088 5.48.767 7.68 2.55 8.25 3.289 1.04 9.593-2.14 10.627-5.36.74-2.31-.023-11.47-1.135-13.61-1.506-2.9-2.51-3.59-5.194-3.59-2.367 0-2.762.23-4.714 2.79zm-436.501 5.13c-1.225 1.23-.831 2.77 2.357 9.22 3.063 6.21 4.634 7.82 6.147 6.3.974-.98.746-6.91-.421-10.91-.825-2.84-1.317-3.54-3.032-4.36-2.435-1.15-4.066-1.23-5.051-.25zm343.617 21.37c1.203.97 1.321 1.58 1.267 6.6-.103 9.55-1.192 24.7-1.867 25.96-.356.66-.625 2.35-.596 3.75.078 3.89-.676 8.24-1.428 8.23-1.667-.02-2.162-.94-1.587-2.95.316-1.09.607-10.4.648-20.68.041-10.27.219-19.43.396-20.33.373-1.92 1.304-2.09 3.167-.58zm-635.2 2.6c10.741.1 23.528.01 28.415-.2 8.704-.37 8.914-.35 10.384 1.01 1.372 1.27 1.45 1.61.921 4.01-.317 1.43-.751 6.53-.964 11.32-.212 4.78-.624 9.38-.917 10.2-.292.83-.644 5.15-.781 9.61-.251 8.11-.362 9.67-1.65 23.11-.7 7.31-1.852 15.21-2.933 20.11-.812 3.69-2.963 26.66-3.12 33.32-.07 2.97-.331 5.83-.58 6.35-.706 1.46-1.019 50.32-.34 53 .762 3-.044 3.56-4.398 3.03-1.818-.23-8.308-.33-14.423-.24-14.587.23-13.946.24-19.831-.25-9.442-.77-9.04-.6-8.627-3.61.283-2.06.097-2.96-.888-4.32-1.066-1.48-1.288-2.89-1.55-9.83-.17-4.46-.48-10.46-.691-13.33-.212-2.87-.087-7.46.275-10.21.795-6 1.678-16.61 2.463-29.57.645-10.66-.02-26.91-1.489-36.34-.488-3.14-1.297-9.08-1.797-13.21-.5-4.13-1.195-9.4-1.545-11.71-.35-2.31-.725-5.82-.834-7.8-.108-1.98-.62-8.06-1.137-13.51-.517-5.45-1.118-12.52-1.337-15.71l-.398-5.81 1.716-.2c.944-.11 2.798-.02 4.12.2s11.193.48 21.935.58zm665.333.92c.654.79.81 4.01.755 15.5-.059 12.2-.23 14.84-1.072 16.62-.551 1.16-1.224 3.51-1.495 5.22-.271 1.71-.6 3.21-.731 3.33-.131.12-2.088.41-4.349.64-3.791.4-4.093.34-3.884-.67.14-.69.643-1.04 1.323-.92.604.11 1.743-.41 2.533-1.15 1.368-1.29 1.436-1.72 1.459-9.2.034-11.1 1.412-28.3 2.358-29.44.996-1.19 2.071-1.17 3.103.07zm14.105 1.92c-.171.87-.473 4.97-.672 9.09-.402 8.37-.974 11.7-2.992 17.41-.758 2.15-1.702 5.66-2.098 7.81-1.028 5.57-1.164 5.92-1.829 4.74-.329-.58-.192-5.05.349-11.41.489-5.74.896-14.29.904-19 .007-4.71.142-8.9.299-9.31.167-.43 1.543-.78 3.318-.83 2.975-.09 3.027-.07 2.721 1.5zm-712.753 10.59c.216 1.15.267 2.44.112 2.85-.155.42-.041 2.51.251 4.66.293 2.15.775 7.01 1.071 10.81.296 3.79.682 7.71.858 8.7.174.99.6 4.64.944 8.11 1.492 15.02 1.836 17.82 2.438 19.81.358 1.18.772 10.4.945 21.05.27 16.56.151 20.34-.937 30.01-.685 6.09-1.543 12.62-1.907 14.51-.37 1.93-.503 5.63-.304 8.41.196 2.73.63 8.61.962 13.07.333 4.45.444 9.75.247 11.76l-.358 3.66-3.082-.29c-1.695-.15-3.126-.31-3.18-.35-.053-.04-.25-8.18-.434-18.08-.186-9.91-.457-22.47-.602-27.92-.54-20.18-.496-38.44.119-49.83s1.69-55.37 1.477-60.48c-.127-3.08.829-3.39 1.38-.46zm336.638 14.11c1.619 0 2.205.41 3.483 2.44 1.508 2.38 1.595 2.42 4.645 2.25 3.186-.19 3.862-.77 4.899-4.24.271-.9 1.096-1.05 5.893-1.04 6.889.01 11.784 1.12 14.647 3.3 2.113 1.61 2.173 1.76 1.768 4.43-.231 1.52-.653 5.61-.938 9.07-.831 10.12-1.78 18.2-2.332 19.85-.29.86-.268 3.08.05 5.1.365 2.31.349 4.42-.043 5.97-.808 3.2-1.146 6.4-1.591 15.01-.204 3.96-.904 11.08-1.555 15.83-.652 4.74-1.163 10.14-1.136 12 .101 7.13-2.053 37.47-2.738 38.58-.153.25-.533 2.97-.843 6.04-.311 3.08-.969 9.09-1.462 13.35-.493 4.27-.8 7.92-.681 8.11.117.19-3.479.17-7.992-.05-4.514-.22-12.242-.18-17.174.08-6.86.37-9.613.3-11.719-.31-1.513-.44-4.042-.98-5.621-1.21-2.943-.42-6.138-2.17-7.27-3.99-.455-.73-.435-1.59.07-3 1.103-3.09 1.187-11.25.123-11.92-.479-.3-.681-.55-.45-.56.231 0 .017-.97-.476-2.15s-.848-3.54-.789-5.25c.058-1.72.051-5.71-.017-8.88-.068-3.17.163-7.36.513-9.31.351-1.94.6-5.29.554-7.44-.046-2.14.346-7.55.871-12 .526-4.46 1.134-14.05 1.351-21.32.217-7.26.475-14.15.573-15.31.098-1.15.473-7.77.834-14.7 1.623-31.18 1.98-36.65 2.418-37.1.258-.26 1.612-.22 3.01.1 2.701.6 4.779.23 7.619-1.37 1.324-.75 2.696-.91 5.655-.68 2.148.17 4.782.32 5.851.32zm44.572 11.45c-.433.26-1.032.33-1.33.15-.299-.19-.19-.56.242-.83.433-.26 1.032-.33 1.331-.15.299.19.189.56-.243.83zm-3.313 19.13c-.921.86-.974.85-.621-.16.212-.6.403-1.68.423-2.4.037-1.24.067-1.23.622.16.451 1.13.355 1.67-.424 2.4zm-226.195 4.24c0 .67-.401 1.2-.901 1.2-.496 0-.902-.11-.902-.25 0-.13-.164-.67-.364-1.2-.262-.68-.006-.95.901-.95.865 0 1.266.38 1.266 1.2zm287.492 4.06c-1.845 1.97-2.072 2.54-1.817 4.6.417 3.36 2.123 5.35 5.141 6 2.268.48 2.688.39 3.985-.91 1.849-1.84 2.153-6.14.602-8.51-.968-1.47-3.973-3.44-5.265-3.44-.296 0-1.487 1.02-2.646 2.26zm-288.086 9.6c.181 18.76.029 30.16-.563 42.18-.35 7.1-.726 18.81-.835 26.03l-.199 13.13-1.458.81c-2.093 1.16-4.024 1.03-4.743-.31-1.2-2.24-.611-10.41 1.497-20.75.471-2.31 1.023-7.58 1.226-11.71.204-4.13.733-9.67 1.177-12.31.442-2.64.859-8.04.926-12 .066-3.97.357-10.72.644-15.01.451-6.72.832-12.7 1.059-16.66.033-.58.316-1.05.628-1.05.322 0 .599 3.3.641 7.65zm114.219-.52c-2.112.59-2.157 1.6-.111 2.45 3.169 1.31 5.984-.82 3.111-2.36-.639-.34-1.248-.59-1.352-.56-.104.03-.846.24-1.648.47zm163.974 11.43c-3.549 1.93-3.857 2.59-2.996 6.44.543 2.42.568 3.52.091 4-1.495 1.49-.739 2.33 1.721 1.92 1.31-.22 3.856-.07 5.668.33 2.595.58 4.078.58 7.031 0 4.83-.95 6.182-1.88 7.429-5.15 1.167-3.05.965-4.12-1.219-6.47-1.425-1.54-1.909-1.68-5.565-1.61-2.203.03-5.357-.09-7.009-.28-2.321-.27-3.494-.09-5.151.82zm-359.756 10.85c-.432 1.66-.775 1.51-.775-.33 0-.85.246-1.39.545-1.2.3.18.403.87.23 1.53zm55.746 8.81c-1.343 1.7-1.604 2.55-2.089 6.8-1.371 12.01-2.117 21.91-2.149 28.52-.028 5.89-.254 8.09-.92 8.97-.804 1.06-.892.77-.989-3.3-.059-2.46-.065-5.01-.013-5.67.284-3.62.185-11.16-.161-12.25-.284-.89-.901-1.26-2.115-1.26-3.815 0-3.91.22-4.512 10.51-.428 7.31-1.292 16.11-1.842 18.78-.349 1.69-.143 2.22 1.462 3.75 2.311 2.2 3.174 2.22 5.483.13 1.522-1.38 1.844-2.16 1.963-4.75l.142-3.1 1.913 1.45c2.553 1.93 5.268 1.91 6.558-.06.846-1.29.923-2.51.537-8.55-.639-10-.479-14.23.84-22.23.638-3.87 1.334-8.52 1.547-10.34.213-1.81.526-4.02.695-4.91.215-1.12-.068-1.99-.933-2.85-1.719-1.72-3.895-1.58-5.417.36zm306.149 9.28c-.321 3.63-.241 4.99.318 5.33.587.37.537 1.08-.232 3.34-.539 1.58-.981 3.38-.981 4 0 1.55-1.631 4.63-3.516 6.65-1.431 1.52-1.604 2.24-1.884 7.8-.17 3.37-.148 7.47.048 9.13.27 2.27.089 3.5-.751 5.09-.61 1.15-1.108 2.34-1.108 2.64 0 .31-.636 1.39-1.414 2.41-2.033 2.68-3.394 5.5-3.394 7.04 0 .74.569 3.12 1.265 5.29 3.025 9.44 3.235 9.64 9.712 9.64 4.438 0 4.853-.11 6.497-1.75 1.246-1.24 1.757-2.34 1.757-3.78 0-1.72.44-2.34 3.032-4.28 2.042-1.52 3.405-2.14 4.175-1.89.854.27 1.38-.1 2.076-1.44 1.103-2.13 1.178-3.99.269-6.59-.871-2.5-2.105-3.08-6.508-3.08-2.801 0-3.645-.2-3.645-.88 0-1.1 2.022-2.23 3.184-1.78 1.577.6 4.022-4.54 4.064-8.55.019-1.92.295-4.85.612-6.5.317-1.65.955-6.11 1.418-9.91.462-3.79 1.142-9.13 1.51-11.86.984-7.29-.288-8.76-8.084-9.32-2.313-.16-4.968-.6-5.898-.96-.93-.37-1.781-.67-1.891-.67-.109 0-.393 2.2-.631 4.88zm6.652 3.24c.019.65.245 1.9.501 2.78.257.88.16 4.52-.216 8.1-.376 3.59-.919 9.72-1.209 13.63-.499 6.74-.8 8.21-1.532 7.48-.469-.47-.44-32.16.03-32.92.642-1.04 2.388-.37 2.426.93zM438.682.635c-1.033.42-2.572 1.654-3.422 2.74l-1.543 1.975-9.185.673c-10.598.777-21.021 2.651-24.441 4.394-1.715.874-2.481 1.707-2.768 3.01-.593 2.7-.053 3.08 3.737 2.635 3.157-.37 3.338-.323 2.88.75-.27.63-.57 4.117-.667 7.749-.214 7.995-1.289 21.913-1.947 25.214-.264 1.321-.548 5.05-.633 8.288-.084 3.238-.424 7.29-.755 9.005-.942 4.885-2.291 15.294-2.604 20.088-.157 2.4-.555 4.866-.885 5.482-.33.616-.734 4.846-.899 9.399-.349 9.649-.699 13.578-1.868 20.98-.47 2.972-.981 10.401-1.136 16.51-.154 6.108-.557 11.917-.895 12.907-.338.991-.752 4.908-.921 8.705-.277 6.266-1.094 13.491-1.968 17.41-.312 1.405-.364 1.368-.799-.585-.255-1.148-.348-2.277-.203-2.509.143-.233.399-2.941.567-6.019.168-3.077.724-11.403 1.234-18.503 1.217-16.893 1.998-40.627 1.611-48.928-.34-7.28.706-29.855 1.626-35.095.32-1.83.896-6.704 1.277-10.831.862-9.324.868-9.384 1.323-12.307 1.512-9.73 2.273-17.513 2.11-21.592l-.191-4.782-2.038-.582c-1.836-.524-2.18-.419-3.456 1.063-1.15 1.337-1.417 2.327-1.417 5.277 0 3.111-3.693 23.803-4.474 25.065-.525.85-2.136 15.612-2.146 19.663-.005 2.257-.427 5.725-.938 7.706-.511 1.981-1.164 8.195-1.451 13.808-.287 5.613-.65 11.223-.805 12.466-.157 1.242-.459 6.916-.673 12.607-.215 5.691-.769 13.995-1.232 18.452-.934 8.978-2.07 27.087-2.166 34.52-.034 2.642-.347 8.924-.696 13.962-.734 10.603-.129 15.832 2.45 21.158l1.598 3.302-.064 17.41c-.09 24.164-.776 34.616-2.559 38.982-.413 1.01-.961 7.539-1.285 15.309-.549 13.17-1.204 19.739-2.398 24.054-.32 1.156-.583 4.044-.585 6.419-.002 2.453-.285 4.491-.655 4.719-.746.461-.25 6.805.731 9.353.335.869 1.547 2.085 2.695 2.701 1.147.617 2.192 1.663 2.322 2.323.793 4.023 1.158 5.001 2.543 6.819 1.356 1.781 1.779 1.978 3.612 1.68 2.661-.431 3.773-1.374 3.773-3.197 0-.8.632-2.087 1.405-2.859 1.345-1.343 1.929-1.424 13.276-1.849 13.267-.497 26.51.483 45.715 3.384 1.983.299 7.391.803 12.019 1.118 26.998 1.842 33.466 2.413 37.259 3.293 10.075 2.338 19.128 3.918 22.456 3.918 1.404 0 3.686.252 5.072.559 1.386.307 6.17.868 10.632 1.247 14.652 1.241 16.835 1.593 18.275 2.946 1.493 1.4 3.647 1.595 6.175.557.931-.382 4.532-.719 8.002-.751 7.173-.063 9.014-.776 9.014-3.489 0-2.113-3.045-3.737-8.073-4.305-1.961-.221-3.922-.697-4.357-1.058-1.025-.85-1.001-3.289.074-7.572a136.278 136.278 0 0 0 1.524-7.045c.363-1.981.915-4.818 1.226-6.304.311-1.485 1.009-5.943 1.551-9.905.801-5.866 2.285-12.327 4.17-18.161.492-1.523 1.576-.744 1.253.901-.179.908-.496 4.758-.705 8.555a73.25 73.25 0 0 1-2.128 13.795c-.96 3.79-1.746 7.552-1.746 8.362 0 1.559-.787 4.344-2.247 7.953-1.752 4.326 1.156 8.356 4.466 6.19 1.92-1.256 2.375-2.375 3.17-7.784.389-2.641.946-5.613 1.239-6.604.293-.99 1.257-5.043 2.142-9.005 1.374-6.15 1.637-8.873 1.793-18.611.183-11.398.701-22.932 1.15-25.601.131-.778.524-3.535.875-6.128s.778-4.94.949-5.216c.27-.437 1.153-7.292 2.394-18.587.347-3.156 1.009-7.6 2.106-14.108.277-1.651.525-4.974.549-7.384.024-2.41.41-5.111.858-6.003.457-.909 1.12-5.71 1.51-10.931.383-5.12.969-10.293 1.301-11.496.488-1.764 2.653-16.861 3.948-27.522.141-1.156.519-3.857.841-6.004.322-2.146.703-5.117.848-6.603.682-7.032 1.118-9.082 1.787-8.412.439.439.686 4.437.719 11.595.083 18.45.116 18.926 1.4 20.024.632.541 1.001 1.368.82 1.839-.253.659.142.812 1.706.662l2.034-.194-.301-6.303c-.629-13.213-.254-42.437.586-45.603.31-1.168.992-6.312 1.515-11.43.524-5.118 1.2-11.332 1.504-13.808.304-2.477.723-10.851.931-18.61.21-7.76.639-14.963.955-16.005.373-1.229.341-5.988-.09-13.508-.57-9.927-1.045-13.64-2.705-21.128-.571-2.576-3.18-4.203-7.804-4.867-1.652-.237-5.709-1.2-9.014-2.142-3.305-.94-7.091-1.886-8.413-2.102-1.323-.215-4.568-1.036-7.212-1.823-2.644-.787-7.917-1.979-11.719-2.65-3.801-.671-9.074-1.61-11.718-2.085-2.644-.476-8.594-1.427-13.221-2.113a1703.921 1703.921 0 0 1-12.019-1.818c-4.409-.697-14.851-1.678-22.536-2.116-3.14-.18-7.261-.599-9.159-.932-5.483-.962-55.042-1.106-57.348-.166zM396.639 1348.29c-.56.56-.721.4-.721-.72s.161-1.28.721-.72c.561.56.561.88 0 1.44zm-.684 11.41c-.686 7.52-.932 8.54-1.902 7.95-.918-.57.61-15.6 1.767-17.37.748-1.14.796 2.19.135 9.42zM427.371 15.628c3.439 2.319 5.945 2.619 6.905.828.537-1.002 1.261-1.201 4.378-1.205 2.054-.003 6.704-.397 10.332-.876 6.069-.8 7.725-.771 20.733.363 7.775.679 18.868 1.46 24.653 1.736 21.891 1.045 59.035 3.484 63.4 4.162 1.984.309 4.823.73 6.311.934 3.075.424 9.304 1.388 23.097 3.574 5.266.835 10.712 1.518 12.102 1.518 4.048 0 5.246 1.392 5.452 6.335.153 3.698-.008 4.376-1.611 6.794-2.056 3.1-2.252 4.618-.65 5.037 1.666.435 1.881 4.64.499 9.75-1.148 4.247-1.721 7.935-2.843 18.31-.339 3.137-1.013 9.216-1.497 13.508a1561.097 1561.097 0 0 0-1.549 14.409c-.367 3.632-.793 7.819-.946 9.305-.153 1.486-.567 3.782-.92 5.103-.352 1.321-.599 3.728-.548 5.35.05 1.622-.209 3.859-.577 4.972-.367 1.111-1.04 5.458-1.494 9.658-1.728 15.975-2.054 18.493-2.616 20.243-.319.991-.767 3.422-.997 5.403-.229 1.981-.787 4.332-1.241 5.223-.454.892-.832 2.648-.84 3.902-.007 1.255-.29 3.362-.629 4.683-.338 1.321-1.02 4.833-1.514 7.805-1.529 9.175-1.852 10.749-2.563 12.496-.797 1.957-.86 7.355-.13 11.13.3 1.548.251 4.428-.119 7.062l-.625 4.449-3.062-.346c-5.965-.671-5.444.071-5.643-8.035-.102-4.162.196-9.823.705-13.383.487-3.393 1.061-11.745 1.278-18.56.217-6.815.65-13.434.963-14.708.313-1.275.707-4.209.875-6.521.169-2.311.683-7.174 1.144-10.806.46-3.632 1.005-8.765 1.211-11.406.206-2.642.79-7.64 1.296-11.107.507-3.467 1.011-7.249 1.12-8.405.31-3.272 1.314-8.926 2.346-13.207.517-2.147.944-5.609.949-7.694.005-2.085.295-4.326.644-4.978.8-1.492 2.483-10.995 2.318-13.082-.068-.859.147-2.237.478-3.063.331-.825.782-3.083 1.002-5.016.22-1.933.658-3.997.973-4.585.316-.59.969-3.335 1.452-6.102.483-2.767 1.183-5.833 1.557-6.812.372-.98 1.042-3.406 1.489-5.392.447-1.986 1.53-5.599 2.408-8.029l1.597-4.417-1.35-1.436c-2.428-2.58-8.259-1.334-7.836 1.675.152 1.086-1.853 4.713-3.185 5.759-.823.647-2.875 1.358-4.558 1.582-2.287.303-3.58.894-5.101 2.331-1.12 1.06-2.1 2.331-2.178 2.826-.265 1.694.777 5.934 1.632 6.643.47.39.855 1.64.855 2.776 0 1.901.132 2.052 1.652 1.877l1.653-.19-.186-4.998c-.21-5.63.279-6.708 3.038-6.708h1.804l-.358 3.152c-.642 5.654-1.469 9.713-2.442 11.988-.525 1.227-.957 3.523-.958 5.102-.002 1.58-.265 3.817-.586 4.972-.633 2.286-2.848 16.368-3.635 23.114-.27 2.311-.769 5.553-1.109 7.204-1.443 7.004-4.354 26.82-5.468 37.221-.319 2.972-.852 6.889-1.185 8.705-.611 3.332-.981 8.267-1.482 19.812-.151 3.467-.811 11.571-1.465 18.01-.655 6.439-1.192 13.058-1.194 14.709-.002 1.651-.2 6.409-.44 10.575l-.437 7.574-5.47-.269c-3.009-.148-6.281-.501-7.273-.784-.992-.283-4.237-.691-7.212-.907-2.974-.216-6.76-.764-8.413-1.217-1.653-.454-4.627-1.101-6.61-1.439-1.984-.339-5.094-1.043-6.911-1.565-1.818-.523-8.173-1.307-14.123-1.742-5.949-.435-12.468-1.223-14.486-1.751-2.964-.775-8.238-1.01-27.416-1.225-17.567-.197-25.655-.527-31.085-1.267-4.037-.551-8.061-.858-8.943-.682-.881.175-5.389.039-10.016-.302-7.734-.57-8.544-.742-10.03-2.137-2.443-2.293-3.355-1.542-3.02 2.485l.279 3.358h-2.089c-1.148 0-2.924-.292-3.946-.648-2.387-.83-2.418-1.191-1.49-17.063.406-6.934 1.006-17.335 1.335-23.113.329-5.778 1.013-14.964 1.521-20.412.953-10.236 1.872-22.478 2.328-31.022.143-2.699.423-5.169.621-5.489.198-.32.917-6.081 1.597-12.803.68-6.721 1.757-15.497 2.394-19.5.635-4.002 1.439-9.81 1.785-12.906.346-3.097.883-6.44 1.195-7.431.31-.99.701-3.962.869-6.604.167-2.641.851-8.45 1.521-12.907 1.547-10.293 1.633-18.365.212-19.933-1.588-1.753-.018-2.703 5.519-3.338 6.005-.69 7.088-.486 10.823 2.031zM151.329 1358.38c-.662 1.24-1.711 1.45-4.056.82-2.736-.73-1.227-1.81 2.725-1.95 1.796-.07 1.916.04 1.331 1.13zm-9.615 1.2c0 .33-.27.6-.601.6-.33 0-.601.55-.601 1.22 0 1.75-1.404 2.06-6.14 1.32-6.375-.98-6.374-1.77.005-2.91 5.154-.92 7.337-.99 7.337-.23zM82.717 21.181c-1.156.245-2.837.928-3.735 1.518-.925.608-3.66 1.306-6.31 1.611-6.12.705-9.18 1.584-10.832 3.108-1.15 1.061-1.572 1.14-2.889.54-2.642-1.202-4.253-.341-5.114 2.731-.586 2.09-.6 2.956-.063 3.703 1.385 1.925 1.818 3.592 1.907 7.357.229 9.628-2.237 48.49-3.613 56.954-.296 1.816-.827 7.22-1.18 12.007-.354 4.788-.78 10.556-.95 12.817a170.899 170.899 0 0 0-.374 8.105c-.037 2.196-.457 5.208-.934 6.694-.58 1.811-.746 3.889-.5 6.304.202 1.981.084 4.547-.262 5.703-.965 3.225-1.886 12.609-2.15 21.913-.131 4.622-.558 13.132-.947 18.911-.39 5.778-.756 19.151-.812 29.717-.107 20.072-.45 25.621-1.894 30.617-.63 2.181-.952 7.846-1.173 20.712-.168 9.741-.552 19.061-.853 20.712-.801 4.404-1.288 11.472-1.464 21.312-.086 4.788-.35 9.381-.588 10.206-.237.826-.66 7.985-.942 15.91-.28 7.924-.802 15.488-1.158 16.809-1.242 4.597-2.954 38.508-2.062 40.831.436 1.135 4.414 3.426 5.335 3.073.946-.363 1.386-5.644 1.833-21.991.23-8.467.752-15.283 1.517-19.812.778-4.604 1.273-11.19 1.488-19.77.177-7.076.484-13.127.682-13.447.198-.321.57-7.093.828-15.05.257-7.958.784-15.955 1.169-17.771.42-1.978.69-8.65.672-16.645-.02-9.709.298-16.085 1.169-23.413.885-7.454 1.338-16.778 1.741-35.885.549-26.023 1.028-39.562 1.496-42.325.14-.825.417-4.742.616-8.705.199-3.962.476-7.609.615-8.104.568-2.017 2.075-17.328 2.956-30.018.515-7.429 1.341-17.29 1.835-21.912 1.94-18.164 3.367-35.662 3.304-40.524-.037-2.806.195-9.155.514-14.108.32-4.953.433-10.798.253-12.99-.306-3.731-.234-4.046 1.131-4.94.906-.592 3.5-1.096 6.843-1.33 6.14-.428 10.286-1.456 13.248-3.285 1.887-1.165 2.837-1.259 11.817-1.172 25.052.243 37.082.516 37.63.855.328.203 7.85.78 16.715 1.28 24.865 1.408 29.595 1.788 30.236 2.428.867.866-4.026 4.446-6.075 4.446-2.041 0-2.164.365-2.869 8.52-.305 3.531-.72 6.688-.923 7.016-.203.327-.502 10.136-.665 21.796-.179 12.854-.554 21.987-.951 23.198-.361 1.098-.511 2.719-.335 3.602.368 1.834-.552 9.648-1.479 12.57-.341 1.079-.885 4.05-1.207 6.604-.537 4.251-.805 9.04-2.055 36.763-.239 5.327-.707 9.665-1.093 10.148-.433.54-.81 6.23-1.054 15.909-.354 14.005-1.44 24.867-2.685 26.865-1.306 2.093-2.833 22.788-2.266 30.678.234 3.247.118 6.229-.302 7.804-.375 1.403-.794 8.088-.931 14.857-.138 6.769-.519 14.333-.847 16.81-.327 2.476-.628 10.014-.669 16.749-.041 6.736-.229 12.498-.419 12.806-.19.307-.314 2.6-.277 5.097.038 2.497-.173 4.839-.468 5.205-.295.367-.674 1.747-.841 3.067-1.45 11.453-1.611 14.125-1.105 18.3.792 6.539.747 9.291-.245 15.064-.552 3.214-.994 11.104-1.175 21.012-.16 8.726-.609 18.901-.999 22.613-.976 9.306.181 8.777-18.244 8.335-8.35-.2-15.315-.635-16.303-1.017-1.09-.421-6.387-.641-14.427-.598-9.19.05-14.176-.193-18.028-.879-10.604-1.887-14.776-1.606-18.145 1.226-1.717 1.443-1.884 1.464-7.39.903-7.704-.785-13.64-1.718-14.844-2.332-1.875-.957-5.381-1.206-6.408-.457-1.233.901-1.028 4.531.296 5.247 5.093 2.758 8.132 3.626 14.544 4.158 7.516.624 11.749 1.237 16.706 2.417 1.818.433 4.522.797 6.01.809 5.7.046 27.013-.926 32.751-1.494 3.58-.354 13.663-.434 24.94-.198 12.856.269 20.702.177 24.452-.287 4.846-.601 5.78-.561 7.628.319 1.888.899 3.056.933 11.305.324 5.059-.374 11.768-.978 14.908-1.343 5.676-.659 21.321-.073 31.43 1.178 2.248.278 6.98.283 10.517.01 10.21-.786 9.134-1.237 9.134 3.826 0 2.608.292 4.675.721 5.103.396.397 1.977.721 3.513.721 4.258 0 4.847-.998 5.391-9.14.249-3.723 1.001-9.876 1.672-13.673.67-3.798 1.398-10.416 1.617-14.709.219-4.292.897-9.966 1.506-12.607.79-3.42 1.217-8.433 1.482-17.41.205-6.934.614-14.904.907-17.71.294-2.807.965-10.236 1.49-16.51.527-6.273 1.222-13.703 1.547-16.509.324-2.807.733-11.722.909-19.812.176-8.089.573-16.599.883-18.911.861-6.426 2.297-22.293 3.014-33.319 1.162-17.853 2.581-35.218 4.538-55.532 2.344-24.324 3.255-32.953 3.593-34.017.203-.64.592-3.648.865-6.686s.91-8.36 1.416-11.827c.506-3.467 1.234-9.681 1.619-13.808.384-4.127.94-9.801 1.234-12.607 1.726-16.465 2.499-37.226 1.676-45.026-.677-6.417-1.143-7.435-3.183-6.943-1.895.458-3.282-.725-3.659-3.12-.194-1.234-.942-4.204-1.662-6.599-1.434-4.767-2.356-5.538-5.07-4.237-2.213 1.06-3.092 5.074-1.8 8.227 2.278 5.564 2.397 15.701.378 32.183-.323 2.642-.832 10.07-1.129 16.51-.298 6.438-.853 12.517-1.234 13.507-.435 1.131-.78 7.721-.927 17.711-.129 8.75-.348 16.989-.485 18.31-.137 1.321-.559 9.831-.938 18.911-.841 20.191-1.615 31.669-2.773 41.124-.485 3.962-1 8.555-1.145 10.206-.145 1.65-.535 4.778-.868 6.95-1.11 7.258-1.86 24.831-1.51 35.412.19 5.757.104 11.549-.192 12.869l-.538 2.402-4.777-.006c-4.619-.006-16.397-.908-28.814-2.207a568.53 568.53 0 0 0-12.32-1.12c-3.47-.27-8.744-.794-11.718-1.164-2.975-.371-8.992-.825-13.372-1.01-6.779-.286-7.976-.482-8.052-1.317-.278-3.039.246-33.735.724-42.405 1.751-31.749 2.879-44.602 4.584-52.23.516-2.311 1.383-7.714 1.926-12.007.781-6.159 1.177-7.783 1.88-7.705.49.055 2.108.36 3.596.68 10.903 2.339 11.905 2.418 34.646 2.739 28.107.397 30.861.223 33.362-2.111 1.85-1.726 2.052-3.191.829-6.04-.348-.812.146-1.316 2.319-2.371 3.222-1.564 3.592-3.113 1.266-5.296-1.412-1.326-1.67-1.363-4.657-.689-6.218 1.405-14.192 1.809-28.102 1.425-13.944-.385-19.159-.432-29.747-.267-2.975.047-9.466.023-14.423-.052l-9.015-.137-.184-2.537c-.102-1.395.083-3.014.41-3.596.648-1.152.553-1.271 1.558 1.944.19.607 1.08.9 2.735.9 2.225 0 2.533-.191 3.313-2.054.702-1.678.76-3.632.317-10.656-.312-4.926-.321-10.569-.024-13.204.286-2.531.561-8.88.613-14.108.102-10.351.744-23.367 1.799-36.522 1.701-21.198 1.695-20.884.375-22.363l-1.206-1.35h8.245c8.125 0 19.751 1.397 21.246 2.553.404.313.908 1.49 1.12 2.615.279 1.49.773 2.144 1.817 2.406 2.2.552 3.105-.087 3.905-2.753.535-1.785 1.132-2.547 2.205-2.816 1.833-.46 21.059.088 21.587.615.212.212-.202 1.01-.919 1.773-1.668 1.774-1.647 2.88.086 4.507 1.56 1.464 2.828 1.654 3.898.585.873-.872.959-4.465.12-4.983-1.323-.817-.468-1.5 1.878-1.5 1.374 0 4.025.693 5.948 1.554 4.295 1.926 5.996 1.402 5.996-1.846 0-1.613-.416-2.36-1.953-3.507-2.577-1.924-11.348-2.825-32.902-3.38-12.174-.312-16.976-.664-20.388-1.49-3.201-.776-5.75-.991-9.014-.761-2.53.177-6.955-.036-9.961-.48-2.974-.44-8.248-.975-11.718-1.19-3.471-.213-9.015-.788-12.32-1.275a56.948 56.948 0 0 0-12.019-.51c-3.305.207-9.525.057-13.822-.334-9.211-.838-12.923-.993-33.653-1.404-8.594-.17-16.572-.11-17.729.136zm341.809 9.533c-1.71 1.95-.681 26.761 1.397 33.669.145.483-.587 1.077-1.851 1.5-2.605.875-3.8 3.479-2.289 4.988.889.888 1.32.86 5.326-.356 5.241-1.59 16.112-2.338 19.223-1.322 5.586 1.824 16.503 3.095 26.615 3.099 11.176.003 16.808.64 18.4 2.08 1.714 1.549 3.835 1.141 5.089-.979.958-1.62 1.116-3.131 1.083-10.356-.033-7.276-.22-8.877-1.333-11.453-2.022-4.68-9.626-11.03-13.281-11.089-.853-.014-2.854-.684-4.447-1.49-3.392-1.716-20.006-4.524-26.916-4.55-1.729-.007-5.036-.288-7.35-.624-2.314-.337-6.487-.7-9.274-.805-4.644-.176-5.172-.324-6.332-1.777-1.471-1.842-2.763-2.013-4.06-.535zM342.147 1372.86c5.445 2.13 7.416 2.26 19.216 1.28 4.379-.37 11.246-.48 15.625-.25l7.812.4-.194 2.1c-.107 1.15-.602 3.53-1.099 5.27-.557 1.95-.856 5.17-.779 8.4.113 4.72-.533 11.12-2.514 24.9l-.668 4.65h-2.511c-1.381 0-2.768.24-3.082.54-.991.93-10.191-.59-18.041-2.98-1.015-.31-3.098-.56-4.629-.56-4.698 0-6.129-1.22-7.879-6.75-.453-1.43-2.501-1.32-4.04.21-1.148 1.15-1.228 1.68-.85 5.71.285 3.04.211 4.43-.236 4.43-.359 0-.653.54-.653 1.21 0 1.55-1.168 1.5-5.709-.26l-3.605-1.39.109-3.23c.06-1.78.441-5.86.848-9.08.568-4.5.576-6.21.034-7.4-.838-1.84-1.118-26.5-.31-27.28.731-.7 4.382-1.68 6.544-1.74.999-.03 3.974.79 6.611 1.82zm52.376 6.98c-.191 2.56-.625 8.44-.963 13.06-1.171 16.01-1.796 23.42-2.076 24.61-.155.66-.302 1.54-.327 1.95-.057.93-2.826 1-3.388.1-.476-.77-.426-17.06.07-22.76.187-2.15.769-5.93 1.291-8.4.523-2.48 1.134-5.96 1.357-7.74.292-2.34.791-3.55 1.783-4.36 2.342-1.89 2.626-1.45 2.253 3.54zM226.494 38.16c-.412.412-.749 1.882-.749 3.266 0 2.594.617 3.246 3.069 3.246 1.735 0 3.025-3.997 1.874-5.806-.702-1.101-3.351-1.547-4.194-.706zm-33.773 2.58c-1.592 1.692-1.355 2.83.897 4.303 1.515.993 1.689.99 3.638-.06 1.58-.85 2.047-1.484 2.047-2.785 0-3.065-4.197-3.995-6.582-1.459zm253.274.712c3.685.553 4.094 1.13 3.64 5.135-.636 5.622-4.337 12.494-6.728 12.494-.994 0-4.071-4.525-4.901-7.205-.544-1.759-1.927-9.762-1.927-11.153 0-.397 4.725-.05 9.916.729zm20.063 1.462c4.363.707 10.841 2.339 11.787 2.97.331.22 2.445 1.125 4.699 2.01 3.866 1.518 6.959 3.994 7.001 5.606.018.711-1.535 1.099-6.291 1.57-3.02.3-5.709-.973-5.709-2.702 0-1.703-2.795-5.294-4.12-5.294-1.813 0-4.634 3.677-7.483 9.755-2.408 5.138-2.929 5.854-4.263 5.854-.916 0-1.781-.489-2.178-1.229-1.742-3.252-2.976-17.836-1.585-18.72.981-.625 3.52-.568 8.142.18zM41.715 1382.75c-.497 1.3-.18 1.59 1.461 1.34 1.319-.2 1.32-.2.126-1.27-1.112-1-1.226-1.01-1.587-.07zm-10.393 1.14-1.686 1.5 2.704-.39c2.64-.38 3.828-1.16 3.23-2.13-.58-.94-2.588-.45-4.248 1.02zM253.395 46.454c-.637 1.929-.642 2.557-.023 3.302 1.75 2.107 6.026.264 6.026-2.596 0-2.154-1.006-3.088-3.329-3.088-1.666 0-1.979.28-2.674 2.382zm-42.874-.781c-.788.787-.395 3.676.55 4.038 1.817.697 4.489.38 4.856-.576.674-1.752-1.023-3.862-3.104-3.862-1.046 0-2.082.18-2.302.4zm28.846 4.203c-.821.82-.362 3.65.756 4.662 1.839 1.662 3.274.98 3.724-1.768.252-1.536.147-2.552-.291-2.836-.858-.553-3.655-.593-4.189-.058zm320.911.585c-.109.09-9.68.768-11.273.798-1.189.021-2.508 2.778-2.038 4.258.193.605.892 1.273 1.554 1.483.663.21 2.014 1.507 3.003 2.882 3.623 5.036 10.087 8.67 16.308 9.167 6.397.512 6.459.428 6.678-8.916.169-7.253.109-7.71-1.164-8.906-1.209-1.134-1.92-1.239-7.154-1.055-3.196.112-5.857.242-5.914.289zm-336.216 2.736c-.397.396-.721 1.423-.721 2.281 0 2.93 3.04 4.084 5.015 1.904 1.987-2.193.875-4.905-2.01-4.905-.86 0-1.887.324-2.284.72zm-15.344 3.883c-1.007 1.005-.285 3.692 1.473 5.489 2.133 2.178 3.809 2.447 4.715.754 1.012-1.89.717-3.945-.768-5.339-1.326-1.244-4.543-1.78-5.42-.904zm358.722 1.766c.398 2.12-.225 3.202-1.855 3.227-.915.014-4.02-4.124-3.602-4.8.202-.327 1.421-.594 2.709-.594 2.213 0 2.363.118 2.748 2.167zm-314.502.64c-1.596 1.112-1.853 4.077-.401 4.633 1.756.674 3.663.373 4.668-.737.823-.908.881-1.435.335-3.002-.751-2.15-2.353-2.462-4.602-.895zm221.903 1.08c2.76 1.698 5.663 1.903 9.217.65 2.619-.923 6.468-.65 6.882.489.135.373.118 1.72-.038 2.994l-.283 2.316-5.185-.497c-2.851-.273-7.484-.505-10.293-.515l-5.108-.019.157-2.97c.136-2.56.8-3.898 1.946-3.921.166-.003 1.383.66 2.705 1.473zm-279.887.466c-.535.413-1.06 1.56-1.167 2.551-.178 1.66-.031 1.817 1.884 1.999 1.458.138 2.308-.12 2.854-.865 1.24-1.695.963-3.646-.575-4.057-1.832-.491-1.887-.484-2.996.372zm41.728 1.77c-2.071 2.07.556 5.014 3.545 3.973 3.016-1.051 2.037-4.693-1.261-4.693-.86 0-1.887.325-2.284.72zm-13.792 1.7c-1.48.595-1.66 1.497-.766 3.845.683 1.794 2.63 2.046 4.689.605 1.706-1.194 1.706-2.94 0-4.134-1.501-1.05-1.994-1.09-3.923-.316zm48.735 10.434c-.192.63-.429 4.547-.525 8.705-.203 8.764-1.279 23.362-2.106 28.57-.315 1.981-.574 4.987-.577 6.681-.003 2.135-.31 3.33-1.004 3.902-.927.764-.964.177-.518-8.181.264-4.953.571-9.951.682-11.107.112-1.156.468-6.777.79-12.493.324-5.715.722-10.848.886-11.406.164-.558.469-3.71.678-7.002.208-3.293.558-6.264.778-6.604.523-.809 1.37 7.446.916 8.935zM45.951 1409.69c-.562 1.46-.528 1.52.962 1.53 1.738.01 2.969.8 2.737 1.74-.1.41.764 1.07 1.92 1.46 1.376.47 2.049 1.05 1.946 1.68-.186 1.12 3.339 2.08 4.257 1.16 1.056-1.05-.093-2.61-1.702-2.3-1.382.26-1.495.11-1.495-2.01 0-2.7-.793-3.29-5.215-3.87-2.516-.34-3.085-.23-3.41.61zM250.268 70.637c-2.082 1.651-1.441 5.716.791 5.014.455-.144 1.553-.42 2.44-.613 2.078-.453 2.754-2.447 1.353-3.994-1.2-1.325-3.202-1.502-4.584-.407zM60.042 1411.29c1.267 1.78 1.387 1.82 2.152.78.71-.97.643-1.2-.55-1.87-2.44-1.35-3.047-.94-1.602 1.09zM208.556 71.33c-.178.464-.237 1.737-.131 2.829.149 1.537.531 2.07 1.695 2.364 2.427.613 3.606-.363 3.606-2.986 0-1.888-.247-2.376-1.353-2.672-2.198-.588-3.472-.433-3.817.466zM65.393 1412.95c0 .67.563 1.52 1.251 1.89 1.016.54 1.407.46 2.083-.43 1.179-1.56.77-2.27-1.427-2.49-1.577-.15-1.907.02-1.907 1.03zM222.74 74.737c0 2.185 1.174 4.755 2.171 4.755.428 0 1.466-.313 2.308-.697 2.973-1.353 1.357-4.429-2.826-5.38-1.502-.34-1.653-.22-1.653 1.322zm-29.297-.25c-.412.166-.751 1.208-.751 2.313 0 2.374 1.415 3.117 3.837 2.014 1.238-.563 1.572-1.14 1.572-2.72 0-1.871-.13-2.002-1.953-1.957-1.074.025-2.291.183-2.705.35zm43.589 1.15c-.897 1.967-.041 3.484 2.11 3.742 1.206.144 1.746-.195 2.387-1.501 1.27-2.582.722-3.789-1.719-3.789-1.644 0-2.218.32-2.778 1.548zm13.624 7.845c-2.329 2.51-1.959 3.668 1.328 4.161 2.328.349 2.938.234 3.606-.678 1.067-1.458 1.016-2.973-.141-4.128-1.389-1.387-3.125-1.153-4.793.645zm215.17 1.287c-3.435.496-3.772.726-4.172 2.854-.221 1.176-.805 2.293-1.298 2.482-.493.19-7.442-.009-15.441-.44-20.611-1.11-20.855-1.089-20.855 1.832 0 2.32 1.452 3.189 7.512 4.492 2.644.568 8.188 2.059 12.319 3.312 12.738 3.864 13.967 4.014 44.171 5.399 7.963.365 14.654.975 16.826 1.532 4.813 1.235 13.804 1.223 15.706-.022.782-.512 1.422-1.445 1.422-2.073 0-1.214 2.632-3.633 3.953-3.633.885 0 2.744-2.375 2.354-3.006-.14-.225 1.528-.384 3.706-.353 3.687.053 4.046-.06 5.236-1.659l1.277-1.717-1.454-.984c-2.029-1.375-14.516-5.94-19.58-7.157-3.564-.858-7.735-1.013-27.343-1.022-12.725-.006-23.678.067-24.339.163zm-230.832 2.274c-.798 3.176 2.508 6.482 5.098 5.097 2.928-1.565.698-6.644-2.918-6.644-1.423 0-1.871.317-2.18 1.547zm-11.963 2.885c-.541.826-.896 2.125-.788 2.887.168 1.182.547 1.386 2.586 1.386 2.076 0 2.467-.221 2.982-1.683 1.208-3.43-2.802-5.605-4.78-2.59zM193.093 91.9c-.221.22-.401 1.156-.401 2.08 0 3.166 4.596 4.015 5.638 1.041.873-2.491.138-3.522-2.514-3.522-1.278 0-2.503.18-2.723.4zm321.837.562c3.401.528 6.452 1.215 6.78 1.525.889.841-.819 1.695-3.414 1.706-2.126.008-2.225.101-2.404 2.26-.215 2.598.295 2.52-9.201 1.403-3.305-.388-13.04-.943-21.634-1.23-8.594-.288-16.931-.721-18.526-.962-2.57-.388-2.863-.582-2.563-1.7.187-.695.343-1.73.347-2.303.008-.952 1.216-1.054 14.282-1.212 7.85-.095 17.844-.235 22.211-.311 4.995-.087 10.231.218 14.122.824zM388.7 1431.91c.408.49.572 1.34.364 1.88-.208.54-.088 1.33.267 1.76.98 1.18-.907.75-2.323-.53-.635-.58-1.393-1-1.682-.95-.289.05-1.015.06-1.613.02-1.396-.09-.701-1.27.749-1.27.601 0 1.429-.4 1.841-.9.94-1.13 1.462-1.13 2.397-.01zM204.785 93.512c-1.505 1.811 1.182 6.992 3.625 6.992 1.412 0 2.044-2.509 1.345-5.335-.456-1.843-.815-2.196-2.391-2.35-1.084-.105-2.155.182-2.579.693zM378.49 1432.82c-1.176.76-2.403.76-2.403 0 0-.33.743-.59 1.652-.59 1.288.01 1.454.14.751.59zM236.304 96.045c-1.497 1.495-1.205 5.301.558 7.277l1.503 1.685 1.502-1.685c1.878-2.104 2.015-5.308.301-7.02-1.447-1.446-2.598-1.522-3.864-.258zm13.88.657c-.834.833-.407 4.438.571 4.813 1.323.507 3.866-.471 4.674-1.799.54-.885.399-1.305-.755-2.251-1.401-1.148-3.711-1.54-4.49-.763zM369.596 1437.74c-.977.98-.911 2.29.116 2.29.788 0 1.567-1.22 1.567-2.45 0-.77-.826-.69-1.683.16zM204.78 106.287c-2.189 1.532-1.328 5.024 1.24 5.024 1.282 0 3.078-2.538 2.798-3.955-.303-1.53-2.535-2.121-4.038-1.069zm-15.202 1.722c-.512 1.122-.512 1.879 0 3.001.561 1.229 1.111 1.501 3.037 1.501 2.492 0 3.082-.644 3.082-3.366 0-1.022-.468-1.644-1.541-2.052-2.518-.956-3.845-.691-4.578.916zm30.992-.644c-.536 1.397-.006 3.478 1.058 4.143 1.58.99 4.117-.99 4.117-3.213 0-1.687-.136-1.787-2.423-1.787-1.544 0-2.542.311-2.752.857zm28.635 4.523c-2.001 1.999-.586 4.2 2.711 4.216 2.038.011 3.276-.912 3.276-2.439 0-2.336-4.184-3.578-5.987-1.777zm-59.367 1.942c-1.499.738-1.858 3.339-.631 4.565 1.174 1.173 4.554.89 5.267-.441.861-1.606.781-4.24-.129-4.25-.413-.005-1.292-.128-1.953-.275-.661-.146-1.811.034-2.554.401zm44.499.032c-1.652 2.178-2.543 8.751-1.231 9.083.414.105 1.691.501 2.839.88 1.837.607 2.235.544 3.306-.525 1.674-1.673 1.718-7.108.072-8.925-1.263-1.394-4.096-1.686-4.986-.513zm-16.979 4.51c-1.091.883-1.209 1.318-.712 2.623 1.046 2.748 4.985 2.565 6.061-.28 1.143-3.023-2.523-4.629-5.349-2.343zm29.009 4.467c-1.553 1.715-.434 4.325 1.955 4.56 2.53.249 4.321-1.702 3.406-3.709-.87-1.908-3.959-2.399-5.361-.851zm-42.407 3.347c-1.516.195-1.653.429-1.653 2.81 0 2.926.733 3.511 3.665 2.925 2.09-.418 2.642-1.334 2.102-3.484-.444-1.768-1.857-2.541-4.114-2.251zm267.969 7.835c-.547.604-.995 1.964-.995 3.023 0 1.058-.402 2.538-.893 3.287-.687 1.046-.852 2.905-.715 8.013.098 3.658-.008 9.721-.234 13.475-.321 5.313-.226 7.19.429 8.476.961 1.882 1.785 2.044 3.678.72 1.058-.74 1.783-.805 3.548-.318 2.01.554 2.592.407 6.166-1.555 9.93-5.452 12.525-6.738 14.835-7.351 3.512-.93 5.638-2.762 5.638-4.857 0-1.179-.37-1.834-1.179-2.091-.648-.206-2.822-2.182-4.831-4.393-2.007-2.21-4.414-4.559-5.346-5.22-.934-.66-3.753-2.821-6.266-4.803-5.981-4.713-10.341-7.504-11.725-7.504-.614 0-1.563.494-2.11 1.098zm-264.552 9.645c.463.749-1.133 1.264-3.917 1.264-1.692 0-2.354-.253-2.354-.901 0-.679.73-.9 2.969-.9 1.633 0 3.119.242 3.302.537zm42.406-.012c0 1.194-9.655 1.768-13.897.826-1.468-.326-.036-.542 5.183-.78 3.966-.181 7.55-.384 7.963-.45.413-.066.751.116.751.404zm-77.026 1.799c.66.419.663 1.114.014 4.044-.431 1.946-.801 6.644-.821 10.442-.026 4.706-.353 7.859-1.027 9.905-.632 1.917-1.109 6.04-1.317 11.407-.18 4.623-.58 11.917-.889 16.209-.309 4.293-.59 12.635-.626 18.539-.035 5.904-.26 11.037-.501 11.406-.241.37-.574 8.585-.739 18.255-.327 19.132-.242 18.71-3.792 18.73l-1.689.009.369-14.859c.203-8.172.619-18.116.925-22.098.527-6.862 2.581-20.738 3.223-21.776.546-.883 1.619-15.706 1.89-26.13.147-5.66.656-12.318 1.132-14.795.476-2.476 1.032-7.069 1.236-10.205.425-6.552.882-9.61 1.43-9.597.212.005.743.237 1.182.514zm246.285 28.896c-.876 1.04-1.593 2.112-1.593 2.383 0 .933 4.251 4.219 5.457 4.219 1.042 0 1.157.273.836 1.983-.353 1.88-.206 2.089 2.827 4.008l3.2 2.023 12.62-.185c26.998-.395 24.285-.154 26.22-2.318 2.005-2.242 3.127-2.343 10.908-.983 2.903.507 5.486.794 5.74.636.255-.157 4.347.104 9.095.579 5.201.52 13.431.803 20.702.712 6.638-.084 15.495.077 19.68.356 7.543.503 7.617.495 8.342-.858.602-1.124.548-1.705-.305-3.288-.57-1.058-1.725-2.237-2.565-2.619-.975-.444-7.095-.792-16.921-.962-15.627-.271-29.304-.754-33.12-1.171-1.157-.127-4.808-.537-8.113-.913-6.36-.724-11.825-1.079-21.634-1.409-3.396-.114-7.578-.665-9.616-1.266-2.062-.609-7.464-1.313-12.62-1.646-4.958-.319-10.934-.714-13.28-.877-4.198-.291-4.292-.265-5.86 1.596zm-30.209 8.734c.205.534.104.775-.236.565-.327-.202-.594-.621-.594-.932 0-.863.431-.673.83.367zm.035 9.645c.217.865.232 1.735.032 1.934-.487.487-1.478-1.146-1.489-2.455-.014-1.614 1.013-1.246 1.457.521zm-268.022 10.255a790.608 790.608 0 0 0-11.086 1.662c-3.14.497-8.548 1.025-12.019 1.174-21.046.903-27.043 2.244-27.043 6.05 0 .723.473 1.726 1.052 2.229 1.617 1.405 8.924 1.746 15.341.716 3.048-.489 8.787-1.14 12.754-1.445 8.173-.63 15.679-1.518 23.136-2.739 3.075-.503 7.494-.728 11.1-.566 7.187.323 8.732-.314 8.732-3.599 0-3.392-1.897-4.198-9.922-4.22-3.668-.01-9.087.322-12.045.738zm311.026 9.782c2.479.299 8.564.724 13.522.945 5.378.239 11.075.874 14.122 1.574 2.81.645 6.563 1.416 8.34 1.712 1.777.295 3.903.977 4.724 1.515 1.474.964 1.488 1.053 1.07 6.773-.233 3.188-.702 7.146-1.043 8.797-.989 4.789-1.6 9.147-2.245 15.998-.331 3.517-1.027 8.785-1.548 11.707-.52 2.923-1.322 8.151-1.782 11.618-.461 3.467-1.119 7.914-1.462 9.882-.342 1.968-.593 5.786-.556 8.486.036 2.699-.167 5.277-.452 5.727-.747 1.179-1.385 7.321-1.815 17.479l-.375 8.855h-3.405c-1.873 0-7.18-.666-11.794-1.479-12.127-2.138-28.164-3.395-41.743-3.27-13.033.119-17.429.016-18.146-.427-.805-.496-.491-16.277.469-23.641.495-3.797 1.16-10.01 1.477-13.808.316-3.797.712-7.849.878-9.005 1.441-10.012 3.149-33.766 3.625-50.429l.231-8.104 5.583.16c3.234.094 7.1-.189 9.189-.671 4.189-.969 16.62-1.18 23.136-.394zM97.742 217.6c-5.124.227-9.536.449-9.806.493-1.055.17-.027 3.324 1.438 4.412 2.438 1.81 5.542 2.241 16.237 2.256 9.241.014 10.053-.074 11.068-1.193 1.435-1.585 1.423-4.725-.022-5.781-1.199-.876-3.005-.894-18.916-.187zm396.329 3.867c11.417 1.234 16.956 2.151 18.117 2.999.948.693.908.87-.526 2.302-1.412 1.411-1.953 1.543-5.966 1.452-4.862-.11-7.63.937-11.537 4.364-1.128.989-2.227 1.797-2.444 1.797-.759 0-5 4.563-5.881 6.326-.488.979-1.49 3.805-2.226 6.282-1.427 4.801-3.63 9.605-4.405 9.605-.258 0-.326-1.012-.15-2.251 1.159-8.157 2.691-23.302 2.694-26.64.003-2.188.179-4.848.392-5.911.359-1.795.521-1.907 2.253-1.552 1.027.21 5.382.763 9.679 1.227zm-93.123 3.759c.8 4.738.85 4.79 3.542 3.767 2.995-1.137 1.271-6.018-2.126-6.018-1.742 0-1.785.067-1.416 2.251zm153.97-.936c7.169.705 9.957 1.687 4.792 1.687-3.721 0-12.519-1.173-13.618-1.816-1.315-.769-.117-.751 8.826.129zm-137.619 2.328c-1.595.841-2.253 1.587-2.253 2.555 0 2.903 2.898 3.708 5.627 1.563 1.88-1.477 2.091-3.846.422-4.738-1.416-.757-1.082-.811-3.796.62zm19.982.162c-2.477.648-2.694.855-2.577 2.46.07.963.528 2.152 1.018 2.64.779.779 1.172.782 3.16.026 1.739-.661 2.404-1.328 2.841-2.848.439-1.53.374-2.108-.284-2.524-1.001-.632-.736-.648-4.158.246zm16.56 4.133c-2.047 2.919-.217 6.392 3.042 5.774 1.228-.233 1.814-3.101 1.164-5.69-.469-1.865-2.923-1.914-4.206-.084zm92.868 1.113c.526.272 4.118.683 7.982.913 3.865.232 7.165.643 7.333.915.62 1.002.815 19.366.213 20.09-.449.541-1.127.562-2.683.086-2.372-.728-2.604-1.317-.88-2.239 1.01-.54 1.202-1.257 1.202-4.495 0-4.998-.786-6.614-3.803-7.821-1.341-.535-3.171-1.496-4.068-2.133-.896-.638-2.228-1.159-2.961-1.159-1.338 0-8.044-3.744-8.75-4.885-.428-.691 4.819-.095 6.415.728zm32.36 1.719c.737.467.753 1.274.108 5.544-.414 2.749-.967 6.65-1.228 8.669-.26 2.018-.639 3.937-.841 4.265-.203.327-.787 4.889-1.299 10.137-.511 5.249-1.082 10.286-1.267 11.194-.419 2.043-1.445 2.177-1.445.189 0-.804-.256-2.133-.568-2.953-.312-.821-.627-9.198-.701-18.618-.103-13.25.043-17.338.641-18.059.856-1.029 5.172-1.27 6.6-.368zm-52.38 3.372c1.738 1.215 1.689 2.303-.166 3.761-2.196 1.725-1.914 3.437.882 5.366 2.24 1.546 3.529 3.443 2.82 4.15-.173.173-1.698.017-3.39-.345-1.691-.362-6.048-.659-9.681-.659-7.852 0-9.107.507-14.97 6.041-2.148 2.029-4.656 4.223-5.573 4.878-2.743 1.959-4.182 5.56-5.113 12.795-1.442 11.222-1.52 13.891-.494 16.898.518 1.52.796 3 .617 3.288-.179.289-.07.526.241.526.685 0 1.364 2.295.786 2.653-.836.515-3.155-2.662-4.42-6.055-1.133-3.039-1.297-4.655-1.246-12.207.056-8.19.169-8.999 1.921-13.674 5.159-13.767 11.327-23.123 17.065-25.884 4.749-2.285 18.222-3.281 20.721-1.532zm16.74 2.305c1.696.557 3.564 1.542 4.15 2.188.585.647 1.418 1.176 1.849 1.176 1.628 0 5.01 2.132 5.024 3.168.014.986-.117.998-1.75.154-.97-.501-1.913-1.152-2.095-1.446-.182-.294-1.866-.727-3.744-.961-1.885-.235-4.144-.966-5.048-1.633-1.826-1.349-3.582-4.439-2.241-3.943.424.156 2.159.74 3.855 1.297zm-137.278 2.884c-1.757 1.755.038 5.283 2.689 5.283 1.388 0 3.201-1.759 3.201-3.106 0-2.266-4.233-3.832-5.89-2.177zm20.763 2.329c-.748.436-1.051 1.371-1.051 3.242v2.63l1.911-.548c2.304-.66 2.875-1.455 2.887-4.021.008-1.631-.212-1.948-1.343-1.933-.744.01-1.825.294-2.404.63zm17.581 2.95c-1.578 2.944.455 5.612 3.292 4.321 1.363-.621 1.559-1.036 1.399-2.97-.169-2.04-.363-2.264-2.1-2.432-1.447-.141-2.078.123-2.591 1.081zm102.075 5.557c4.793 3.112 4.864 3.194 5.538 6.454.375 1.816 1.601 4.982 2.723 7.035 1.122 2.053 2.04 4.263 2.04 4.91 0 .647.45 1.626 1 2.176 1.532 1.53 2.168 6.742 1.086 8.906-.486.975-.884 2.41-.884 3.189 0 1.513-3.625 10.936-5.018 13.044-.805 1.218-7.001 4.944-7.001 4.21 0-.198.51-1.077 1.133-1.954.623-.876 1.556-2.606 2.073-3.844.516-1.238 1.2-2.252 1.517-2.252.319 0 2.066-3.039 3.884-6.754l3.304-6.753-.894-3.903c-.492-2.146-.886-4.424-.877-5.062.01-.638-.911-2.187-2.045-3.442-1.135-1.254-2.907-3.773-3.937-5.597-1.646-2.914-8.427-9.912-9.605-9.912-.674 0-1.165-1.701-.78-2.702.553-1.44 1.59-1.094 6.743 2.251zm-455.422 6.196-2.936 2.743.018 14.539c.01 8.231.317 16.203.708 18.376.634 3.522.839 3.878 2.493 4.332 2.266.621 4.284.167 6.684-1.504 7.347-5.118 9.7-7.038 15.704-12.812 5.839-5.617 6.763-6.766 6.761-8.415-.002-1.438-.45-2.229-1.814-3.2-.997-.709-2.203-2.044-2.681-2.967-.6-1.159-2.471-2.482-6.054-4.28-5.214-2.616-6.881-4.096-6.881-6.107 0-1.135-2.18-2.289-3.428-1.815-.398.15-1.337-.155-2.087-.68-2.131-1.491-3.33-1.161-6.487 1.79zm303.474 1.274c.014 2.446.767 3.279 3.064 3.389 1.99.095 2.035.044 2.035-2.304 0-2.396-.006-2.402-2.554-2.585-2.444-.178-2.553-.113-2.545 1.5zm130.098.785c1.297.66 2.969 1.201 3.716 1.201 3.286 0 7.768 2.793 11.367 7.083 1.95 2.326 4.193 5.263 4.982 6.528 1.882 3.014 2.34 6.895 1.045 8.869-.538.82-.988 2.379-.999 3.464-.014 1.393-.868 3.117-2.908 5.874-2.459 3.325-3.367 4.075-6.138 5.069-1.789.641-4.199 1.256-5.356 1.366-1.157.109-3.456.433-5.108.72-5.671.983-12.721-.805-16.226-4.117-.992-.936-2.749-2.175-3.906-2.753-8.858-4.422-9.617-9.032-3.583-21.765 3.76-7.933 4.881-9.452 8.291-11.226 3.777-1.964 11.27-2.122 14.823-.313zm-112.627.838c-1.892 2.277 1.195 5.736 4.402 4.932 1.483-.372 1.607-.624 1.439-2.938-.182-2.498-.217-2.534-2.64-2.712-1.626-.119-2.708.124-3.201.718zm22.371.234c-.682.433-1.991 3.263-1.991 4.305 0 .751 4.4 1.144 5.259.469.956-.751.974-3.581.03-4.525-.816-.815-2.238-.922-3.298-.249zm20.079 2.08c-1.174.884-2.959 4.933-2.415 5.477.521.519 4.536.457 5.341-.083 1.011-.68 1.551-4.395.774-5.33-.846-1.018-2.398-1.045-3.7-.064zm-290.617 7.111c1.121.797 1.659 1.621 1.47 2.251-.163.547-.724 4.641-1.245 9.099-1.157 9.895-1.829 12.607-3.123 12.607-.868 0-.926-1.092-.558-10.656.399-10.365.801-14.559 1.397-14.559.16 0 1.087.566 2.059 1.258zm30.364 1.702c5.341.617 10.151 1.368 10.689 1.669.828.463 1.013 2.093 1.202 10.644l.224 10.097-12.415-.47c-6.828-.259-13.497-.537-14.819-.619-1.322-.081-4.265-.175-6.539-.207l-4.134-.06.345-2.852c.19-1.568.674-6.228 1.076-10.356.518-5.32.998-7.722 1.651-8.254 1.344-1.097 11.237-.919 22.72.408zm40.469 3.397c8.892.815 11.835 1.17 14.893 1.799 1.277.262 1.366.564 1.281 4.318-.05 2.22-.343 5.792-.651 7.938-.504 3.513-.841 4.189-3.384 6.785-2.807 2.866-2.843 2.881-5.829 2.481-1.653-.222-4.459-.944-6.237-1.604-2.714-1.01-3.592-1.094-5.478-.53-3.299.987-6.757.824-10.347-.49-1.748-.639-3.854-1.253-4.68-1.364-.979-.133-1.419-.512-1.262-1.09.132-.488.368-4.995.523-10.017l.282-9.132 5.788.027c3.182.014 9.978.41 15.101.879zm-53.936 3.646c-.441.178-.751 1.395-.751 2.954v2.652l2.554.009c1.405.004 3.163.171 3.906.369 1.208.324 1.353.145 1.353-1.675 0-3.09-1.428-4.716-4.091-4.659-1.221.026-2.557.184-2.971.35zm239.18 1.387c-1.699 2.718 1.813 5.542 5.056 4.066 3.319-1.512 1.789-5.25-2.149-5.25-1.506 0-2.393.362-2.907 1.184zm22.129.398c-2.479 3.149-.973 5.619 2.841 4.66 1.961-.492 2.209-.76 2.1-2.272-.132-1.852-1.696-3.97-2.93-3.97-.421 0-1.326.712-2.011 1.582zm-209.541 1.182c-.498 1.189-.822 2.878-.72 3.752.162 1.401.481 1.61 2.702 1.772 2.142.155 2.669-.046 3.522-1.347 1.339-2.041.716-4.278-1.512-5.429-2.531-1.308-2.98-1.167-3.992 1.252zm168.138-1.642c-.556.353-.671 1.159-.383 2.693.467 2.49 1.724 2.855 3.864 1.123 1.172-.947 1.235-1.247.572-2.702-.757-1.658-2.456-2.125-4.053-1.114zm-298.892 2.93c-.248 1.307-3.495 1.856-3.495.591 0-1.205.598-1.641 2.248-1.641 1.053 0 1.392.286 1.247 1.05zm377.511 14.227c0 .728.705 1.978 1.568 2.779.863.8 2.441 2.806 3.507 4.457 4.329 6.703 9.243 11.02 13.554 11.906.827.169 3.531.881 6.01 1.581 2.479.7 7.617 1.954 11.418 2.787 13.791 3.022 29.027 1.405 37.843-4.013 2.94-1.808 4.615-2.271 3.873-1.073-.232.375-.641 2.334-.909 4.352-1.762 13.273-1.297 12.615-8.601 12.141-3.335-.217-9.174-.783-12.975-1.259a3027.142 3027.142 0 0 0-15.024-1.827c-4.462-.53-9.871-1.365-12.019-1.856-6.575-1.504-13.818-2.641-20.433-3.206-3.47-.297-7.185-.727-8.256-.955-1.756-.375-1.903-.569-1.507-1.992.498-1.79.456-14.424-.07-21.208-.193-2.484-.18-4.686.029-4.895.648-.648 1.992.891 1.992 2.281zm-66.385-.291c-1.321 1.457-.898 2.699 1.301 3.82 1.955.998 5.532.652 6.006-.581.176-.46-.013-1.642-.421-2.627-.659-1.587-1.031-1.79-3.281-1.79-1.759 0-2.866.362-3.605 1.178zm41.379.879c-.182.471-.24 1.485-.132 2.251.156 1.098.632 1.436 2.238 1.59 1.229.117 2.24-.122 2.541-.601.581-.924.065-2.998-.906-3.637-1.134-.746-3.394-.506-3.741.397zm-247.828 2.342c3.14.162 6.926.721 8.414 1.241 1.944.681 5.004.949 10.894.955 6.18.006 8.76.247 10.516.982 1.759.736 3.476.896 7.028.655 4.228-.288 4.655-.22 4.248.677-.605 1.328-.809 5.942-1.053 23.69-.14 10.161-.424 15.108-.895 15.579-.52.519-.691.45-.691-.282 0-.534-.402-1.737-.894-2.672-.492-.934-1.74-3.807-2.773-6.384-1.035-2.576-2.931-6.081-4.215-7.788-2.434-3.237-2.806-4.526-1.64-5.69 1.298-1.297-.945-5.64-3.844-7.439-8.186-5.078-15.402-7.633-22.877-8.097-4.788-.298-6.216-.14-10.725 1.183-4.77 1.399-15.219 6.165-20.339 9.276-2.105 1.28-3.81 3.267-9.746 11.357-1.746 2.38-3.377 4.338-3.625 4.353-.718.041-.523-4.688.394-9.58 1.039-5.542 1.366-7.967 1.898-14.108.229-2.642.789-5.718 1.245-6.837l.828-2.035 16.072.334c8.839.183 18.64.467 21.78.63zm192.651-.003c-1.123.82-1.118.887.223 3.055 1.434 2.318 2.738 2.601 3.851.835.9-1.427-.206-4.336-1.731-4.557-.657-.095-1.711.205-2.343.667zm33.702.304c-2.243 2.475-.468 4.906 2.955 4.047 1.184-.296 1.459-.747 1.459-2.391 0-2.829-2.501-3.768-4.414-1.656zm-271.546 1.064c.318.569.315 1.981-.008 3.452-.506 2.309-.803 4.212-.995 6.363-.047.532-.281.649-.602.3-.649-.706-.115-11.076.57-11.076.273 0 .738.432 1.035.961zm339.879 3.541c.386 1.007.287 1.057-1.07.536-1.174-.45-1.252-1.436-.114-1.436.461 0 .993.405 1.184.9zm10.256 3.376c5.239 1.571 7.178 2.303 6.88 2.601-.685.684-12.546-2.452-12.546-3.318 0-.819.946-.699 5.666.717zm-40.634 6.085c.214 4.896.099 5.732-.972 7.052-.669.823-1.349 1.362-1.512 1.197-.163-.165-.024-2.731.309-5.703.333-2.972.564-6.348.516-7.503-.072-1.682.06-1.951.663-1.348.453.452.849 2.965.996 6.305zm53.297-2.557c.217.35-.394.6-1.467.6-1.011 0-1.838-.27-1.838-.6 0-.33.659-.6 1.467-.6.807 0 1.634.27 1.838.6zm-364.714 6.448c-.341 4.858-1.727 10.481-2.392 9.704-.114-.133.214-3.805.729-8.158 1.082-9.148 2.277-10.258 1.663-1.546zm45.815-1.901c2.367 1.18 2.488 3.051.393 6.13-.827 1.215-1.503 2.789-1.503 3.497 0 1.934-1.062 2.443-6.009 2.881-9.108.807-15.524 5.843-18.975 14.896-.917 2.403-2.401 5.586-3.298 7.072-2.292 3.795-2.422 4.568-1.573 9.305 1.042 5.819 2.561 8.347 7.923 13.194 4.578 4.138 8.49 6.025 12.017 5.797.661-.043 4.582-.107 8.713-.142 8.34-.071 8.977-.268 14.423-4.455 4.255-3.271 7.983-9.664 8.945-15.337 1.024-6.045.077-11.907-2.753-17.03-2.712-4.912-7.536-10.405-9.588-10.92-.805-.202-1.382-.537-1.282-.746.101-.208.806-1.999 1.568-3.98.761-1.982 2.038-4.41 2.835-5.397l1.451-1.794 2.156 1.16c2.382 1.281 3.919 3.002 8.387 9.385 1.653 2.362 3.711 5.139 4.574 6.173 2.56 3.066 3.363 5.185 4.121 10.884l.718 5.403-2.188 4.691c-1.203 2.58-3.122 5.723-4.264 6.985-1.141 1.262-3.519 5.135-5.285 8.607-4.685 9.211-5.161 9.607-14.503 12.103-4.297 1.149-9.218 2.543-10.936 3.098-2.541.822-3.605.888-5.709.353-2.325-.591-5.343-1.244-10.29-2.225-.932-.185-2.647-1.288-3.812-2.452-1.165-1.163-2.749-2.355-3.52-2.648-.772-.294-2.556-2.101-3.966-4.016-1.408-1.916-3.319-4.305-4.245-5.309-1.386-1.502-1.804-2.716-2.362-6.86-1.026-7.617-.492-12.101 2.078-17.429 1.194-2.477 3.408-7.475 4.92-11.107 1.511-3.632 3.486-7.549 4.388-8.705.901-1.156 2.086-2.777 2.631-3.602 2.667-4.031 3.756-4.785 9.489-6.564 6.468-2.007 11.474-2.32 14.331-.896zm-146.065 1.141c-2.526 1.703-3.48 3.167-3.48 5.338 0 1.766 2.746 3.983 4.935 3.983.795 0 2.916.893 4.715 1.985 5.074 3.079 5.442 3.246 9.28 4.221 8.466 2.149 13.297 3.62 14.406 4.384 1.56 1.074 4.19 1.041 5.11-.066.498-.601.6-1.855.315-3.92-.592-4.298.002-4.804 5.632-4.798 4.963.005 17.754 1.447 20.757 2.34 6.921 2.058 11.461 2.359 14.206.941 1.443-.746 1.772-1.3 1.772-2.986 0-2.708-2.182-3.902-7.128-3.902-1.97 0-5.296-.544-7.391-1.209-2.095-.664-6.633-1.485-10.083-1.824-7.443-.73-11.271-1.521-13.086-2.704-.733-.477-2.143-.867-3.134-.867-1.188 0-2.023-.41-2.446-1.201-.446-.831-1.259-1.2-2.645-1.2-1.1 0-2.688.54-3.529 1.2-1.855 1.458-2.622 1.487-5.622.213-1.71-.727-4.717-1.047-11.341-1.21-8.8-.216-9.067-.185-11.243 1.282zm97.878 14.274c-.167.413-.303.075-.303-.751 0-.825.136-1.163.303-.75.167.413.167 1.088 0 1.501zm51.585 5.253c1.247.99 2.585 1.801 2.973 1.801 1.091 0 4.443 3.526 6.2 6.521 1.293 2.205 1.629 3.645 1.827 7.845.376 7.97-1.895 12.278-9.261 17.562-2.385 1.711-2.8 1.809-5.953 1.416-2.005-.25-4.544-.146-6.214.253-3.399.815-9.618-.487-10.606-2.221-.33-.58-2.029-2.53-3.776-4.333-3.018-3.118-3.824-5.242-1.91-5.036.483.052 1.554.187 2.381.3 1.42.194 1.497.059 1.416-2.496-.047-1.486-.285-3.988-.529-5.56-.708-4.555.793-7.618 5.631-11.49 4.47-3.578 5.925-4.433 9.407-5.528 3.95-1.241 5.918-1.015 8.414.966zm37.777 17.108c-.149.39-.355 3.251-.457 6.359-.102 3.107-.79 9.297-1.53 13.754-.74 4.458-1.53 10.401-1.756 13.208-.226 2.806-.757 5.72-1.18 6.476-.425.757-.7 2.777-.614 4.503.085 1.72-.15 3.681-.523 4.357-.624 1.128-1.038 1.194-5.081.812-7.877-.742-40.564-.92-45.567-.246-1.156.155-4.266.44-6.911.632-2.644.193-5.213.461-5.709.595-.495.134-5.053.532-10.128.885-6.932.482-9.435.468-10.066-.055-1.209-1.003-1.143-14.898.098-20.575 2.245-10.27 2.931-12.993 3.275-12.993 1.045 0 2.469 1.792 3.288 4.139.507 1.452 2.339 4.352 4.072 6.445 1.734 2.094 3.752 4.587 4.487 5.541.735.954 3.169 2.985 5.408 4.513 3.214 2.192 5.025 2.961 8.581 3.646 2.479.476 7.429 1.827 11.001 3 7.465 2.451 11.895 2.744 15.701 1.038 1.344-.603 3.796-1.579 5.449-2.169 8.647-3.09 10.935-4.116 12.5-5.608 2.653-2.529 6.219-8.191 7.359-11.682.568-1.738 1.808-4.837 2.756-6.887.948-2.05 1.723-4.162 1.723-4.692 0-.531.301-1.526.668-2.212.368-.686.9-3.302 1.183-5.814.815-7.23 1.247-9.29 1.773-8.441.26.42.349 1.082.2 1.471zm157.533 133.578c-1.628 1.651-3.308 3.002-3.733 3.002-.426 0-.774.27-.774.6 0 .331-1.384.601-3.074.601-2.777 0-3.271.215-5.108 2.218-1.119 1.221-2.035 2.427-2.035 2.681s-.587.775-1.304 1.159c-1.029.55-1.442.523-1.953-.129-.357-.455-1.054-.826-1.55-.826-.623 0-.994-.834-1.202-2.702-.27-2.423-.46-2.701-1.846-2.701-1.205 0-2.406 1.057-5.455 4.802-3.534 4.34-10.182 15.001-12.046 19.317-.403.933-1.42 2.642-2.261 3.799-2.277 3.133-2.824 4.079-5.207 9.003-3.794 7.837-5.065 10.873-4.76 11.367.164.263-.265.987-.952 1.609-.687.621-1.669 1.94-2.182 2.932-.513.991-1.677 2.748-2.586 3.903-.91 1.156-2.934 4.668-4.499 7.805-1.565 3.137-3.444 6.514-4.177 7.504-.732.991-1.949 3.017-2.704 4.503-.755 1.486-2.395 4.208-3.644 6.049-1.249 1.841-3.138 5.182-4.199 7.425-1.061 2.243-3.155 5.582-4.654 7.42-3.296 4.042-12.449 19.752-16.354 28.069-1.56 3.32-3.628 6.967-4.595 8.104-.968 1.137-2.155 2.657-2.637 3.379-1.951 2.915-10.727 14.371-14.249 18.602-2.066 2.481-3.756 4.779-3.756 5.105 0 .326-.913 1.72-2.029 3.096-1.116 1.376-2.505 3.448-3.087 4.604-.582 1.155-1.861 3.12-2.841 4.366-1.789 2.274-6.51 9.246-22.855 33.756-4.844 7.264-9.309 13.883-9.922 14.708-3.936 5.303-16.622 29.87-17.843 34.555-.495 1.898-1.319 4.017-1.83 4.71-3.351 4.534-3.896 5.508-3.896 6.963 0 .9.67 2.346 1.503 3.244 1.733 1.868 1.746 1.957.601 3.959-1.144 1.999-1.125 5.419.041 7.08.923 1.317.979 1.322 2.764.284 1.002-.583 2.403-2.071 3.114-3.307.71-1.236 1.427-2.248 1.593-2.249.165-.002.381 5.601.479 12.451l.178 12.456 1.975 3.602c2.279 4.155 3.912 4.877 5.512 2.438.555-.845 1.21-1.537 1.458-1.537.247 0 1.493.829 2.77 1.842 1.276 1.014 5.119 3.367 8.54 5.23 3.422 1.863 6.809 3.946 7.528 4.629.719.682 2.524 2.013 4.011 2.956 1.488.943 3.806 2.602 5.151 3.687 1.346 1.085 3.272 2.466 4.281 3.07 1.009.605 4.641 3.067 8.071 5.474 16.206 11.371 15.091 10.689 24.264 14.829 1.983.894 5.498 2.795 7.812 4.224 2.314 1.429 5.424 3.074 6.911 3.656 1.487.582 3.921 1.795 5.409 2.698 2.576 1.563 8.04 3.911 15.925 6.844 10.8 4.017 22.633 9.77 25.607 12.448 1.537 1.385 2.646 3.268 3.804 6.458 2.255 6.212 2.795 7.204 3.923 7.204 2.573 0 3.02-2.854 1.548-9.882-.927-4.424-.854-5.43.246-3.377.449.837 1.262 1.252 2.453 1.252 1.771 0 1.781.02 1.781 3.509 0 3.818 1.062 5.496 3.479 5.496 1.65 0 4.154-2.706 4.995-5.398 1.004-3.216 4.127-7.539 5.939-8.222 1.215-.459 2.346-2.025 4.51-6.253 2.503-4.887 6.634-11.043 9.154-13.639.423-.436.769-1.012.769-1.278 0-.268 1.217-2.051 2.705-3.965 1.487-1.913 2.704-3.721 2.704-4.017 0-.295 1.203-2.517 2.673-4.936 1.471-2.42 3.328-5.711 4.128-7.312 7.793-15.612 10.696-20.81 14.723-26.356 9.23-12.714 13.313-19.843 15.036-26.249.336-1.246 1.659-3.542 2.941-5.103 1.282-1.561 3.655-4.719 5.274-7.019 2.844-4.038 5.694-7.512 11.349-13.83 5.897-6.59 7.664-9.231 12.004-17.944 5.071-10.177 6.991-14.315 6.991-15.059 0-1.515 9.971-21.257 15.32-30.333 1.071-1.816 2.984-5.328 4.253-7.805 1.268-2.476 2.89-5.313 3.603-6.303.713-.991 1.994-3.302 2.845-5.138 1.653-3.56 4.078-7.249 9.525-14.488 1.866-2.481 3.865-5.429 4.441-6.551.833-1.624 8.114-12.853 17.866-27.554 5.278-7.958 6.945-10.001 8.959-10.985 2.13-1.04 2.224-1.221 2.638-5.084.875-8.16-.809-23.079-2.833-25.101-.449-.449-1.457-.892-2.24-.985-1.182-.141-1.563.239-2.24 2.232-.449 1.321-1.11 2.898-1.467 3.505-1.222 2.074-.664 7.363 1.288 12.201.704 1.746.604 2.203-1.246 5.703-2.384 4.511-4.45 7.632-9.079 13.711-3.234 4.249-4.764 6.653-7.832 12.307-.717 1.321-4.104 6.631-7.528 11.801-3.424 5.17-6.225 9.633-6.225 9.919 0 .286-.766 1.459-1.703 2.607-.936 1.149-2.897 4.066-4.357 6.484a554.054 554.054 0 0 1-3.555 5.825c-.496.787-1.967 3.131-3.268 5.21-1.302 2.079-3.375 5.131-4.608 6.782-4.891 6.553-6.578 9.234-9.253 14.709-7.531 15.415-9.713 19.545-11.533 21.831-1.086 1.365-1.978 2.672-1.981 2.904-.003.232-1.188 2.123-2.633 4.202-1.445 2.08-3.09 4.691-3.657 5.803-.967 1.896-9.276 13.243-10.971 14.981-.426.436-.781 1.247-.79 1.801-.035 2.045-6.527 12.301-12.014 18.977-.832 1.013-2.438 3.234-3.569 4.935-1.749 2.632-2.409 3.15-4.426 3.473-1.304.207-2.451.297-2.55.198-.099-.098-.235-2.483-.303-5.299l-.123-5.12 3.237-3.287c4.573-4.641 7.22-8.852 13.754-21.874 3.148-6.274 8.106-15.019 11.018-19.435 2.912-4.415 5.558-8.722 5.882-9.571.323-.85 1.881-3.316 3.462-5.481 1.582-2.165 3.234-4.881 3.672-6.037.439-1.155 1.388-2.776 2.11-3.602 2.784-3.186 12.919-19.273 12.919-20.508 0-.284.947-1.861 2.103-3.506 1.157-1.644 2.104-3.198 2.104-3.454 0-.255.904-1.811 2.01-3.457 1.106-1.647 2.472-3.971 3.035-5.165.563-1.193 1.566-2.75 2.228-3.461.662-.71 1.806-2.57 2.542-4.133.737-1.563 2.04-3.923 2.897-5.244a123.954 123.954 0 0 0 6.055-10.506c.755-1.486 2.615-4.593 4.133-6.904 5.607-8.534 7.043-10.941 10.138-16.992 2.038-3.985 3.893-6.761 5.215-7.804 3.18-2.51 12.682-18.808 12.777-21.914.028-.926.61-2.911 1.294-4.411.685-1.5 1.099-3.106.921-3.569-.559-1.456-2.599-.96-3.326.809-.912 2.22-2.042 4.115-3.249 5.446-.548.606-.998 1.448-.998 1.87 0 .452-.389.618-.95.403-.523-.201-1.163-.365-1.423-.365-.259 0-1.195-1.091-2.078-2.425-1.424-2.148-4.671-4.771-5.915-4.777-.248-.001-.451.505-.451 1.126 0 .619-.406 1.463-.901 1.874-1.199.993-1.15 4.469.08 5.697.539.539 2.024 1.397 3.3 1.907 2.073.829 2.278 1.097 1.928 2.515-.215.873-1.252 2.668-2.306 3.989-1.053 1.321-2.074 2.848-2.268 3.394-.615 1.736-7.691 11.915-8.281 11.915-.312 0-.566.372-.566.827 0 .454-.416 1.171-.924 1.593-.763.632-1.444.523-3.9-.626-2.854-1.336-3.022-1.349-4.15-.331-1.871 1.693-2.08 4.05-.607 6.873.929 1.78 1.192 3.051.926 4.47-.36 1.914-3.26 7.005-3.991 7.005-.197 0-.745-.866-1.218-1.925-.624-1.396-1.431-2.07-2.935-2.45-2.558-.647-3.634.491-3.634 3.846 0 1.708.378 2.54 1.584 3.487.871.684 2.106 1.245 2.744 1.245.925 0 1.078.275.754 1.35-.7 2.32-2.193 5.253-2.674 5.253-.252 0-.795.811-1.206 1.801-.464 1.121-1.184 1.801-1.905 1.801-1.537 0-4.133-1.375-5.551-2.94-.629-.694-1.609-1.262-2.179-1.262-1.124 0-3.837-1.037-8.977-3.432-1.808-.842-4.918-1.999-6.911-2.571-4.168-1.196-7.799-2.937-18.461-8.853-9.097-5.047-17.685-9.134-19.287-9.178-.844-.023-3.435-2.064-3.435-2.705 0-.238 1.149-1.551 2.554-2.918 1.405-1.367 3.771-4.321 5.259-6.564a246.557 246.557 0 0 1 5.655-8.092c1.622-2.208 3.909-6.041 5.082-8.517 1.172-2.477 3.395-6.394 4.939-8.705 1.544-2.312 3.807-6.364 5.03-9.006 1.222-2.641 2.469-5.208 2.77-5.703.3-.495.997-1.711 1.547-2.702.551-.99 2.462-3.521 4.247-5.625 2.81-3.311 3.221-4.116 3.063-6.003-.157-1.877-.411-2.206-1.835-2.369-1.103-.127-1.653.088-1.653.645 0 1.056-2.507 3.447-3.614 3.447-.647 0-.672-.16-.111-.721.396-.396.721-1.453.721-2.349 0-1.25.941-2.474 4.056-5.271 2.409-2.163 4.609-3.648 5.418-3.655 1.479-.012 7.409 3.113 8.579 4.522.398.478 1.007.87 1.354.87.347 0 1.086.412 1.643.916.557.503 2.471 1.436 4.254 2.072 6.203 2.213 13.132 5.305 14.792 6.598.918.717 3.293 2.498 5.276 3.96 4.661 3.436 4.231 3.084 8.448 6.886 2.002 1.805 4.571 4.005 5.709 4.888s3.15 2.581 4.472 3.774c2.678 2.416 7.123 4.637 8.343 4.169 1.642-.629.232-3.207-3.15-5.756-1.865-1.405-6.905-5.547-11.202-9.205-10.883-9.266-12.84-10.784-15.926-12.343-1.487-.752-3.409-1.851-4.272-2.443-.863-.592-3.905-1.921-6.76-2.953-2.856-1.032-5.344-2.122-5.529-2.42-.185-.299-.987-.544-1.783-.544-.834 0-2.712-1.082-4.43-2.552-5.264-4.5-8.246-6.59-10.523-7.372-1.221-.419-3.236-1.465-4.476-2.323-1.24-.859-2.742-1.561-3.337-1.561-.595 0-2.428-.676-4.073-1.501-1.645-.826-3.483-1.501-4.083-1.501-.601 0-3.621-1.299-6.711-2.887-3.092-1.589-7.243-3.524-9.226-4.3-1.983-.778-5.997-2.61-8.918-4.073-2.922-1.463-5.811-2.529-6.421-2.37-.61.159-1.642-.083-2.294-.539-.651-.455-2.899-1.077-4.997-1.382-4.542-.658-13.221-3.882-15.329-5.695l-1.503-1.29 2.453-1.378c1.35-.757 2.454-1.608 2.454-1.89 0-.282.164-.94.365-1.463.28-.731-.036-.949-1.375-.949-1.292 0-2.501.772-4.699 3.001zm-6.324 6.454c-.009 1.025-.803 2.526-2.094 3.958-1.143 1.268-2.583 2.998-3.199 3.842-.683.936-1.276 1.285-1.519.893-.219-.354.769-2.354 2.197-4.443 1.428-2.09 2.774-4.272 2.992-4.85.613-1.622 1.639-1.243 1.623.6zm6.454 4.122c1.25.533 3.626 1.593 5.279 2.354 4.725 2.177 8.687 3.28 11.779 3.28 2.283 0 3.37.389 5.452 1.951 4.137 3.104 8.36 5.094 11.771 5.548 2.862.38 5.411 1.438 10.66 4.426.992.564 4.237 2.296 7.212 3.848 3.79 1.977 5.722 3.374 6.454 4.668.994 1.755 1.18 1.827 3.756 1.441 2.989-.448 3.089-.34 1.866 2.021-.464.897-.937 2.523-1.052 3.615-.138 1.33-1.067 2.91-2.819 4.793-1.436 1.545-3.585 4.295-4.775 6.111-1.19 1.816-2.898 4.112-3.795 5.103-.898.99-2.4 3.065-3.338 4.61-.938 1.545-3.221 4.786-5.073 7.204-3.252 4.244-7.205 9.816-11.841 16.691-1.22 1.81-2.76 3.924-3.421 4.698-1.797 2.103-8.166 10.963-13.245 18.427-5.536 8.133-8.246 11.947-10.533 14.823-.969 1.219-1.763 2.316-1.763 2.439 0 .124-3.853 6.047-8.563 13.162-4.711 7.117-9.303 14.124-10.205 15.571-1.888 3.028-1.785 2.867-7.44 11.625-2.35 3.639-5.166 8.238-6.257 10.219-1.092 1.981-2.448 4.277-3.016 5.103-2.424 3.53-4.783 7.291-4.783 7.628 0 .199-.614 1.199-1.364 2.221-.751 1.022-1.759 2.668-2.242 3.658-.482.991-1.462 2.612-2.176 3.602-.715.991-2.52 4.243-4.01 7.226-1.491 2.984-3.556 6.25-4.588 7.259-1.033 1.008-1.981 2.37-2.108 3.026-.367 1.906-6.65 14.215-9.162 17.951-5.991 8.909-9.268 13.97-10.471 16.168-.722 1.321-2.976 4.968-5.009 8.105-2.033 3.137-4.619 7.324-5.747 9.305-2.219 3.898-6.533 9.798-8.132 11.125-1.286 1.066-8.26 11.526-11.795 17.692-4.703 8.201-8.465 14.911-9.696 17.291-1.16 2.245-1.2 2.264-2.453 1.201-1.505-1.278-2.773-2.025-8.786-5.178-2.479-1.3-4.913-2.687-5.409-3.083-.496-.396-1.976-1.333-3.29-2.083-1.314-.75-2.752-1.881-3.195-2.513-.443-.631-1.937-1.725-3.32-2.428-1.383-.704-3.367-1.928-4.409-2.72-1.043-.793-3.217-1.65-4.831-1.905-4.665-.737-7.476-2.775-14.101-10.222-3.411-3.834-7.353-8.155-8.763-9.602-1.409-1.446-2.56-2.932-2.559-3.302.002-.369.812-1.886 1.8-3.372.989-1.486 1.802-2.972 1.807-3.302.005-.33 1.181-2.16 2.613-4.065 1.432-1.905 3.524-5.089 4.651-7.075 1.126-1.986 3.399-5.668 5.052-8.181 1.652-2.514 4.649-7.299 6.658-10.635 2.01-3.336 4.494-7.416 5.521-9.067 1.028-1.651 3.544-5.973 5.593-9.605 2.049-3.632 4.719-8.09 5.934-9.906 1.216-1.816 3.365-5.401 4.775-7.966 1.411-2.565 3.22-5.442 4.02-6.392.801-.95 2.915-4.525 4.698-7.943 1.784-3.418 4.232-7.958 5.443-10.088 1.21-2.131 3.589-6.588 5.285-9.906 1.696-3.318 4.61-8.329 6.475-11.136 7.626-11.475 15.245-22.638 16.802-24.614.91-1.156 2.404-3.587 3.32-5.403.916-1.816 2.506-4.289 3.534-5.497 1.028-1.208 2.814-3.774 3.97-5.704 1.155-1.929 3.724-5.843 5.709-8.698 1.984-2.855 4.69-6.981 6.012-9.171 2.97-4.919 3.604-5.87 16.226-24.368 5.618-8.234 11.886-17.478 13.927-20.54 2.042-3.063 5.25-7.538 7.128-9.945 1.879-2.408 4.695-6.325 6.259-8.705s3.765-5.45 4.891-6.822c1.127-1.372 3.401-4.423 5.054-6.781 4.734-6.753 7.726-10.214 8.843-10.225.568-.006 2.055.425 3.306.959zm-23.218 6.234c1.996 0 1.3 2.039-1.861 5.451-1.658 1.79-3.544 4.065-4.191 5.055-.647.991-2.893 4.368-4.991 7.504-3.425 5.12-7.556 11.746-10.039 16.102-1.294 2.27-7.796 12.142-9.158 13.906l-1.152 1.491.43-1.791c.237-.985.623-2.062.86-2.392.236-.33 2.492-4.569 5.014-9.419 2.521-4.851 5.834-10.929 7.36-13.508a334.468 334.468 0 0 0 5.523-9.792c4.261-7.916 8.693-13.512 10.233-12.921.451.173 1.338.314 1.972.314zm6.525 3.397c-.334.878-1.418 2.566-2.409 3.752-2.768 3.31-2.963 3.576-2.963 4.028 0 .71-4.812 6.833-5.37 6.833-.864 0 2.788-6.232 5.368-9.16 1.324-1.502 2.406-2.944 2.406-3.206 0-.44 3.013-3.843 3.403-3.843.095 0-.1.718-.435 1.596zm88.778 31.824c-.741.739-.41 5.962.452 7.139 1.322 1.807 7.259 1.668 8.777-.205.929-1.146 1.005-1.687.463-3.302-1.126-3.357-2.11-4.033-5.879-4.033-1.877 0-3.593.18-3.813.401zm-11.571 2.435c-1.95 2.87-2.051 2.959-2.051 1.791 0-.762 2.782-4.027 3.431-4.027.076 0-.545 1.007-1.38 2.236zm-1.863 4.218c-.207.578-1.145 2.213-2.085 3.632-.94 1.42-1.709 2.716-1.709 2.88 0 .88-6.31 12.726-7.971 14.964-1.069 1.442-3.567 5.474-5.55 8.961-1.983 3.486-5.424 8.972-7.647 12.19l-5.611 8.12c-1.418 2.05-1.76 2.233-3.549 1.897-1.628-.304-2.153-.124-2.953 1.018-1.221 1.74-1.257 3.521-.072 3.521 1.456 0 1.063 1.27-1.675 5.41-1.416 2.142-3.486 5.652-4.599 7.798s-2.468 4.577-3.012 5.403c-.543.825-1.291 2.207-1.661 3.071-.369.864-2.79 4.731-5.379 8.594a1892.984 1892.984 0 0 0-6.811 10.225 3514.105 3514.105 0 0 1-7.227 10.917c-2.818 4.244-5.629 8.662-6.246 9.817-.618 1.156-1.692 2.726-2.388 3.489-.696.763-1.942 2.705-2.768 4.317-2.114 4.122-10.364 16.33-13.089 19.368-1.254 1.399-4.375 5.178-6.934 8.397-4.274 5.375-5.594 6.477-6.579 5.493-.42-.42.566-2.892 2.011-5.043.555-.825 2.698-4.743 4.763-8.705 2.066-3.962 4.215-7.744 4.777-8.405 1.293-1.517 6.037-8.588 6.037-8.997 0-.168.899-1.589 1.999-3.159 1.1-1.568 3.58-5.689 5.513-9.156 1.931-3.467 4.725-8.195 6.209-10.506 7.659-11.936 14.887-22.879 25.341-38.368 1.818-2.693 4.268-6.104 5.445-7.578 2.119-2.656 3.576-4.799 5.354-7.874 1.003-1.736 2.862-4.423 6.584-9.516a315.563 315.563 0 0 0 5.258-7.505 292.899 292.899 0 0 1 5.577-7.905c1.502-2.036 3.407-4.682 4.233-5.879a345.231 345.231 0 0 1 3.773-5.303 273.886 273.886 0 0 0 4.507-6.44c3.028-4.486 7.547-10.189 8.078-10.191.237-.001.262.47.056 1.048zm32.434 1.49c-.603.768-1.973 4.452-1.973 5.302 0 .858 5.039 4.165 6.347 4.165.717 0 2.016-.561 2.886-1.245 1.284-1.008 1.584-1.746 1.584-3.894 0-2.422-.168-2.72-1.953-3.464-3.225-1.345-6.22-1.72-6.891-.864zm-145.936 8.116c-1.656 2.546-4.72 6.131-5.25 6.143-.521.012 2.242-5.057 3.676-6.744.491-.578 1.288-1.05 1.77-1.05.722 0 .687.293-.196 1.651zm130.214 3.231c-1.229.464-1.383.828-1.095 2.599.32 1.971.275 2.032-1.049 1.43-1.792-.816-3.939.263-3.939 1.98 0 1.308 5.706 7.119 6.989 7.119.399 0 1.142-.16 1.65-.354 1.159-.445.721-3.31-.926-6.053-1.132-1.886-1.13-1.908.08-2.291.672-.213 1.221-.753 1.221-1.199 0-.446.157-1.218.348-1.715.487-1.268-1.499-2.186-3.279-1.516zm32.363 3.261c-.794 2.089-.768 2.166 1.261 3.768 2.331 1.84 5.047 2.243 6.908 1.025 2.414-1.581 1.572-4.531-1.294-4.531-.723 0-2.088-.404-3.035-.897-2.413-1.257-3.167-1.133-3.84.635zm-19.696 7.586c-1.032 1.031-.891 5.973.215 7.55 1.951 2.785 6.876.631 6.876-3.007 0-2.378-.583-3.422-2.447-4.385-2.063-1.066-3.679-1.122-4.644-.158zm-32.779 2.779c-1.728 1.907-1.259 4.083 1.248 5.784 3.954 2.684 6.585 1.637 5.841-2.326-.288-1.53-.958-2.481-2.361-3.347-2.422-1.495-3.452-1.52-4.728-.111zm55.565 2.719c-.792.954-2.458 6.2-2.467 7.77-.004.67.787 1.413 2.077 1.951 4.506 1.881 7.197.514 5.767-2.93-.434-1.047-.923-2.849-1.086-4.004-.163-1.156-.568-2.439-.9-2.852-.796-.989-2.542-.956-3.391.065zm-40.695 9.03c-2.459 2.457-2.508 2.988-.453 4.892 1.833 1.696 1.919 1.707 5.922.673 3.68-.949 4.143-2.387 1.772-5.492-2.174-2.848-4.441-2.87-7.241-.073zm18.029 4.422c-1.359.906-2.056 3.032-1.485 4.531.887 2.33 6.65 3.778 8.336 2.094 1.094-1.093.879-2.291-.863-4.801-1.264-1.823-1.961-2.282-3.455-2.274-1.03.005-2.169.207-2.533.45zm-32.091 2.495c0 1.471-.255 1.848-1.248 1.848-.686 0-2.038.79-3.005 1.755-1.937 1.936-2.369 5.25-1.059 8.123 1.035 2.269 4.491 2.151 6.776-.232 1.712-1.785 1.806-2.757.626-6.494-.369-1.165-.211-1.351 1.145-1.351 1.545 0 1.906-.681 1.594-3.001-.171-1.27-.651-1.618-2.876-2.086-1.869-.394-1.953-.333-1.953 1.438zm14.474 11.693c-1.29 1.552-1.164 7.2.193 8.701 1.543 1.707 4.287 1.664 5.38-.085 1.44-2.302 1.682-5.968.497-7.52-1.353-1.775-4.965-2.427-6.07-1.096zm-38.813 4.465c.409.951 2.406 2.251 6.229 4.052 3.094 1.457 5.969 2.65 6.387 2.65.419 0 2.328 1.216 4.244 2.702s4.026 2.701 4.691 2.701c.664 0 1.767.515 2.449 1.143 1.65 1.52 8.592 5.177 10.856 5.72 1.871.449 8.497 2.909 11.118 4.129.826.384 2.883 1.719 4.571 2.966 1.687 1.246 4.324 2.693 5.858 3.215 1.535.523 2.939 1.191 3.122 1.486.59.954-.79 4.703-2.58 7.01-.958 1.236-2.118 3.193-2.576 4.349-.458 1.155-1.186 2.462-1.618 2.904-1.702 1.738-3.773 4.754-3.773 5.495 0 1.112-4.009 7.006-5.033 7.398-.47.18-1.968 2.615-3.328 5.409-1.36 2.794-3.417 6.393-4.571 7.996-4.641 6.451-7.361 10.868-8.432 13.694-.62 1.636-2.039 4.166-3.152 5.624-1.114 1.457-2.512 3.497-3.107 4.53-10.31 17.941-14.367 24.25-22.512 35.002-1.958 2.585-4.866 6.425-6.46 8.533-1.595 2.107-2.899 4.036-2.899 4.288 0 .251-.409.613-.909.805-.717.275-.828.027-.526-1.176.524-2.088-1.79-4.403-7.557-7.556-2.491-1.362-5.366-3.111-6.389-3.887-1.023-.775-2.042-1.409-2.263-1.409-.827 0-7.402-4.553-10.371-7.182-2.934-2.597-10.97-8.915-13.773-10.828-5.341-3.645-6.932-4.622-9.503-5.832-1.603-.755-3.244-1.372-3.647-1.372-.403 0-1.863-.868-3.246-1.93-3.197-2.455-3.041-2.975 2.746-9.177 4.495-4.817 12.773-16.677 16.339-23.41 1.048-1.979 2.368-4.14 2.932-4.802.565-.663 1.538-2.15 2.162-3.306 1.094-2.022 3.168-5.264 5.643-8.819.646-.927 3.007-4.523 5.246-7.99 2.239-3.467 5.478-8.465 7.197-11.107 6.521-10.02 11.111-17.724 11.111-18.649 0-.528.913-2.086 2.028-3.463 1.116-1.376 2.455-3.341 2.976-4.366.521-1.026 2.061-3.54 3.423-5.588 2.263-3.405 2.639-3.708 4.386-3.539 1.326.128 2.094.613 2.511 1.587zm-153.502 53.079c-.616 1.073-1.322 2.627-1.569 3.452-.493 1.651-14.034 24.401-16.291 27.372-.777 1.022-1.412 2.048-1.412 2.28 0 .233-.894 1.828-1.987 3.546-1.094 1.718-2.596 4.387-3.339 5.931-.743 1.546-2.862 5.058-4.711 7.805-3.993 5.938-6.399 10.026-8.054 13.689-.669 1.479-1.403 2.83-1.632 3.002-.988.741-11.161 15.517-14.311 20.785-1.306 2.185-1.27.506.085-4.008 1.483-4.94 3.429-9.169 5.09-11.062.58-.66 1.537-2.551 2.126-4.202.59-1.651 1.809-3.957 2.709-5.124.9-1.167 2.341-3.464 3.203-5.103.86-1.64 2.381-4.062 3.377-5.382 3.707-4.912 9.982-14.214 11.49-17.032.856-1.601 2.276-3.853 3.155-5.004.878-1.15 1.597-2.315 1.597-2.588 0-.273.45-.993.998-1.598.549-.607 1.293-1.607 1.653-2.224 1.538-2.636 7.256-10.722 8.754-12.378.896-.991 2.649-3.691 3.895-6.001 2.238-4.145 5.026-7.979 5.863-8.064.237-.024-.073.835-.689 1.908zm72.073 51.294c0 .604-4.869 8.558-5.463 8.924-.682.422 1.045-3.646 2.883-6.787 1.324-2.264 2.58-3.305 2.58-2.137zm7.49 3.763c.586.647 2.453 1.629 4.149 2.183 3.779 1.234 7.893 3.498 10.296 5.665.992.894 3.02 2.348 4.507 3.232 4.139 2.459 8.46 5.603 11.118 8.09 1.322 1.237 3.08 2.704 3.906 3.259.826.556 3.363 2.258 5.638 3.783 2.274 1.526 6.011 3.738 8.306 4.917 2.73 1.403 4.728 2.928 5.781 4.412 2.02 2.847 2.679 3.102 5.248 2.03 1.182-.493 2.07-.609 2.07-.27 0 .785-2.204 5.073-4.005 7.792-1.705 2.573-3.807 8.092-3.807 9.994 0 .919-.456 1.462-1.434 1.707-.789.198-2.596 1.689-4.017 3.313-2.612 2.988-4.281 3.828-3.778 1.903.287-1.096-1.99-7.671-3.968-11.459-.631-1.209-2.585-3.828-4.342-5.82-4.476-5.076-6.774-8.07-7.935-10.336-.662-1.293-1.438-1.952-2.3-1.952-.715 0-2.901-.33-4.858-.734-2.726-.562-3.675-1.041-4.058-2.049-.563-1.48-1.274-1.759-5.978-2.344-1.818-.225-3.587-.636-3.93-.912-.344-.276-3.117-.69-6.161-.92l-5.537-.417-4.41 2.719c-2.445 1.507-5.591 2.916-7.06 3.161-2.442.408-5.549 2.049-6.755 3.569-1.369 1.725.524-3.25 2.034-5.346.963-1.336 2.315-3.646 3.006-5.131.69-1.485 1.871-3.511 2.625-4.502.754-.992 1.843-2.748 2.421-3.903 1.295-2.592 10.02-15.744 10.846-16.351.903-.662 1.218-.567 2.382.717zm109.696 11.358c0 .62-.405 1.463-.901 1.874-.974.808-1.087.452-.523-1.651.439-1.636 1.424-1.791 1.424-.223zm-126.801.395c0 .176-1.217 2.463-2.704 5.081-1.488 2.619-2.705 4.941-2.705 5.16 0 .219-.946 1.445-2.103 2.724-2.435 2.692-2.84 1.741-.56-1.313.848-1.137 2.246-3.554 3.104-5.37 1.625-3.436 3.74-6.513 4.517-6.571.248-.018.451.112.451.289zm122.655 7.99c-1.012 1.575-2.547 3.524-3.411 4.33-.864.807-1.971 2.234-2.46 3.173-.489.939-1.034 1.561-1.213 1.383-.619-.619 4.312-9.706 6.4-11.795 1.76-1.759 2.136-1.927 2.312-1.028.116.59-.617 2.362-1.628 3.937zm-132.871 8.464c0 .875-2.965 4.037-2.986 3.186-.011-.413.251-.751.582-.751.33 0 .601-.351.601-.78 0-.429.324-1.105.721-1.501.869-.869 1.082-.899 1.082-.154zm34.254 3.43c1.487.437 3.245.8 3.906.809.661.008 1.878.397 2.704.863 2.265 1.278 4.806 2.509 7.849 3.804 2.295.976 3.018 1.715 4.453 4.548 1.635 3.227 1.665 3.435.671 4.533-.573.633-1.744 1.326-2.603 1.541-.858.216-2.223.912-3.033 1.549-1.898 1.491-4.136 1.013-6.135-1.31-1.308-1.52-2.045-1.795-5.709-2.123-3.247-.291-4.686-.74-6.31-1.969-3.043-2.304-7.153-3.985-8.062-3.298-.411.311-2.066 1.51-3.679 2.666-3.631 2.602-6.016 5.101-6.897 7.225-.37.893-1.305 1.911-2.076 2.262-1.002.457-1.948 2.066-3.311 5.632-1.05 2.746-2.564 5.952-3.365 7.126-1.911 2.8-1.969 6.995-.143 10.242.722 1.283 1.528 2.333 1.791 2.333 1.274 0 7.301 4.51 9.485 7.098 1.583 1.875 3.58 3.408 5.602 4.3 1.729.762 4.357 1.918 5.84 2.568 4.273 1.873 10.136 1.266 15.225-1.577 7.075-3.953 10.918-10.341 12.059-20.047l.668-5.688 2.103-.78c1.157-.429 2.805-.932 3.66-1.119 1.122-.244 1.822-1.014 2.506-2.753 1.045-2.659 2.505-3.163 3.075-1.063.202.743.665 4.457 1.028 8.255l.661 6.903-2.076 5.103c-3.683 9.051-5.95 12.699-9.215 14.825-1.619 1.055-4.654 3.316-6.743 5.025-5.394 4.412-7.121 4.803-18.254 4.139-11.261-.671-11.842-.791-16.708-3.439-6.767-3.683-7.636-4.571-10.825-11.077l-2.958-6.033-.104-9.074c-.075-6.515.173-10.344.881-13.577.542-2.476.986-5.045.986-5.708 0-1.908 4.7-8.603 9.372-13.352l4.281-4.353 3.644.381 3.644.381-.333-2.477c-.497-3.709.342-4.355 5.474-4.209 2.347.067 5.484.479 6.971.915zm-37.259 1.304c0 .569-3.593 6.106-3.963 6.106-.755 0-.038-1.847 1.258-3.245.827-.891 1.503-2.011 1.503-2.489 0-.478.27-.87.601-.87.33 0 .601.224.601.498zm100.756 1.153a76.182 76.182 0 0 0-.653 2.702c-.202.908-.762 1.651-1.246 1.651-.84 0-3.305 4.039-3.305 5.416 0 .364-.696 2.131-1.547 3.927-.85 1.796-1.433 3.738-1.295 4.315.226.942.304.926.751-.15.529-1.268 1.43-2.077 2.332-2.093.315-.005.376 2.898.148 6.895l-.395 6.904h1.515c1.14 0 1.763-.52 2.518-2.101.941-1.971 1.181-2.101 3.896-2.101 2.172 0 2.894.224 2.894.9a.904.904 0 0 1-.902.901c-.495 0-.901-.247-.901-.549 0-.301-.701-.36-1.558-.132-.999.267-2.13 1.417-3.155 3.207-.878 1.534-3.783 6.389-6.453 10.788-2.672 4.399-6.292 10.7-8.047 14.002-1.754 3.302-4.603 8.164-6.331 10.806-5.619 8.589-11.114 17.494-11.114 18.011 0 .278-.368.932-.818 1.453-1.219 1.414-4.104 7.001-6.069 11.754-.956 2.311-3.043 6.256-4.637 8.765-1.595 2.51-2.899 4.832-2.899 5.16 0 .328-.571 1.112-1.268 1.741-.697.629-1.79 2.252-2.428 3.606-1.162 2.467-4.445 6.115-5.001 5.559-.163-.163.015-1.122.397-2.132.602-1.592.523-2.052-.587-3.462-1.162-1.476-1.249-2.143-.955-7.286.286-4.997.594-6.209 2.618-10.307 1.363-2.76 3.417-5.732 5.059-7.322 2.112-2.044 2.766-3.115 2.766-4.531 0-1.157.959-3.349 2.554-5.832 3.356-5.226 10.804-17.032 11.568-18.335.331-.564 1.31-2.109 2.175-3.436.866-1.326 2.725-4.708 4.132-7.514 1.406-2.807 3.064-5.82 3.684-6.696.62-.877 1.127-2.118 1.127-2.759s.568-1.679 1.263-2.308c1.72-1.554 2.944-4.053 2.944-6.01 0-1.532-.062-1.568-1.093-.637-.601.544-1.713 2.23-2.472 3.748-.969 1.938-1.568 2.57-2.014 2.125-.659-.658.049-3.758 1.75-7.665.453-1.041.824-2.174.824-2.519 0-.345.744-.982 1.652-1.416 1.212-.578 1.734-1.348 1.953-2.884.308-2.146 2.399-5.412 7.262-11.344 1.516-1.847 3.52-4.778 4.453-6.511.934-1.733 1.925-3.152 2.203-3.152.278 0 .505-.451.505-1.003 0-.898 1.609-3.199 2.237-3.199.137 0 .12.472-.037 1.05zm-105.777 6.876c-.354 1.367-2.898 4.681-3.594 4.681-.552 0 .253-1.85 1.9-4.364 1.587-2.425 2.274-2.553 1.694-.317zm42.581 10.991c4.72 1.628 6.15 2.991 8.763 8.358 3.148 6.467 3.462 10.404 1.259 15.814-1.928 4.735-4.408 6.799-8.407 6.995-1.549.077-4.73.354-7.067.618-4.194.474-4.276.455-6.389-1.398-1.177-1.032-2.798-1.877-3.601-1.877-1.725 0-4.077-2.333-5.75-5.703-1.351-2.722-3.147-8.618-3.147-10.331 0-1.552 2.629-6.676 4.556-8.88.866-.991 1.885-2.231 2.265-2.757.38-.526 1.502-1.265 2.494-1.642 2.478-.945 11.328-.472 15.024.803zm-52.368 4.831c-1.15 2.165-3.63 6.235-5.511 9.045a236.968 236.968 0 0 0-8.873 14.334c-.563.991-1.189 1.936-1.391 2.101-.201.165-.893 1.334-1.536 2.596-1.356 2.658-3.937 5.826-3.938 4.832 0-.373.405-1.013.901-1.424.496-.412.903-1.052.905-1.424.002-.373.444-1.488.983-2.479.538-.99 2.063-3.827 3.389-6.303a3801.6 3801.6 0 0 1 3.421-6.378c.555-1.031 1.597-2.62 2.316-3.533.718-.912 1.306-1.947 1.306-2.301 0-1.329 8.626-13.003 9.607-13.003.282 0-.429 1.772-1.579 3.937zm100.789 2.914c-.482.579-.504.97-.074 1.236.839.518 1.832-.142 1.832-1.218 0-1.102-.85-1.112-1.758-.018zm-88.986 3.282c0 1.336-.384 2.646-.901 3.075-.782.648-.902.337-.902-2.328 0-2.333.218-3.075.902-3.075.646 0 .901.659.901 2.328zm-92.901.72c.856 1.015 1.562 2.298 1.571 2.851.013.889 4.389 6.108 5.121 6.108.157 0 1.432.511 2.833 1.136 1.401.626 5.21 2.142 8.465 3.371 3.987 1.506 6.861 3.044 8.814 4.717 5.119 4.385 8.029 6.275 15.05 9.772 5.153 2.567 7.856 4.362 10.783 7.161 3.589 3.431 9.836 7.462 11.564 7.462.396 0 2.891 1.329 5.545 2.954 2.655 1.625 5.637 3.15 6.629 3.39.991.239 2.479.891 3.305 1.448 1.743 1.176 9.629 2.681 11.29 2.155.819-.26 2.036.512 4.421 2.802 1.811 1.738 4.31 3.836 5.555 4.661 1.244.825 3.402 2.446 4.796 3.602 1.393 1.156 3.536 2.636 4.762 3.288 1.226.653 2.229 1.392 2.229 1.643 0 .763 4.225 2.273 6.359 2.273 2.148 0 2.679.41 4.485 3.452 2.035 3.432 5.973 1.91 5.221-2.018-.209-1.096-.01-1.434.845-1.434 2.353 0 3.411 2.032 3.804 7.309.205 2.749.52 5.944.699 7.1l.327 2.101-1.444-1.351c-.794-.743-1.617-1.351-1.829-1.351-.212 0-1.88-1.046-3.706-2.324-1.827-1.278-4.205-2.665-5.286-3.081-1.079-.416-4.687-2.072-8.014-3.679-3.328-1.607-6.341-2.923-6.696-2.923-.354 0-3.04-1.178-5.968-2.617-2.928-1.441-7.027-3.219-9.109-3.952-4.341-1.53-12.945-5.728-14.096-6.876-1.375-1.375-6.121-4.203-7.359-4.387-2.607-.386-12.756-5.506-15.87-8.006l-5.764-4.632c-3.724-2.993-9.135-6.484-11.36-7.329-.699-.266-3.526-2.287-6.282-4.492-6.881-5.505-9.909-7.576-15.414-10.541-2.598-1.399-5.959-3.454-7.468-4.565-1.51-1.111-4.097-2.813-5.75-3.782-5.548-3.25-5.508-3.198-5.965-7.826-.583-5.914.168-6.842 2.907-3.59zm86.001 6.091c.116 6.858.713 9.524 3.145 14.038 6.007 11.15 6.577 11.954 13.37 18.844 7.321 7.424 9.171 8.689 13.698 9.364 1.556.231 3.448.824 4.204 1.317 1.083.707 2.423.81 6.31.488 12.028-.997 17.254-1.091 17.254-.307 0 .42-.589 2.066-1.309 3.657-1.077 2.382-1.582 2.89-2.854 2.875-.851-.01-2.071-.416-2.712-.901-2.558-1.932-4.32-.602-2.459 1.856.486.641.891 2.05.902 3.131.026 2.733-1.729 3.284-9.153 2.874-5.351-.296-6.18-.505-8.603-2.171-1.476-1.013-4.367-2.656-6.426-3.651-2.059-.994-4.856-2.666-6.215-3.715-1.36-1.049-3.278-2.343-4.262-2.874-1.218-.66-2.372-2.21-3.612-4.858-1.698-3.625-3.677-5.709-6.331-6.665-.902-.325-1.052.004-1.052 2.303 0 2.558-.081 2.683-1.735 2.683-.955 0-3.456-.774-5.559-1.72s-6.447-2.729-9.653-3.96c-3.207-1.233-7.499-3.363-9.539-4.734a1970.368 1970.368 0 0 0-5.171-3.467c-1.412-.939-1.426-1.011-.378-2.058s1.094-1.045 1.301.029c.316 1.64 2.577 3.315 4.247 3.148 1.112-.111 2.075-1.191 4.059-4.553 1.431-2.424 2.765-5.058 2.965-5.854.2-.794.578-1.445.84-1.445s.77-.743 1.129-1.651c.358-.908 1.619-2.99 2.802-4.626 1.183-1.636 2.299-3.714 2.481-4.618.181-.904 1.521-3.039 2.978-4.745 1.457-1.705 2.939-3.641 3.293-4.301 1.218-2.274 1.938-.068 2.045 6.267z" clip-rule="evenodd"/></svg>