<?xml version="1.0" standalone="no"?>
<!DOCTYPE svg PUBLIC "-//W3C//DTD SVG 20010904//EN"
 "http://www.w3.org/TR/2001/REC-SVG-20010904/DTD/svg10.dtd">
<svg version="1.0" xmlns="http://www.w3.org/2000/svg"
 width="1536.000000pt" height="1536.000000pt" viewBox="0 0 1536.000000 1536.000000"
 preserveAspectRatio="xMidYMid meet">
<g transform="translate(0.000000,1536.000000) scale(0.100000,-0.100000)"
fill="#000000" stroke="none">
<path d="M6469 12946 c-3 -3 -70 -6 -150 -6 -143 0 -409 -11 -754 -31 -99 -6
-247 -14 -330 -19 -184 -10 -398 -27 -525 -41 -52 -6 -138 -15 -190 -19 -91
-7 -182 -19 -320 -42 -36 -6 -96 -14 -135 -18 -38 -4 -104 -13 -145 -19 -216
-34 -270 -44 -327 -57 -34 -8 -73 -14 -86 -14 -14 0 -41 -7 -60 -15 -20 -8
-48 -15 -63 -15 -15 0 -50 -6 -78 -14 -83 -23 -138 -37 -181 -45 -22 -4 -50
-13 -62 -19 -12 -7 -33 -12 -47 -12 -14 0 -40 -6 -58 -14 -31 -13 -70 -24
-158 -46 -36 -9 -155 -49 -225 -77 -22 -8 -58 -22 -80 -30 -22 -9 -53 -21 -70
-28 -16 -7 -50 -21 -75 -30 -25 -10 -85 -37 -135 -60 -49 -24 -97 -45 -105
-49 -8 -3 -28 -15 -45 -26 -16 -11 -37 -23 -45 -27 -46 -21 -219 -129 -273
-170 -198 -152 -417 -410 -544 -643 -27 -50 -42 -78 -55 -100 -4 -8 -11 -22
-14 -30 -4 -8 -23 -51 -44 -95 -63 -135 -72 -156 -125 -295 -9 -25 -23 -60
-31 -78 -8 -18 -14 -39 -14 -47 0 -8 -6 -29 -14 -47 -8 -18 -22 -60 -32 -93
-9 -33 -23 -78 -29 -100 -42 -136 -91 -325 -105 -400 -4 -22 -12 -60 -18 -85
-24 -97 -66 -315 -86 -442 -50 -309 -73 -474 -79 -548 -2 -25 -9 -90 -16 -145
-30 -258 -41 -375 -41 -435 0 -36 -7 -132 -15 -215 -17 -175 -20 -762 -5 -950
6 -66 12 -169 15 -230 10 -204 51 -624 80 -820 8 -55 15 -113 15 -129 0 -15 7
-65 15 -110 8 -44 22 -126 31 -181 27 -174 85 -458 120 -597 52 -207 70 -275
86 -323 5 -16 14 -46 18 -65 4 -19 14 -51 20 -70 7 -19 18 -51 25 -70 7 -19
18 -51 25 -70 6 -19 14 -46 17 -60 3 -14 12 -34 19 -45 8 -11 14 -27 14 -36 0
-10 6 -30 14 -46 7 -15 21 -46 31 -68 9 -22 23 -53 30 -70 35 -81 114 -238
152 -303 24 -41 43 -75 43 -77 0 -7 65 -101 124 -180 56 -74 182 -207 251
-265 56 -46 230 -177 245 -183 8 -4 29 -16 45 -27 17 -11 39 -24 50 -30 11 -6
36 -20 55 -31 39 -24 218 -114 268 -135 84 -36 100 -43 142 -59 25 -10 59 -23
75 -30 28 -12 66 -26 145 -55 19 -6 46 -14 60 -17 14 -3 34 -12 45 -19 11 -8
29 -14 40 -14 18 0 65 -13 150 -42 17 -5 41 -12 55 -14 23 -5 44 -10 183 -49
28 -8 66 -16 82 -19 17 -2 49 -9 73 -15 23 -6 61 -16 85 -22 23 -6 65 -14 92
-19 28 -4 70 -13 95 -18 41 -9 101 -20 310 -53 41 -7 93 -14 115 -15 22 -2 81
-11 130 -19 155 -25 247 -37 350 -45 55 -4 143 -13 195 -19 257 -29 694 -55
1395 -82 166 -7 862 -14 1555 -16 1057 -4 1300 -2 1542 11 157 9 357 16 445
16 87 0 212 7 278 15 66 8 156 15 200 15 44 0 139 7 210 15 72 8 163 15 204
15 69 0 198 14 381 42 41 6 93 12 115 14 81 8 293 35 385 50 88 14 142 24 295
54 33 7 83 16 110 20 50 8 93 19 191 46 28 8 59 14 70 14 10 0 39 6 64 14 43
14 92 27 170 46 19 4 49 13 65 18 17 6 57 18 90 27 33 9 74 21 90 27 17 5 44
13 60 18 46 13 97 31 127 46 14 8 33 14 42 14 8 0 30 6 48 14 18 8 53 22 78
31 95 37 308 139 385 185 28 16 59 34 70 40 119 63 291 194 406 309 80 80 249
287 249 305 0 3 13 24 29 48 67 102 271 505 271 538 0 5 6 24 14 42 20 47 56
144 85 228 16 46 40 127 51 170 4 19 13 49 18 65 24 67 88 316 102 390 4 22
12 60 18 85 23 97 63 309 87 455 9 55 22 137 30 181 8 45 15 95 15 110 0 16 7
74 15 129 26 178 71 638 79 820 3 55 10 178 17 273 9 135 9 233 0 450 -22 500
-30 646 -40 717 -6 39 -11 95 -11 125 0 72 -39 414 -71 625 -6 39 -15 102 -19
140 -4 39 -13 93 -18 120 -6 28 -18 95 -27 150 -17 100 -37 200 -57 285 -6 25
-14 65 -18 90 -3 25 -11 61 -17 80 -13 42 -31 110 -43 165 -15 71 -32 129 -46
163 -8 18 -14 40 -14 50 0 15 -8 42 -40 132 -6 19 -15 49 -20 65 -5 17 -18 55
-30 85 -12 30 -24 64 -27 75 -3 11 -11 35 -19 53 -8 17 -21 48 -29 67 -200
466 -392 746 -660 959 -85 68 -253 182 -315 214 -25 12 -58 32 -75 42 -16 11
-37 23 -45 26 -8 4 -55 25 -105 49 -49 23 -110 50 -135 60 -25 10 -58 23 -75
30 -16 7 -50 21 -75 30 -25 9 -58 22 -75 29 -41 18 -94 36 -130 46 -16 5 -43
13 -60 18 -16 6 -57 18 -90 27 -33 9 -73 21 -90 27 -16 5 -46 13 -65 17 -19 4
-51 13 -70 19 -19 6 -62 17 -95 25 -33 8 -82 21 -110 27 -27 7 -68 16 -90 20
-22 4 -60 12 -85 18 -120 29 -357 72 -400 72 -19 1 -62 7 -95 15 -33 8 -80 15
-105 15 -25 0 -61 5 -80 10 -19 6 -73 15 -120 20 -47 5 -128 14 -180 20 -334
39 -695 70 -815 70 -38 1 -101 5 -140 10 -38 6 -185 15 -325 20 -140 6 -318
13 -395 17 -171 8 -2738 17 -2746 9z m2826 -974 c171 -7 371 -17 445 -23 74
-5 200 -12 280 -15 80 -2 204 -11 275 -19 72 -8 184 -20 250 -26 66 -6 163
-15 215 -19 52 -5 119 -14 149 -19 29 -6 72 -11 95 -11 22 0 86 -7 141 -15
201 -31 291 -47 350 -60 33 -7 105 -20 160 -30 55 -9 123 -23 151 -31 28 -8
61 -14 74 -14 12 0 43 -6 69 -14 25 -8 73 -22 106 -31 137 -38 171 -48 195
-58 14 -5 39 -13 55 -17 17 -5 55 -18 85 -30 30 -12 66 -24 80 -27 14 -3 34
-12 45 -19 11 -8 27 -14 36 -14 10 0 30 -6 46 -14 15 -8 62 -31 103 -51 41
-20 89 -45 105 -56 17 -10 39 -23 50 -29 11 -6 34 -19 50 -30 17 -11 37 -23
45 -27 34 -15 139 -100 187 -152 54 -57 153 -196 172 -241 6 -14 15 -32 20
-40 5 -8 12 -22 15 -30 3 -8 10 -22 15 -30 9 -15 32 -66 59 -130 8 -19 21 -47
29 -62 7 -14 13 -35 13 -45 0 -11 7 -28 15 -39 8 -10 15 -29 15 -41 0 -12 6
-34 14 -50 8 -15 22 -55 31 -88 9 -33 23 -78 30 -100 7 -22 20 -69 29 -105 10
-36 23 -87 31 -115 21 -81 37 -147 45 -190 4 -22 12 -60 18 -85 10 -42 21 -98
56 -287 19 -101 38 -219 42 -263 3 -19 11 -78 19 -130 78 -520 125 -1383 96
-1770 -7 -85 -14 -198 -17 -250 -7 -153 -51 -561 -80 -755 -23 -158 -44 -285
-56 -350 -6 -33 -14 -82 -18 -110 -12 -78 -30 -166 -46 -215 -8 -25 -14 -58
-14 -73 0 -15 -7 -44 -15 -64 -8 -19 -15 -45 -15 -57 0 -11 -6 -41 -14 -66
-14 -43 -27 -92 -46 -170 -4 -19 -13 -50 -19 -67 -27 -80 -33 -100 -41 -128
-18 -66 -74 -216 -113 -305 -129 -292 -234 -441 -402 -567 -44 -33 -105 -74
-135 -90 -90 -50 -232 -120 -280 -138 -25 -9 -58 -23 -75 -30 -16 -7 -50 -20
-75 -30 -25 -9 -56 -22 -70 -27 -14 -6 -41 -14 -60 -18 -19 -5 -48 -13 -65
-18 -29 -10 -81 -25 -202 -58 -32 -8 -79 -22 -104 -30 -26 -8 -58 -14 -72 -14
-13 0 -44 -7 -67 -15 -23 -8 -54 -15 -68 -15 -14 0 -48 -6 -76 -14 -28 -8 -96
-22 -151 -31 -55 -9 -138 -22 -185 -30 -47 -8 -139 -21 -205 -29 -66 -8 -160
-20 -210 -27 -49 -6 -130 -15 -180 -19 -49 -5 -121 -13 -160 -18 -186 -27
-916 -72 -1165 -72 -69 0 -233 -7 -365 -15 -188 -12 -481 -15 -1355 -15 -613
0 -1214 5 -1335 10 -121 6 -348 15 -505 20 -455 16 -914 47 -1096 76 -50 8
-111 14 -134 14 -23 0 -88 7 -144 14 -55 8 -162 22 -236 31 -74 9 -175 23
-225 31 -221 38 -264 45 -335 60 -41 8 -95 20 -120 26 -25 6 -65 14 -90 17
-25 4 -55 13 -67 19 -12 7 -34 12 -48 12 -14 0 -36 5 -48 12 -12 6 -40 15 -62
19 -22 4 -53 12 -70 17 -16 6 -55 18 -85 27 -79 22 -179 54 -198 64 -9 4 -32
15 -50 24 -19 9 -40 17 -47 17 -7 0 -26 6 -42 14 -15 8 -75 37 -133 66 -155
76 -178 90 -271 160 -91 68 -215 190 -224 221 -4 10 -11 19 -16 19 -5 0 -9 4
-9 9 0 6 -13 29 -28 53 -35 53 -119 225 -168 343 -21 52 -61 164 -74 210 -23
77 -39 133 -48 160 -27 81 -36 113 -43 150 -10 51 -27 117 -45 175 -8 25 -14
56 -14 69 0 13 -6 47 -14 75 -19 68 -37 150 -46 211 -4 28 -12 77 -18 110 -6
33 -18 103 -26 155 -9 52 -20 127 -27 165 -6 39 -15 104 -19 145 -5 41 -13
113 -19 160 -19 157 -40 384 -45 480 -3 52 -10 163 -16 247 -14 183 -8 836 9
1033 20 227 41 441 52 530 7 47 15 117 19 155 4 39 13 104 19 145 7 41 19 118
27 170 25 155 64 359 86 450 6 25 14 65 18 90 6 43 13 70 45 185 8 28 16 61
19 75 2 14 9 39 14 55 6 17 18 57 28 90 9 33 22 76 29 95 7 19 18 51 24 70 7
19 16 49 21 65 13 47 85 227 110 274 5 9 11 23 14 31 3 8 10 23 16 33 5 9 15
25 20 35 6 9 14 27 20 39 5 12 34 59 64 105 93 141 234 274 360 339 81 42 258
130 294 145 126 55 224 91 282 104 39 9 87 25 138 46 18 8 40 14 50 14 9 0 37
6 62 14 57 18 133 37 190 47 61 10 135 27 196 45 28 8 66 14 85 14 19 0 50 5
69 10 19 6 64 15 100 20 92 12 194 29 275 46 39 8 87 14 108 14 21 0 82 7 135
15 123 18 571 57 866 76 87 5 163 12 168 15 5 3 143 10 306 14 544 16 697 22
701 26 10 10 2529 -3 2816 -14z"/>
<path d="M6335 10341 c-104 -17 -228 -76 -333 -159 -74 -59 -164 -189 -205
-297 -50 -134 -47 8 -47 -2207 0 -1986 1 -2057 19 -2129 36 -140 87 -238 176
-338 90 -101 265 -193 400 -211 145 -20 274 -14 343 16 17 8 49 21 70 30 62
27 115 56 147 79 17 12 37 25 45 28 8 4 27 15 42 25 35 22 164 104 186 117 9
6 44 28 77 50 70 46 94 61 115 72 8 4 42 25 75 48 34 23 67 44 75 48 8 4 27
15 42 25 37 24 159 101 183 115 11 7 36 24 56 40 20 15 40 27 44 27 4 0 26 13
49 28 22 15 48 31 56 35 8 4 27 15 41 25 15 9 70 44 123 77 54 33 108 67 120
75 13 8 56 35 96 60 40 25 84 53 99 62 14 9 36 23 48 30 62 37 126 77 198 123
44 29 96 61 115 72 19 10 62 37 95 58 33 22 68 44 77 50 28 16 158 99 187 117
14 10 35 22 46 28 31 17 74 44 215 135 36 23 81 51 100 61 19 11 63 38 98 62
35 23 65 42 67 42 2 0 24 14 48 30 25 17 47 30 50 30 3 0 35 20 71 45 37 25
68 45 71 45 16 0 169 115 217 163 105 104 152 195 189 361 24 111 24 151 0
262 -31 138 -64 213 -143 320 -42 57 -88 98 -188 164 -100 67 -104 70 -120 77
-8 3 -31 18 -50 32 -19 14 -51 35 -70 45 -19 11 -73 44 -120 75 -47 30 -101
64 -120 74 -33 18 -122 75 -215 136 -22 15 -47 30 -55 34 -8 4 -27 15 -42 25
-25 16 -188 118 -232 145 -11 7 -49 31 -84 55 -35 23 -67 42 -71 42 -4 0 -26
12 -48 28 -21 15 -48 32 -59 39 -10 7 -61 38 -113 70 -51 32 -105 66 -120 75
-14 9 -36 23 -47 30 -12 7 -53 32 -90 56 -38 24 -78 48 -88 55 -11 7 -49 31
-84 55 -35 23 -67 42 -71 42 -4 0 -26 12 -48 28 -54 37 -76 51 -93 59 -8 3
-31 18 -50 32 -19 14 -51 35 -70 45 -19 11 -64 38 -100 61 -163 105 -188 121
-210 131 -8 4 -41 26 -75 49 -33 23 -67 44 -75 48 -21 11 -45 26 -115 72 -33
22 -68 44 -77 50 -22 13 -151 95 -186 117 -15 10 -34 21 -42 25 -8 3 -28 16
-45 28 -52 38 -143 80 -234 110 -61 19 -255 28 -336 16z m429 -1174 c17 -13
38 -27 46 -30 8 -4 29 -16 45 -27 17 -11 39 -24 50 -30 29 -15 52 -30 120 -75
72 -47 93 -61 120 -75 11 -6 34 -19 50 -30 17 -11 39 -24 50 -30 11 -6 32 -18
47 -28 15 -9 59 -37 98 -62 39 -25 83 -53 98 -62 15 -10 36 -22 47 -28 30 -15
54 -31 115 -76 30 -22 62 -44 70 -47 8 -4 29 -16 45 -27 17 -11 37 -23 45 -27
8 -4 34 -20 56 -35 23 -15 44 -28 47 -28 3 0 34 -19 69 -43 35 -24 70 -46 78
-50 8 -4 27 -15 42 -25 15 -9 59 -37 98 -62 39 -25 83 -53 98 -62 15 -10 36
-22 47 -28 11 -6 32 -18 46 -28 33 -22 163 -103 192 -120 12 -7 34 -21 49 -30
15 -9 59 -37 98 -62 39 -25 83 -53 98 -62 15 -10 34 -21 42 -25 8 -4 43 -26
78 -50 35 -24 66 -43 69 -43 3 0 24 -13 47 -28 22 -15 49 -31 59 -35 9 -3 17
-16 17 -27 0 -11 -8 -24 -17 -27 -10 -4 -37 -20 -59 -35 -23 -15 -44 -28 -47
-28 -3 0 -34 -19 -69 -43 -35 -24 -70 -46 -78 -50 -8 -4 -27 -15 -42 -25 -15
-9 -59 -37 -98 -62 -39 -25 -83 -53 -98 -62 -15 -10 -36 -22 -47 -28 -11 -6
-32 -18 -46 -28 -15 -9 -59 -37 -98 -62 -40 -25 -84 -53 -99 -62 -15 -10 -36
-22 -47 -28 -11 -5 -54 -33 -95 -60 -41 -27 -84 -55 -95 -60 -11 -6 -32 -18
-47 -28 -14 -9 -70 -44 -123 -77 -53 -33 -108 -68 -123 -77 -15 -10 -36 -22
-47 -28 -11 -6 -32 -18 -47 -28 -15 -9 -59 -37 -98 -62 -39 -25 -82 -52 -95
-60 -13 -8 -67 -42 -120 -75 -53 -33 -107 -67 -120 -75 -39 -25 -166 -104
-189 -118 -11 -7 -33 -21 -48 -30 -75 -47 -221 -138 -236 -147 -10 -5 -32 -20
-49 -32 -17 -13 -36 -23 -42 -23 -8 0 -11 425 -11 1520 0 1143 3 1520 12 1520
6 0 25 -10 42 -23z"/>
</g>
</svg>
