<?xml version="1.0" encoding="UTF-8"?>
<!DOCTYPE svg PUBLIC "-//W3C//DTD SVG 1.1//EN" "http://www.w3.org/Graphics/SVG/1.1/DTD/svg11.dtd">
<svg xmlns="http://www.w3.org/2000/svg" version="1.1" width="350px" height="375px" style="shape-rendering:geometricPrecision; text-rendering:geometricPrecision; image-rendering:optimizeQuality; fill-rule:evenodd; clip-rule:evenodd" xmlns:xlink="http://www.w3.org/1999/xlink">
<g><path style="opacity:0.962" fill="#3535ff" d="M 163.5,-0.5 C 175.167,-0.5 186.833,-0.5 198.5,-0.5C 233.462,4.31424 263.795,18.8142 289.5,43C 285.63,46.7023 281.963,50.5357 278.5,54.5C 277.833,54.1667 277.167,53.8333 276.5,53.5C 241.25,22.3677 200.25,10.5344 153.5,18C 126.119,24.2671 102.452,37.1005 82.5,56.5C 78.5,53.1667 74.8333,49.5 71.5,45.5C 96.7682,19.5325 127.435,4.1992 163.5,-0.5 Z"/></g>
<g><path style="opacity:1" fill="#4e4eff" d="M 276.5,53.5 C 273.566,57.7728 270.233,61.7728 266.5,65.5C 266.167,65.5 265.833,65.5 265.5,65.5C 229.478,33.4105 188.144,24.2438 141.5,38C 116.299,47.2508 95.9653,62.7508 80.5,84.5C 76.6405,81.0699 72.3072,78.4032 67.5,76.5C 72.0134,69.4755 77.0134,62.8089 82.5,56.5C 102.452,37.1005 126.119,24.2671 153.5,18C 200.25,10.5344 241.25,22.3677 276.5,53.5 Z"/></g>
<g><path style="opacity:1" fill="#6666ff" d="M 265.5,65.5 C 261.767,69.2272 258.434,73.2272 255.5,77.5C 250.45,73.1153 245.116,69.1153 239.5,65.5C 201.559,42.0774 163.225,41.5774 124.5,64C 112.667,72 102.667,81.8334 94.5,93.5C 90.0908,90.4335 85.4241,87.7668 80.5,85.5C 80.5,85.1667 80.5,84.8333 80.5,84.5C 95.9653,62.7508 116.299,47.2508 141.5,38C 188.144,24.2438 229.478,33.4105 265.5,65.5 Z"/></g>
<g><path style="opacity:0.962" fill="#3b3bff" d="M 71.5,45.5 C 74.8333,49.5 78.5,53.1667 82.5,56.5C 77.0134,62.8089 72.0134,69.4755 67.5,76.5C 45.0698,110.989 39.2365,148.323 50,188.5C 56.9226,210.358 68.4226,229.358 84.5,245.5C 81.1667,249.833 77.8333,254.167 74.5,258.5C 35.6836,219.197 21.517,172.197 32,117.5C 38.1824,89.4529 51.3491,65.4529 71.5,45.5 Z"/></g>
<g><path style="opacity:1" fill="#7f7fff" d="M 239.5,65.5 C 236.806,69.8507 234.14,74.1841 231.5,78.5C 231.167,78.5 230.833,78.5 230.5,78.5C 194.516,57.3602 159.516,58.8602 125.5,83C 114.868,92.1118 106.535,102.945 100.5,115.5C 95.411,114.123 90.411,112.457 85.5,110.5C 87.7232,104.385 90.7232,98.7185 94.5,93.5C 102.667,81.8334 112.667,72 124.5,64C 163.225,41.5774 201.559,42.0774 239.5,65.5 Z"/></g>
<g><path style="opacity:0.964" fill="#4747ff" d="M 276.5,53.5 C 277.167,53.8333 277.833,54.1667 278.5,54.5C 313.274,90.6696 326.441,133.67 318,183.5C 312.272,210.966 299.772,234.633 280.5,254.5C 276.5,250.833 272.5,247.167 268.5,243.5C 268.5,243.167 268.5,242.833 268.5,242.5C 292.17,218.36 303.836,189.194 303.5,155C 303.119,120.09 290.786,90.2565 266.5,65.5C 270.233,61.7728 273.566,57.7728 276.5,53.5 Z"/></g>
<g><path style="opacity:1" fill="#9898fe" d="M 230.5,78.5 C 228.01,82.1379 225.51,85.8045 223,89.5C 222.517,90.448 222.351,91.448 222.5,92.5C 201.855,79.8338 179.855,77.0005 156.5,84C 138.244,90.9309 124.911,103.098 116.5,120.5C 111.107,118.121 105.44,117.121 99.5,117.5C 99.8333,116.833 100.167,116.167 100.5,115.5C 106.535,102.945 114.868,92.1118 125.5,83C 159.516,58.8602 194.516,57.3602 230.5,78.5 Z"/></g>
<g><path style="opacity:1" fill="#7979ff" d="M 239.5,65.5 C 245.116,69.1153 250.45,73.1153 255.5,77.5C 288.546,113.109 296.379,153.775 279,199.5C 276.006,205.311 272.839,210.978 269.5,216.5C 264.992,213.747 260.659,210.747 256.5,207.5C 256.5,207.167 256.5,206.833 256.5,206.5C 270.35,184.781 274.85,161.114 270,135.5C 264.063,111.749 251.23,92.7493 231.5,78.5C 234.14,74.1841 236.806,69.8507 239.5,65.5 Z"/></g>
<g><path style="opacity:1" fill="#6060ff" d="M 265.5,65.5 C 265.833,65.5 266.167,65.5 266.5,65.5C 290.786,90.2565 303.119,120.09 303.5,155C 303.836,189.194 292.17,218.36 268.5,242.5C 264.833,239.167 261.167,235.833 257.5,232.5C 261.885,227.45 265.885,222.116 269.5,216.5C 272.839,210.978 276.006,205.311 279,199.5C 296.379,153.775 288.546,113.109 255.5,77.5C 258.434,73.2272 261.767,69.2272 265.5,65.5 Z"/></g>
<g><path style="opacity:1" fill="#5454ff" d="M 67.5,76.5 C 72.3072,78.4032 76.6405,81.0699 80.5,84.5C 80.5,84.8333 80.5,85.1667 80.5,85.5C 59.1277,120.353 55.6277,157.02 70,195.5C 79.0961,216.361 92.9295,233.361 111.5,246.5C 111.649,247.552 111.483,248.552 111,249.5C 108.49,253.195 105.99,256.862 103.5,260.5C 96.8792,255.881 90.5459,250.881 84.5,245.5C 68.4226,229.358 56.9226,210.358 50,188.5C 39.2365,148.323 45.0698,110.989 67.5,76.5 Z"/></g>
<g><path style="opacity:1" fill="#9292fe" d="M 230.5,78.5 C 230.833,78.5 231.167,78.5 231.5,78.5C 251.23,92.7493 264.063,111.749 270,135.5C 274.85,161.114 270.35,184.781 256.5,206.5C 251.693,204.597 247.36,201.93 243.5,198.5C 246.09,193.651 248.424,188.651 250.5,183.5C 254.833,183.5 259.167,183.5 263.5,183.5C 263.5,181.167 263.5,178.833 263.5,176.5C 260.167,176.5 256.833,176.5 253.5,176.5C 255.564,164.546 255.898,152.546 254.5,140.5C 257.5,140.5 260.5,140.5 263.5,140.5C 263.5,138.5 263.5,136.5 263.5,134.5C 259.03,133.514 254.363,133.181 249.5,133.5C 249.5,128.833 249.5,124.167 249.5,119.5C 248.5,119.5 247.5,119.5 246.5,119.5C 240.642,108.639 232.642,99.6391 222.5,92.5C 222.351,91.448 222.517,90.448 223,89.5C 225.51,85.8045 228.01,82.1379 230.5,78.5 Z"/></g>
<g><path style="opacity:1" fill="#afaffd" d="M 222.5,92.5 C 232.642,99.6391 240.642,108.639 246.5,119.5C 244.585,119.216 242.919,119.549 241.5,120.5C 241.5,125.167 241.5,129.833 241.5,134.5C 239.833,134.5 238.167,134.5 236.5,134.5C 234.571,129.712 231.904,125.379 228.5,121.5C 228.5,119.167 228.5,116.833 228.5,114.5C 226.833,114.5 225.167,114.5 223.5,114.5C 205.238,96.8772 183.905,92.0438 159.5,100C 149.098,104.068 140.764,110.734 134.5,120C 135.416,120.278 136.082,120.778 136.5,121.5C 134.167,121.5 131.833,121.5 129.5,121.5C 128.515,125.634 128.182,129.968 128.5,134.5C 126.989,136.476 126.156,138.809 126,141.5C 125.333,147.5 125.333,153.5 126,159.5C 126.279,162.457 127.113,165.123 128.5,167.5C 128.81,170.713 128.477,173.713 127.5,176.5C 125.103,170.816 122.603,165.149 120,159.5C 118.5,156.667 116.333,154.5 113.5,153C 122.138,147.051 124.971,138.884 122,128.5C 120.727,125.403 118.893,122.736 116.5,120.5C 124.911,103.098 138.244,90.9309 156.5,84C 179.855,77.0005 201.855,79.8338 222.5,92.5 Z"/></g>
<g><path style="opacity:1" fill="#6d6dff" d="M 80.5,85.5 C 85.4241,87.7668 90.0908,90.4335 94.5,93.5C 90.7232,98.7185 87.7232,104.385 85.5,110.5C 69.8196,151.915 76.8196,189.082 106.5,222C 111.398,226.408 116.398,230.574 121.5,234.5C 118.07,238.36 115.403,242.693 113.5,247.5C 112.833,247.167 112.167,246.833 111.5,246.5C 92.9295,233.361 79.0961,216.361 70,195.5C 55.6277,157.02 59.1277,120.353 80.5,85.5 Z"/></g>
<g><path style="opacity:1" fill="#c7c7fe" d="M 223.5,114.5 C 222.5,114.5 221.5,114.5 220.5,114.5C 220.5,118.167 220.5,121.833 220.5,125.5C 223.167,125.5 225.833,125.5 228.5,125.5C 228.5,124.167 228.5,122.833 228.5,121.5C 231.904,125.379 234.571,129.712 236.5,134.5C 236.025,137.082 236.692,139.082 238.5,140.5C 239.792,149.503 239.792,158.503 238.5,167.5C 237.778,167.918 237.278,168.584 237,169.5C 234.413,167.804 231.579,166.804 228.5,166.5C 228.828,155.654 228.494,144.987 227.5,134.5C 225.393,133.532 223.059,133.198 220.5,133.5C 220.5,134.833 220.5,136.167 220.5,137.5C 217.893,132.626 214.56,128.292 210.5,124.5C 212.279,122.454 213.946,120.287 215.5,118C 211.745,117.245 208.078,117.411 204.5,118.5C 189.562,110.748 174.562,110.581 159.5,118C 157.004,119.331 155.004,121.164 153.5,123.5C 150.697,122.072 147.697,121.405 144.5,121.5C 144.66,119.801 144.494,118.134 144,116.5C 141.667,118.833 139.333,121.167 137,123.5C 136.536,122.906 136.369,122.239 136.5,121.5C 136.082,120.778 135.416,120.278 134.5,120C 140.764,110.734 149.098,104.068 159.5,100C 183.905,92.0438 205.238,96.8772 223.5,114.5 Z"/></g>
<g><path style="opacity:1" fill="#8686fe" d="M 85.5,110.5 C 90.411,112.457 95.411,114.123 100.5,115.5C 100.167,116.167 99.8333,116.833 99.5,117.5C 94.8333,117.5 90.1667,117.5 85.5,117.5C 85.5,139.5 85.5,161.5 85.5,183.5C 88.1667,183.5 90.8333,183.5 93.5,183.5C 93.5,176.5 93.5,169.5 93.5,162.5C 98.8455,192.849 115.512,214.516 143.5,227.5C 141.217,232.398 139.217,237.398 137.5,242.5C 132.14,239.82 126.807,237.153 121.5,234.5C 116.398,230.574 111.398,226.408 106.5,222C 76.8196,189.082 69.8196,151.915 85.5,110.5 Z"/></g>
<g><path style="opacity:1" fill="#dfdffc" d="M 204.5,118.5 C 197.173,127.159 189.507,135.493 181.5,143.5C 180.833,134.833 180.167,126.167 179.5,117.5C 177.167,117.5 174.833,117.5 172.5,117.5C 171.67,126.658 171.17,135.991 171,145.5C 168.963,143.294 166.797,141.294 164.5,139.5C 162.794,132.733 159.127,127.4 153.5,123.5C 155.004,121.164 157.004,119.331 159.5,118C 174.562,110.581 189.562,110.748 204.5,118.5 Z"/></g>
<g><path style="opacity:1" fill="#050507" d="M 153.5,123.5 C 159.127,127.4 162.794,132.733 164.5,139.5C 164.666,147.174 164.5,154.841 164,162.5C 161.983,177.941 153.15,184.941 137.5,183.5C 132.489,183.666 127.489,183.499 122.5,183C 118.872,175.576 115.372,168.076 112,160.5C 111.292,159.619 110.458,158.953 109.5,158.5C 108.942,157.21 107.942,156.377 106.5,156C 102.179,155.501 97.8461,155.334 93.5,155.5C 93.5,157.833 93.5,160.167 93.5,162.5C 93.5,169.5 93.5,176.5 93.5,183.5C 90.8333,183.5 88.1667,183.5 85.5,183.5C 85.5,161.5 85.5,139.5 85.5,117.5C 90.1667,117.5 94.8333,117.5 99.5,117.5C 105.44,117.121 111.107,118.121 116.5,120.5C 118.893,122.736 120.727,125.403 122,128.5C 124.971,138.884 122.138,147.051 113.5,153C 116.333,154.5 118.5,156.667 120,159.5C 122.603,165.149 125.103,170.816 127.5,176.5C 127.987,177.473 128.487,178.473 129,179.5C 129.5,160.17 129.667,140.836 129.5,121.5C 131.833,121.5 134.167,121.5 136.5,121.5C 136.369,122.239 136.536,122.906 137,123.5C 139.333,121.167 141.667,118.833 144,116.5C 144.494,118.134 144.66,119.801 144.5,121.5C 147.697,121.405 150.697,122.072 153.5,123.5 Z"/></g>
<g><path style="opacity:1" fill="#050506" d="M 172.5,117.5 C 174.833,117.5 177.167,117.5 179.5,117.5C 179.334,126.839 179.5,136.173 180,145.5C 180.717,144.956 181.217,144.289 181.5,143.5C 189.507,135.493 197.173,127.159 204.5,118.5C 208.078,117.411 211.745,117.245 215.5,118C 213.946,120.287 212.279,122.454 210.5,124.5C 202.154,131.846 194.487,139.846 187.5,148.5C 196.716,159.618 206.383,170.285 216.5,180.5C 216.414,181.496 216.748,182.329 217.5,183C 216.207,183.49 214.873,183.657 213.5,183.5C 211.473,183.662 209.473,183.495 207.5,183C 198.997,172.999 190.33,163.165 181.5,153.5C 181.44,152.957 181.107,152.624 180.5,152.5C 179.501,162.812 179.168,173.145 179.5,183.5C 177.167,183.5 174.833,183.5 172.5,183.5C 172.5,161.5 172.5,139.5 172.5,117.5 Z"/></g>
<g><path style="opacity:1" fill="#575774" d="M 223.5,114.5 C 225.167,114.5 226.833,114.5 228.5,114.5C 228.5,116.833 228.5,119.167 228.5,121.5C 228.5,122.833 228.5,124.167 228.5,125.5C 225.833,125.5 223.167,125.5 220.5,125.5C 220.5,121.833 220.5,118.167 220.5,114.5C 221.5,114.5 222.5,114.5 223.5,114.5 Z"/></g>
<g><path style="opacity:1" fill="#000000" d="M 221.5,115.5 C 223.5,115.5 225.5,115.5 227.5,115.5C 227.5,118.5 227.5,121.5 227.5,124.5C 225.5,124.5 223.5,124.5 221.5,124.5C 221.5,121.5 221.5,118.5 221.5,115.5 Z"/></g>
<g><path style="opacity:1" fill="#030305" d="M 241.5,120.5 C 243.833,120.5 246.167,120.5 248.5,120.5C 248.5,125.167 248.5,129.833 248.5,134.5C 253.5,134.5 258.5,134.5 263.5,134.5C 263.5,136.5 263.5,138.5 263.5,140.5C 260.5,140.5 257.5,140.5 254.5,140.5C 252.5,140.5 250.5,140.5 248.5,140.5C 248.333,151.172 248.5,161.839 249,172.5C 249.748,174.751 251.248,176.084 253.5,176.5C 256.833,176.5 260.167,176.5 263.5,176.5C 263.5,178.833 263.5,181.167 263.5,183.5C 259.167,183.5 254.833,183.5 250.5,183.5C 245.293,181.788 242.46,178.121 242,172.5C 241.5,161.839 241.333,151.172 241.5,140.5C 240.5,140.5 239.5,140.5 238.5,140.5C 236.692,139.082 236.025,137.082 236.5,134.5C 238.167,134.5 239.833,134.5 241.5,134.5C 241.5,129.833 241.5,125.167 241.5,120.5 Z"/></g>
<g><path style="opacity:1" fill="#6767a2" d="M 241.5,120.5 C 242.919,119.549 244.585,119.216 246.5,119.5C 247.5,119.5 248.5,119.5 249.5,119.5C 249.5,124.167 249.5,128.833 249.5,133.5C 254.363,133.181 259.03,133.514 263.5,134.5C 258.5,134.5 253.5,134.5 248.5,134.5C 248.5,129.833 248.5,125.167 248.5,120.5C 246.167,120.5 243.833,120.5 241.5,120.5 Z"/></g>
<g><path style="opacity:1" fill="#9797f8" d="M 112.5,129.5 C 110.605,134.978 109.605,140.644 109.5,146.5C 109.082,147.222 108.416,147.722 107.5,148C 102.845,148.499 98.1785,148.666 93.5,148.5C 93.5,140.5 93.5,132.5 93.5,124.5C 97.8461,124.334 102.179,124.501 106.5,125C 109.229,125.566 111.229,127.066 112.5,129.5 Z"/></g>
<g><path style="opacity:1" fill="#d9d9fc" d="M 210.5,124.5 C 214.56,128.292 217.893,132.626 220.5,137.5C 220.5,149.167 220.5,160.833 220.5,172.5C 219.199,175.101 217.866,177.768 216.5,180.5C 206.383,170.285 196.716,159.618 187.5,148.5C 194.487,139.846 202.154,131.846 210.5,124.5 Z"/></g>
<g><path style="opacity:1" fill="#828294" d="M 179.5,117.5 C 180.167,126.167 180.833,134.833 181.5,143.5C 181.217,144.289 180.717,144.956 180,145.5C 179.5,136.173 179.334,126.839 179.5,117.5 Z"/></g>
<g><path style="opacity:1" fill="#8d8db5" d="M 129.5,121.5 C 129.667,140.836 129.5,160.17 129,179.5C 128.487,178.473 127.987,177.473 127.5,176.5C 128.477,173.713 128.81,170.713 128.5,167.5C 128.5,156.5 128.5,145.5 128.5,134.5C 128.182,129.968 128.515,125.634 129.5,121.5 Z"/></g>
<g><path style="opacity:1" fill="#adadf4" d="M 112.5,129.5 C 113.117,129.611 113.617,129.944 114,130.5C 115.068,135.768 114.401,140.768 112,145.5C 111.329,146.252 110.496,146.586 109.5,146.5C 109.605,140.644 110.605,134.978 112.5,129.5 Z"/></g>
<g><path style="opacity:1" fill="#000000" d="M 227.5,134.5 C 227.5,150.833 227.5,167.167 227.5,183.5C 225.5,183.5 223.5,183.5 221.5,183.5C 221.5,167.167 221.5,150.833 221.5,134.5C 223.5,134.5 225.5,134.5 227.5,134.5 Z"/></g>
<g><path style="opacity:1" fill="#474757" d="M 227.5,134.5 C 225.5,134.5 223.5,134.5 221.5,134.5C 221.5,150.833 221.5,167.167 221.5,183.5C 220.518,180.038 220.185,176.371 220.5,172.5C 220.5,160.833 220.5,149.167 220.5,137.5C 220.5,136.167 220.5,134.833 220.5,133.5C 223.059,133.198 225.393,133.532 227.5,134.5 Z"/></g>
<g><path style="opacity:1" fill="#a2a2f4" d="M 254.5,140.5 C 255.898,152.546 255.564,164.546 253.5,176.5C 251.248,176.084 249.748,174.751 249,172.5C 248.5,161.839 248.333,151.172 248.5,140.5C 250.5,140.5 252.5,140.5 254.5,140.5 Z"/></g>
<g><path style="opacity:1" fill="#cdcdff" d="M 128.5,134.5 C 128.5,145.5 128.5,156.5 128.5,167.5C 127.113,165.123 126.279,162.457 126,159.5C 125.333,153.5 125.333,147.5 126,141.5C 126.156,138.809 126.989,136.476 128.5,134.5 Z"/></g>
<g><path style="opacity:1" fill="#cdcdfc" d="M 136.5,125.5 C 138.814,127.477 141.147,129.477 143.5,131.5C 144.429,130.311 144.762,128.978 144.5,127.5C 151.8,128.735 155.967,133.068 157,140.5C 158.173,151.086 157.173,161.419 154,171.5C 152.833,172.667 151.667,173.833 150.5,175C 145.964,176.379 141.297,176.879 136.5,176.5C 136.5,159.5 136.5,142.5 136.5,125.5 Z"/></g>
<g><path style="opacity:1" fill="#cfcff8" d="M 172.5,117.5 C 172.5,139.5 172.5,161.5 172.5,183.5C 174.833,183.5 177.167,183.5 179.5,183.5C 180.167,173.5 180.833,163.5 181.5,153.5C 190.33,163.165 198.997,172.999 207.5,183C 209.473,183.495 211.473,183.662 213.5,183.5C 204.161,195.751 191.661,201.751 176,201.5C 160.283,201.605 147.45,195.605 137.5,183.5C 153.15,184.941 161.983,177.941 164,162.5C 164.5,154.841 164.666,147.174 164.5,139.5C 166.797,141.294 168.963,143.294 171,145.5C 171.17,135.991 171.67,126.658 172.5,117.5 Z"/></g>
<g><path style="opacity:1" fill="#9f9ffe" d="M 109.5,158.5 C 113.69,184.007 127.356,202.341 150.5,213.5C 147.946,217.941 145.946,222.608 144.5,227.5C 144.167,227.5 143.833,227.5 143.5,227.5C 115.512,214.516 98.8455,192.849 93.5,162.5C 93.5,160.167 93.5,157.833 93.5,155.5C 97.8461,155.334 102.179,155.501 106.5,156C 107.942,156.377 108.942,157.21 109.5,158.5 Z"/></g>
<g><path style="opacity:1" fill="#7b7b94" d="M 181.5,153.5 C 180.833,163.5 180.167,173.5 179.5,183.5C 179.168,173.145 179.501,162.812 180.5,152.5C 181.107,152.624 181.44,152.957 181.5,153.5 Z"/></g>
<g><path style="opacity:1" fill="#babafb" d="M 227.5,134.5 C 228.494,144.987 228.828,155.654 228.5,166.5C 231.579,166.804 234.413,167.804 237,169.5C 237.278,168.584 237.778,167.918 238.5,167.5C 234.529,185.306 224.863,199.139 209.5,209C 195.168,217.074 179.835,219.741 163.5,217C 159.159,215.828 154.826,214.661 150.5,213.5C 127.356,202.341 113.69,184.007 109.5,158.5C 110.458,158.953 111.292,159.619 112,160.5C 115.372,168.076 118.872,175.576 122.5,183C 127.489,183.499 132.489,183.666 137.5,183.5C 147.45,195.605 160.283,201.605 176,201.5C 191.661,201.751 204.161,195.751 213.5,183.5C 214.873,183.657 216.207,183.49 217.5,183C 216.748,182.329 216.414,181.496 216.5,180.5C 217.866,177.768 219.199,175.101 220.5,172.5C 220.185,176.371 220.518,180.038 221.5,183.5C 223.5,183.5 225.5,183.5 227.5,183.5C 227.5,167.167 227.5,150.833 227.5,134.5 Z"/></g>
<g><path style="opacity:1" fill="#a5a5fe" d="M 238.5,140.5 C 239.5,140.5 240.5,140.5 241.5,140.5C 241.333,151.172 241.5,161.839 242,172.5C 242.46,178.121 245.293,181.788 250.5,183.5C 248.424,188.651 246.09,193.651 243.5,198.5C 224.466,224.346 198.799,236.179 166.5,234C 158.805,232.629 151.472,230.462 144.5,227.5C 145.946,222.608 147.946,217.941 150.5,213.5C 154.826,214.661 159.159,215.828 163.5,217C 179.835,219.741 195.168,217.074 209.5,209C 224.863,199.139 234.529,185.306 238.5,167.5C 239.792,158.503 239.792,149.503 238.5,140.5 Z"/></g>
<g><path style="opacity:1" fill="#8c8cff" d="M 243.5,198.5 C 247.36,201.93 251.693,204.597 256.5,206.5C 256.5,206.833 256.5,207.167 256.5,207.5C 230.697,242.048 196.364,255.548 153.5,248C 148.143,246.163 142.809,244.329 137.5,242.5C 139.217,237.398 141.217,232.398 143.5,227.5C 143.833,227.5 144.167,227.5 144.5,227.5C 151.472,230.462 158.805,232.629 166.5,234C 198.799,236.179 224.466,224.346 243.5,198.5 Z"/></g>
<g><path style="opacity:1" fill="#7373ff" d="M 256.5,207.5 C 260.659,210.747 264.992,213.747 269.5,216.5C 265.885,222.116 261.885,227.45 257.5,232.5C 220.266,266.486 177.933,274.653 130.5,257C 124.448,254.313 118.781,251.146 113.5,247.5C 115.403,242.693 118.07,238.36 121.5,234.5C 126.807,237.153 132.14,239.82 137.5,242.5C 142.809,244.329 148.143,246.163 153.5,248C 196.364,255.548 230.697,242.048 256.5,207.5 Z"/></g>
<g><path style="opacity:1" fill="#5a5aff" d="M 257.5,232.5 C 261.167,235.833 264.833,239.167 268.5,242.5C 268.5,242.833 268.5,243.167 268.5,243.5C 233.891,276.802 192.891,288.636 145.5,279C 130.381,275.271 116.381,269.105 103.5,260.5C 105.99,256.862 108.49,253.195 111,249.5C 111.483,248.552 111.649,247.552 111.5,246.5C 112.167,246.833 112.833,247.167 113.5,247.5C 118.781,251.146 124.448,254.313 130.5,257C 177.933,274.653 220.266,266.486 257.5,232.5 Z"/></g>
<g><path style="opacity:0.965" fill="#4141ff" d="M 268.5,243.5 C 272.5,247.167 276.5,250.833 280.5,254.5C 251.958,283.533 217.124,298.533 176,299.5C 136.747,298.597 102.913,284.931 74.5,258.5C 77.8333,254.167 81.1667,249.833 84.5,245.5C 90.5459,250.881 96.8792,255.881 103.5,260.5C 116.381,269.105 130.381,275.271 145.5,279C 192.891,288.636 233.891,276.802 268.5,243.5 Z"/></g>
<g><path style="opacity:0.706" fill="#000000" d="M 171.5,313.5 C 172.5,313.5 173.5,313.5 174.5,313.5C 174.337,315.857 174.503,318.19 175,320.5C 178.249,318.883 180.916,319.549 183,322.5C 183.499,326.821 183.666,331.154 183.5,335.5C 182.5,335.5 181.5,335.5 180.5,335.5C 180.665,331.818 180.499,328.152 180,324.5C 178.333,321.833 176.667,321.833 175,324.5C 174.501,328.152 174.335,331.818 174.5,335.5C 173.5,335.5 172.5,335.5 171.5,335.5C 171.5,328.167 171.5,320.833 171.5,313.5 Z"/></g>
<g><path style="opacity:0.368" fill="#000000" d="M 222.5,313.5 C 223.833,313.5 225.167,313.5 226.5,313.5C 226.5,315.167 226.5,316.833 226.5,318.5C 223.09,318.616 221.756,316.95 222.5,313.5 Z"/></g>
<g><path style="opacity:0.593" fill="#000000" d="M 248.5,313.5 C 249.833,313.5 251.167,313.5 252.5,313.5C 252.5,314.5 252.5,315.5 252.5,316.5C 250.654,316.222 249.32,316.889 248.5,318.5C 249.325,319.386 250.325,319.719 251.5,319.5C 251.5,320.5 251.5,321.5 251.5,322.5C 250.5,322.5 249.5,322.5 248.5,322.5C 248.5,326.833 248.5,331.167 248.5,335.5C 247.167,335.5 245.833,335.5 244.5,335.5C 244.982,330.467 244.315,325.634 242.5,321C 244.172,318.109 246.172,315.609 248.5,313.5 Z"/></g>
<g><path style="opacity:0.466" fill="#000000" d="M 321.5,313.5 C 322.5,313.5 323.5,313.5 324.5,313.5C 324.5,315.167 324.5,316.833 324.5,318.5C 323.5,318.5 322.5,318.5 321.5,318.5C 321.5,316.833 321.5,315.167 321.5,313.5 Z"/></g>
<g><path style="opacity:0.673" fill="#000000" d="M -0.5,331.5 C -0.5,327.5 -0.5,323.5 -0.5,319.5C 2.23886,314.974 6.23886,313.474 11.5,315C 15.1498,317.469 16.8164,320.969 16.5,325.5C 15.9889,334.849 11.3222,338.016 2.5,335C 1.36362,333.855 0.363622,332.688 -0.5,331.5 Z M 6.5,317.5 C 10.8696,318.041 12.8696,320.541 12.5,325C 12.951,328.934 11.451,331.768 8,333.5C 2.43318,330.151 1.09984,325.484 4,319.5C 4.9947,318.934 5.82803,318.267 6.5,317.5 Z"/></g>
<g><path style="opacity:0.648" fill="#000000" d="M 74.5,314.5 C 76.8568,314.337 79.1902,314.503 81.5,315C 83.2826,316.067 83.7826,317.567 83,319.5C 78.337,316.106 75.5037,317.106 74.5,322.5C 78.5966,322.575 81.7632,324.242 84,327.5C 84.3106,321.176 87.4772,318.676 93.5,320C 95.3333,320.5 96.5,321.667 97,323.5C 97.8901,327.382 97.3901,331.048 95.5,334.5C 91.2167,337.444 87.55,336.777 84.5,332.5C 83.6364,334.197 82.3031,335.363 80.5,336C 77.1322,336.543 73.7989,336.376 70.5,335.5C 70.5,334.167 70.5,332.833 70.5,331.5C 72.9372,331.756 75.2706,332.423 77.5,333.5C 80.3133,332.383 80.98,330.55 79.5,328C 74.8155,327.348 71.8155,324.848 70.5,320.5C 70.937,317.775 72.2704,315.775 74.5,314.5 Z M 89.5,322.5 C 92.7705,322.679 94.4371,324.512 94.5,328C 92.0617,335.21 89.7283,335.21 87.5,328C 87.7579,325.991 88.4245,324.157 89.5,322.5 Z"/></g>
<g><path style="opacity:0.657" fill="#000000" d="M 160.5,314.5 C 162.857,314.337 165.19,314.503 167.5,315C 169.363,316.418 169.863,318.251 169,320.5C 165.171,316.337 161.837,316.671 159,321.5C 158.071,325.244 158.571,328.744 160.5,332C 163.563,333.665 166.396,333.165 169,330.5C 170.033,333.217 169.2,335.051 166.5,336C 160.653,337.328 156.82,335.161 155,329.5C 153.413,323.082 155.246,318.082 160.5,314.5 Z"/></g>
<g><path style="opacity:0.625" fill="#000000" d="M 312.5,315.5 C 313.5,315.5 314.5,315.5 315.5,315.5C 315.5,316.833 315.5,318.167 315.5,319.5C 316.833,319.5 318.167,319.5 319.5,319.5C 319.5,320.5 319.5,321.5 319.5,322.5C 318.167,322.5 316.833,322.5 315.5,322.5C 315.5,325.833 315.5,329.167 315.5,332.5C 316.833,332.5 318.167,332.5 319.5,332.5C 319.5,333.5 319.5,334.5 319.5,335.5C 317.208,335.756 315.041,335.423 313,334.5C 312.044,330.019 311.211,325.519 310.5,321C 311.077,319.1 311.744,317.267 312.5,315.5 Z"/></g>
<g><path style="opacity:0.662" fill="#000000" d="M 18.5,319.5 C 21.758,320.068 25.0913,320.234 28.5,320C 31.8491,324.478 32.3491,329.312 30,334.5C 27.2533,337.034 24.5867,337.034 22,334.5C 21.5034,336.81 21.3367,339.143 21.5,341.5C 20.5,341.5 19.5,341.5 18.5,341.5C 18.5,334.167 18.5,326.833 18.5,319.5 Z M 23.5,322.5 C 26.8496,322.651 28.5163,324.485 28.5,328C 26.4816,335.186 24.1483,335.186 21.5,328C 22.2444,326.185 22.9111,324.352 23.5,322.5 Z"/></g>
<g><path style="opacity:0.693" fill="#000000" d="M 37.5,319.5 C 44.1158,318.782 47.1158,321.782 46.5,328.5C 43.1016,328.18 39.7683,328.513 36.5,329.5C 38.8451,334.003 42.0117,334.67 46,331.5C 46.49,332.793 46.6567,334.127 46.5,335.5C 36.3031,337.803 32.1364,333.803 34,323.5C 35.1022,322.051 36.2689,320.718 37.5,319.5 Z M 38.5,322.5 C 40.9124,322.244 42.5791,323.244 43.5,325.5C 41.2351,326.647 38.9018,326.814 36.5,326C 37.305,324.887 37.9717,323.721 38.5,322.5 Z"/></g>
<g><path style="opacity:0.578" fill="#000000" d="M 47.5,319.5 C 50.1373,320.151 52.6373,320.151 55,319.5C 56.7106,319.439 58.044,320.106 59,321.5C 60.3092,326.066 60.8092,330.733 60.5,335.5C 59.1667,335.5 57.8333,335.5 56.5,335.5C 56.6655,331.486 56.4988,327.486 56,323.5C 54.4126,322.273 53.0793,322.606 52,324.5C 51.5014,328.152 51.3347,331.818 51.5,335.5C 50.1667,335.5 48.8333,335.5 47.5,335.5C 47.5,330.167 47.5,324.833 47.5,319.5 Z"/></g>
<g><path style="opacity:0.568" fill="#000000" d="M 99.5,319.5 C 100.833,319.5 102.167,319.5 103.5,319.5C 103.334,323.846 103.501,328.179 104,332.5C 105.587,333.727 106.921,333.394 108,331.5C 108.333,327.833 108.667,324.167 109,320.5C 110.011,319.663 111.178,319.33 112.5,319.5C 112.5,324.833 112.5,330.167 112.5,335.5C 109.781,335.397 107.115,335.731 104.5,336.5C 102.971,336.471 101.804,335.804 101,334.5C 99.7497,329.58 99.2497,324.58 99.5,319.5 Z"/></g>
<g><path style="opacity:0.66" fill="#000000" d="M 115.5,319.5 C 117.71,320.583 119.877,320.583 122,319.5C 123.326,319.755 124.326,320.422 125,321.5C 127.497,319.522 130.331,319.022 133.5,320C 134.731,321.183 134.731,322.349 133.5,323.5C 129.227,321.482 126.893,322.815 126.5,327.5C 126.991,332.743 129.658,334.409 134.5,332.5C 134.64,334.124 133.973,335.29 132.5,336C 126.256,337.097 122.922,334.43 122.5,328C 123.99,325.8 123.657,323.966 121.5,322.5C 120.522,322.977 119.689,323.643 119,324.5C 118.501,328.152 118.335,331.818 118.5,335.5C 117.5,335.5 116.5,335.5 115.5,335.5C 115.5,330.167 115.5,324.833 115.5,319.5 Z"/></g>
<g><path style="opacity:0.693" fill="#000000" d="M 139.5,319.5 C 146.116,318.782 149.116,321.782 148.5,328.5C 145.102,328.18 141.768,328.513 138.5,329.5C 140.502,333.78 143.336,334.446 147,331.5C 147.838,335.126 146.338,336.793 142.5,336.5C 139.426,336.55 137.259,335.217 136,332.5C 135.333,329.5 135.333,326.5 136,323.5C 136.69,321.65 137.856,320.316 139.5,319.5 Z M 140.5,322.5 C 143.114,322.277 144.781,323.444 145.5,326C 143.098,326.814 140.765,326.647 138.5,325.5C 139.193,324.482 139.859,323.482 140.5,322.5 Z"/></g>
<g><path style="opacity:0.683" fill="#000000" d="M 189.5,319.5 C 196.167,318.833 199.167,321.833 198.5,328.5C 195.15,328.335 191.817,328.502 188.5,329C 190.582,333.916 193.749,334.749 198,331.5C 198.838,335.126 197.338,336.793 193.5,336.5C 186.727,335.303 184.227,331.303 186,324.5C 186.997,322.677 188.164,321.01 189.5,319.5 Z M 191.5,322.5 C 193.384,322.712 194.717,323.712 195.5,325.5C 193.604,326.466 191.604,326.799 189.5,326.5C 189.527,324.801 190.194,323.467 191.5,322.5 Z"/></g>
<g><path style="opacity:0.699" fill="#000000" d="M 200.5,319.5 C 202.71,320.583 204.877,320.583 207,319.5C 208.711,319.439 210.044,320.106 211,321.5C 214.556,318.486 217.556,318.82 220,322.5C 220.499,326.821 220.666,331.154 220.5,335.5C 219.5,335.5 218.5,335.5 217.5,335.5C 217.665,331.818 217.499,328.152 217,324.5C 215.222,322.101 213.722,322.434 212.5,325.5C 211.673,328.783 211.34,332.116 211.5,335.5C 210.5,335.5 209.5,335.5 208.5,335.5C 208.666,331.486 208.499,327.486 208,323.5C 206.413,322.273 205.079,322.606 204,324.5C 203.501,328.152 203.335,331.818 203.5,335.5C 202.5,335.5 201.5,335.5 200.5,335.5C 200.5,330.167 200.5,324.833 200.5,319.5 Z"/></g>
<g><path style="opacity:0.526" fill="#000000" d="M 222.5,319.5 C 223.833,319.5 225.167,319.5 226.5,319.5C 226.5,324.833 226.5,330.167 226.5,335.5C 225.167,335.5 223.833,335.5 222.5,335.5C 222.5,330.167 222.5,324.833 222.5,319.5 Z"/></g>
<g><path style="opacity:0.701" fill="#000000" d="M 229.5,319.5 C 231.71,320.583 233.877,320.583 236,319.5C 237.812,319.493 239.312,320.16 240.5,321.5C 241.443,326.1 241.777,330.767 241.5,335.5C 240.5,335.5 239.5,335.5 238.5,335.5C 238.665,331.818 238.499,328.152 238,324.5C 236.333,321.833 234.667,321.833 233,324.5C 232.501,328.152 232.335,331.818 232.5,335.5C 231.5,335.5 230.5,335.5 229.5,335.5C 229.5,330.167 229.5,324.833 229.5,319.5 Z"/></g>
<g><path style="opacity:0.658" fill="#000000" d="M 254.5,319.5 C 262.993,319.035 266.16,323.035 264,331.5C 260.421,337.753 256.421,338.086 252,332.5C 250.842,327.693 251.676,323.36 254.5,319.5 Z M 256.5,322.5 C 259.77,322.679 261.437,324.512 261.5,328C 259.062,335.21 256.728,335.21 254.5,328C 254.758,325.991 255.425,324.157 256.5,322.5 Z"/></g>
<g><path style="opacity:0.721" fill="#000000" d="M 267.5,319.5 C 270.062,320.371 272.728,320.371 275.5,319.5C 275.657,320.873 275.49,322.207 275,323.5C 273.413,322.273 272.079,322.606 271,324.5C 270.501,328.152 270.335,331.818 270.5,335.5C 269.5,335.5 268.5,335.5 267.5,335.5C 267.5,330.167 267.5,324.833 267.5,319.5 Z"/></g>
<g><path style="opacity:0.673" fill="#000000" d="M 276.5,319.5 C 278.71,320.583 280.877,320.583 283,319.5C 284.711,319.439 286.044,320.106 287,321.5C 290.556,318.486 293.556,318.82 296,322.5C 296.499,326.821 296.666,331.154 296.5,335.5C 295.5,335.5 294.5,335.5 293.5,335.5C 293.666,331.486 293.499,327.486 293,323.5C 291.887,322.289 290.72,322.289 289.5,323.5C 288.509,327.445 288.176,331.445 288.5,335.5C 287.167,335.5 285.833,335.5 284.5,335.5C 284.666,331.486 284.499,327.486 284,323.5C 282.413,322.273 281.079,322.606 280,324.5C 279.501,328.152 279.335,331.818 279.5,335.5C 278.5,335.5 277.5,335.5 276.5,335.5C 276.5,330.167 276.5,324.833 276.5,319.5 Z"/></g>
<g><path style="opacity:0.677" fill="#000000" d="M 300.5,319.5 C 303.685,319.02 306.519,319.686 309,321.5C 310.379,326.036 310.879,330.703 310.5,335.5C 307.962,335.507 305.462,335.841 303,336.5C 301.289,336.561 299.956,335.894 299,334.5C 297.214,327.439 300.048,324.272 307.5,325C 305.607,322.443 303.273,321.943 300.5,323.5C 299.374,322.192 299.374,320.858 300.5,319.5 Z M 302.5,328.5 C 308.638,328.63 308.971,330.297 303.5,333.5C 301.296,332.218 300.962,330.551 302.5,328.5 Z"/></g>
<g><path style="opacity:0.702" fill="#000000" d="M 321.5,319.5 C 322.5,319.5 323.5,319.5 324.5,319.5C 324.5,324.833 324.5,330.167 324.5,335.5C 323.5,335.5 322.5,335.5 321.5,335.5C 321.5,330.167 321.5,324.833 321.5,319.5 Z"/></g>
<g><path style="opacity:0.634" fill="#000000" d="M 338.5,323.5 C 341.138,319.484 344.804,318.484 349.5,320.5C 349.5,321.5 349.5,322.5 349.5,323.5C 347.194,323.007 344.861,322.674 342.5,322.5C 342.281,323.675 342.614,324.675 343.5,325.5C 345.741,326.129 347.741,327.129 349.5,328.5C 349.5,330.5 349.5,332.5 349.5,334.5C 347.714,335.722 345.714,336.389 343.5,336.5C 340.325,335.246 337.159,335.246 334,336.5C 326.615,334.308 324.615,329.641 328,322.5C 330.612,319.424 333.779,318.757 337.5,320.5C 338.386,321.325 338.719,322.325 338.5,323.5 Z M 338.5,323.5 C 339.331,327.517 341.831,329.851 346,330.5C 346.224,332.131 345.39,333.131 343.5,333.5C 341.941,332.926 340.441,332.26 339,331.5C 334.18,334.893 331.013,333.726 329.5,328C 330.676,322.777 333.676,321.277 338.5,323.5 Z"/></g>
<g><path style="opacity:0.685" fill="#000000" d="M 62.5,326.5 C 64.8333,326.5 67.1667,326.5 69.5,326.5C 69.5,327.5 69.5,328.5 69.5,329.5C 67.1667,329.5 64.8333,329.5 62.5,329.5C 62.5,328.5 62.5,327.5 62.5,326.5 Z"/></g>
<g><path style="opacity:0.686" fill="#000000" d="M 85.5,347.5 C 86.5,347.5 87.5,347.5 88.5,347.5C 88.5,354.833 88.5,362.167 88.5,369.5C 85.2606,369.38 81.9272,369.047 78.5,368.5C 74.5537,363.63 74.5537,358.796 78.5,354C 80.4248,352.405 82.4248,352.238 84.5,353.5C 85.4656,351.604 85.7989,349.604 85.5,347.5 Z M 81.5,355.5 C 85.1684,357.392 86.3351,360.392 85,364.5C 81.133,367.591 79.2997,366.591 79.5,361.5C 79.3631,359.159 80.0298,357.159 81.5,355.5 Z"/></g>
<g><path style="opacity:0.69" fill="#000000" d="M 145.5,347.5 C 146.5,347.5 147.5,347.5 148.5,347.5C 148.201,349.604 148.534,351.604 149.5,353.5C 152.58,351.895 155.08,352.562 157,355.5C 157.499,360.155 157.666,364.821 157.5,369.5C 156.5,369.5 155.5,369.5 154.5,369.5C 154.666,365.486 154.499,361.486 154,357.5C 152.126,355.224 150.459,355.557 149,358.5C 148.501,362.152 148.335,365.818 148.5,369.5C 147.5,369.5 146.5,369.5 145.5,369.5C 145.5,362.167 145.5,354.833 145.5,347.5 Z"/></g>
<g><path style="opacity:0.584" fill="#000000" d="M 160.5,347.5 C 161.5,347.5 162.5,347.5 163.5,347.5C 163.5,348.833 163.5,350.167 163.5,351.5C 162.5,351.5 161.5,351.5 160.5,351.5C 160.5,350.167 160.5,348.833 160.5,347.5 Z"/></g>
<g><path style="opacity:0.584" fill="#000000" d="M 265.5,347.5 C 266.5,347.5 267.5,347.5 268.5,347.5C 268.5,348.833 268.5,350.167 268.5,351.5C 267.5,351.5 266.5,351.5 265.5,351.5C 265.5,350.167 265.5,348.833 265.5,347.5 Z"/></g>
<g><path style="opacity:0.72" fill="#000000" d="M 98.5,348.5 C 100.144,348.286 101.644,348.62 103,349.5C 103.951,353.027 105.284,356.36 107,359.5C 108.068,356.129 109.235,352.796 110.5,349.5C 112.045,348.548 113.712,348.215 115.5,348.5C 115.5,355.5 115.5,362.5 115.5,369.5C 114.5,369.5 113.5,369.5 112.5,369.5C 112.666,364.489 112.499,359.489 112,354.5C 110.932,357.871 109.765,361.204 108.5,364.5C 107.311,365.429 105.978,365.762 104.5,365.5C 103.978,362.432 103.145,359.432 102,356.5C 101.501,360.821 101.334,365.154 101.5,369.5C 100.5,369.5 99.5,369.5 98.5,369.5C 98.5,362.5 98.5,355.5 98.5,348.5 Z"/></g>
<g><path style="opacity:0.599" fill="#000000" d="M 213.5,365.5 C 213.5,366.833 213.5,368.167 213.5,369.5C 209.5,369.5 205.5,369.5 201.5,369.5C 201.5,362.5 201.5,355.5 201.5,348.5C 202.833,348.5 204.167,348.5 205.5,348.5C 205.5,354.167 205.5,359.833 205.5,365.5C 208.167,365.5 210.833,365.5 213.5,365.5 Z"/></g>
<g><path style="opacity:0.667" fill="#000000" d="M 50.5,352.5 C 53.8621,352.07 56.6954,353.07 59,355.5C 59.4992,360.155 59.6658,364.821 59.5,369.5C 56.0678,369.41 52.5678,369.076 49,368.5C 46.239,361.563 48.739,358.063 56.5,358C 54.3023,355.138 51.8023,354.971 49,357.5C 48.36,355.457 48.86,353.79 50.5,352.5 Z M 52.5,361.5 C 53.8333,361.5 55.1667,361.5 56.5,361.5C 56.0468,366.346 54.0468,367.346 50.5,364.5C 51.1925,363.482 51.8592,362.482 52.5,361.5 Z"/></g>
<g><path style="opacity:0.689" fill="#000000" d="M 67.5,352.5 C 69.9928,352.329 71.8261,353.329 73,355.5C 73.4992,360.155 73.6658,364.821 73.5,369.5C 72.5,369.5 71.5,369.5 70.5,369.5C 70.6655,365.486 70.4988,361.486 70,357.5C 68.1257,355.224 66.4591,355.557 65,358.5C 64.5014,362.152 64.3347,365.818 64.5,369.5C 63.5,369.5 62.5,369.5 61.5,369.5C 61.5,364.167 61.5,358.833 61.5,353.5C 62.8221,353.33 63.9887,353.663 65,354.5C 65.9947,353.934 66.828,353.267 67.5,352.5 Z"/></g>
<g><path style="opacity:0.658" fill="#000000" d="M 122.5,352.5 C 125.272,352.22 127.772,352.887 130,354.5C 131.388,359.372 131.888,364.372 131.5,369.5C 128.316,369.167 124.982,369 121.5,369C 117.672,361.675 120.006,358.009 128.5,358C 126.125,355.046 123.625,354.88 121,357.5C 120.36,355.457 120.86,353.79 122.5,352.5 Z M 124.5,361.5 C 125.978,361.238 127.311,361.571 128.5,362.5C 127.086,366.931 125.086,367.431 122.5,364C 123.056,362.989 123.722,362.156 124.5,361.5 Z"/></g>
<g><path style="opacity:0.659" fill="#000000" d="M 137.5,352.5 C 141.241,351.599 143.241,352.932 143.5,356.5C 136.317,355.539 134.15,358.539 137,365.5C 138.796,366.767 140.629,366.767 142.5,365.5C 143.946,368.406 142.946,369.739 139.5,369.5C 136.426,369.55 134.259,368.217 133,365.5C 131.243,359.825 132.743,355.492 137.5,352.5 Z"/></g>
<g><path style="opacity:0.562" fill="#000000" d="M 172.5,352.5 C 174.582,352.472 176.416,353.139 178,354.5C 179.325,359.401 179.825,364.401 179.5,369.5C 178.167,369.5 176.833,369.5 175.5,369.5C 175.5,365.167 175.5,360.833 175.5,356.5C 173.856,356.286 172.356,356.62 171,357.5C 170.501,361.486 170.334,365.486 170.5,369.5C 169.167,369.5 167.833,369.5 166.5,369.5C 166.5,364.167 166.5,358.833 166.5,353.5C 168.735,353.795 170.735,353.461 172.5,352.5 Z"/></g>
<g><path style="opacity:0.648" fill="#000000" d="M 186.5,352.5 C 192.929,352.654 195.596,355.987 194.5,362.5C 191.15,362.335 187.817,362.502 184.5,363C 185.167,364 185.833,365 186.5,366C 189.192,366.43 191.859,366.263 194.5,365.5C 194.64,367.124 193.973,368.29 192.5,369C 182.875,370.314 179.375,366.147 182,356.5C 183.397,354.93 184.897,353.596 186.5,352.5 Z M 187.5,355.5 C 189.2,356.016 190.533,357.016 191.5,358.5C 189.235,359.647 186.902,359.814 184.5,359C 185.365,357.641 186.365,356.474 187.5,355.5 Z"/></g>
<g><path style="opacity:0.648" fill="#000000" d="M 213.5,365.5 C 211.687,358.731 214.021,354.398 220.5,352.5C 225.524,353.864 227.524,357.197 226.5,362.5C 223.15,362.335 219.817,362.502 216.5,363C 217.167,364 217.833,365 218.5,366C 221.192,366.43 223.859,366.263 226.5,365.5C 226.126,368.62 224.293,369.954 221,369.5C 217.634,369.57 215.134,368.237 213.5,365.5 Z M 219.5,355.5 C 221.2,356.016 222.533,357.016 223.5,358.5C 221.235,359.647 218.902,359.814 216.5,359C 217.365,357.641 218.365,356.474 219.5,355.5 Z"/></g>
<g><path style="opacity:0.649" fill="#000000" d="M 230.5,352.5 C 233.272,352.22 235.772,352.887 238,354.5C 239.388,359.372 239.888,364.372 239.5,369.5C 236.316,369.167 232.982,369 229.5,369C 225.427,362.121 227.427,358.288 235.5,357.5C 233.389,354.956 231.222,354.956 229,357.5C 228.36,355.457 228.86,353.79 230.5,352.5 Z M 231.5,361.5 C 236.819,360.543 237.819,362.043 234.5,366C 230.707,366.487 229.707,364.987 231.5,361.5 Z"/></g>
<g><path style="opacity:0.595" fill="#000000" d="M 246.5,352.5 C 250.007,353.669 253.507,353.669 257,352.5C 258.473,352.903 259.806,353.57 261,354.5C 262.388,359.372 262.888,364.372 262.5,369.5C 261.5,369.5 260.5,369.5 259.5,369.5C 259.628,365.119 259.295,360.785 258.5,356.5C 256.856,356.286 255.356,356.62 254,357.5C 253.501,361.486 253.334,365.486 253.5,369.5C 252.178,369.67 251.011,369.337 250,368.5C 249.935,363.982 249.269,359.649 248,355.5C 247,356.167 246,356.833 245,357.5C 244.501,361.486 244.334,365.486 244.5,369.5C 243.167,369.5 241.833,369.5 240.5,369.5C 240.5,364.167 240.5,358.833 240.5,353.5C 242.735,353.795 244.735,353.461 246.5,352.5 Z"/></g>
<g><path style="opacity:0.689" fill="#000000" d="M 277.5,352.5 C 279.993,352.329 281.826,353.329 283,355.5C 283.499,360.155 283.666,364.821 283.5,369.5C 282.5,369.5 281.5,369.5 280.5,369.5C 280.666,365.486 280.499,361.486 280,357.5C 278.126,355.224 276.459,355.557 275,358.5C 274.501,362.152 274.335,365.818 274.5,369.5C 273.5,369.5 272.5,369.5 271.5,369.5C 271.5,364.167 271.5,358.833 271.5,353.5C 272.822,353.33 273.989,353.663 275,354.5C 275.995,353.934 276.828,353.267 277.5,352.5 Z"/></g>
<g><path style="opacity:0.675" fill="#000000" d="M 296.5,374.5 C 293.5,374.5 290.5,374.5 287.5,374.5C 286.74,370.4 288.073,369.4 291.5,371.5C 293.286,371.304 294.619,370.471 295.5,369C 289.323,370.175 285.99,367.508 285.5,361C 286.772,353.36 291.106,350.86 298.5,353.5C 298.666,359.509 298.499,365.509 298,371.5C 297.487,372.527 296.987,373.527 296.5,374.5 Z M 291.5,355.5 C 295.541,357.288 296.541,360.288 294.5,364.5C 290.842,366.324 289.175,365.157 289.5,361C 289.395,358.822 290.061,356.988 291.5,355.5 Z"/></g>
<g><path style="opacity:0.702" fill="#000000" d="M 160.5,353.5 C 161.5,353.5 162.5,353.5 163.5,353.5C 163.5,358.833 163.5,364.167 163.5,369.5C 162.5,369.5 161.5,369.5 160.5,369.5C 160.5,364.167 160.5,358.833 160.5,353.5 Z"/></g>
<g><path style="opacity:0.702" fill="#000000" d="M 265.5,353.5 C 266.5,353.5 267.5,353.5 268.5,353.5C 268.5,358.833 268.5,364.167 268.5,369.5C 267.5,369.5 266.5,369.5 265.5,369.5C 265.5,364.167 265.5,358.833 265.5,353.5 Z"/></g>
</svg>
